<svg xmlns="http://www.w3.org/2000/svg" viewBox="0 0 866.75 678.63"><defs><style>.cls-1{fill:#151316;}.cls-2{fill:#181619;}.cls-3{fill:#151315;}.cls-4{fill:#171517;}.cls-5{fill:#161316;}.cls-6{fill:#201e21;}.cls-7{fill:#121113;}.cls-8{fill:#141316;}.cls-9{fill:#222023;}.cls-10{fill:#1d1c20;}.cls-11{fill:#211c1e;}.cls-12{fill:#a78d62;}.cls-13{fill:#9e865a;}.cls-14{fill:#9e8256;}.cls-15{fill:#a6895c;}.cls-16{fill:#222126;}.cls-17{fill:#25252a;}.cls-18{fill:#977a4c;}.cls-19{fill:#ad9164;}.cls-20{fill:#9d8660;}.cls-21{fill:#8e7245;}.cls-22{fill:#a79272;}.cls-23{fill:#2c2b30;}.cls-24{fill:#575359;}.cls-25{fill:#2c292e;}.cls-26{fill:#b5a489;}.cls-27{fill:#f4f4f4;}.cls-28{fill:#f6f6f6;}.cls-29{fill:#f9f9f9;}</style></defs><g id="Layer_2" data-name="Layer 2"><g id="Layer_1-2" data-name="Layer 1"><path class="cls-1" d="M102.74,144.23c0,1.83-.44,3.82.13,5.45s2,3.67,3.36,3.92c6.37,1.19,12,3.93,15.5,9.17,5.15,7.65,10.7,15.43,13.81,24,4,10.89-1,22.39-10.61,28.78C107.72,226.94,90.32,238.05,73,249.34c-2.7,1.76-4.18,1.29-6-1.48Q35,198.4,2.72,149.1c-3.87-5.94-4-6.26,2-10.1q25.43-16.32,51-32.36c11.17-7,22.54-5.72,31.42,4S103.26,132.1,102.74,144.23ZM51.64,171.1c1.16-.61,2.2-1.09,3.17-1.69,5.08-3.17,10.18-6.32,15.21-9.58,12.59-8.15,12.52-8.13,3.08-20.31-1.71-2.19-3.15-2.56-5.41-1.08-7.65,5-15.43,9.87-23,15.08-1.28.88-2.6,3.71-2.09,4.8a96.6,96.6,0,0,0,6.91,11.53C49.93,170.44,50.88,170.67,51.64,171.1Zm51.93,16.56c-2.33-3.93-4.5-7.43-6.52-11-1.81-3.22-4.13-3.45-7-1.54-4.85,3.19-9.82,6.2-14.55,9.56C62,194.26,63.59,190,72,204.2c1.53,2.56,3.22,3.36,6,1.44,7.4-5,15-9.79,22.44-14.75A20.85,20.85,0,0,0,103.57,187.66Z"/><path class="cls-2" d="M334.22,114.69c-1.64,5.65-2.9,11.46-5,16.92A15.7,15.7,0,0,1,318,141.45q-26.15,6-52.4,11.59c-6.75,1.44-17-4.66-20.57-13.12a181.2,181.2,0,0,1-8.73-26.9C231.9,95.12,228,77.1,224.36,59,221.6,45.32,227,27.1,248,23.9c11.61-1.77,22.95-5.23,34.49-7.54,14.8-3,26.26-.2,32.52,17,4,10.85,6,22.44,8.66,33.73q4.5,18.9,8.63,37.88a83.64,83.64,0,0,1,1,9.4Zm-66,2.8,3.92-.8c9.1-1.86,18.15-4,27.31-5.46,4.34-.68,4.78-2.55,3.88-6.07-1.72-6.74-3.39-13.5-4.92-20.29-2.48-11-4.75-22-7.35-33-.22-.94-2.44-2.25-3.46-2-10.4,2.06-20.77,4.26-31.06,6.83-1.3.32-3.13,3.19-2.86,4.49,3.66,17.72,7.61,35.38,11.67,53C265.71,115.57,267.46,116.62,268.26,117.49Z"/><path class="cls-3" d="M740.3,190.3l49.13,41.35c2.88-3.31,5.19-6.11,7.65-8.76,2.74-2.94,2.54-5.24-.64-7.88-9.35-7.76-18.06-16.37-27.86-23.48-9.22-6.67-9.75-20.88-4.4-28.27,8.09-11.16,16.26-22.52,26-32.16,9.41-9.31,17.35-10.39,27.8-1.63,12.88,10.8,25.66,21.72,38.48,32.59,3.17,2.69,6.51,5.21,9.39,8.19.87.89,1.22,3.63.52,4.5-5.79,7.3-11.87,14.37-17.9,21.47-2.32,2.73-3.89.16-5.36-1.07q-17.76-15-35.39-30.05c-6-5.15-6-5.18-11,1.1-6.45,8.08-6.33,7.92,1.88,14.64,9.27,7.59,18.49,15.25,27.34,23.31,6.94,6.31,8.32,15.79,2.7,23.41-8.27,11.23-17.29,21.95-26.48,32.45-3.85,4.4-9.18,7.46-15.49,6.68-2.82-.35-6-1.21-8.16-3-18.41-15.32-36.59-30.92-54.91-46.35-2.22-1.87-2.83-3.44-.85-5.8C728.48,204.7,734.16,197.76,740.3,190.3Z"/><path class="cls-4" d="M647.2,72.5c-15.72-4.53-30.71-8.73-45.61-13.21-4-1.2-5.92,0-7.05,3.75-3.55,11.85-3.6,11.85,8.25,15.12s24,6.58,35.93,9.83c2.63.71,4,1.8,3,5-2.25,7.08-4.2,14.25-6.37,21.73-15.78-4.28-31-8.25-46.12-12.61-3.63-1-5.34,0-6.56,3.09a2.62,2.62,0,0,0-.19.46c-2.61,11.56-7.14,11.13,7.53,14.84,11.72,3,23.32,6.4,35,9.49,3.76,1,5.77,2.19,4.28,6.81-2.86,8.81-5.09,17.84-7.76,27.44-7.42-2-14.54-4-21.68-6q-26-7-52-13.95c-3.35-.89-5.18-1.88-3.95-6.09,5.08-17.37,9.78-34.85,14.66-52.28,5.94-21.24,12.06-42.44,17.79-63.75,1-3.72,2.51-4,5.61-3.17,23.56,6.68,47.16,13.24,70.69,20.05,1.29.38,3.15,2.91,2.88,3.95C653.07,52.75,650.13,62.41,647.2,72.5Z"/><path class="cls-5" d="M666,96.83l.65-1.17c.43-1,.87-1.9,1.31-2.84q.94-2.08,1.91-4.15L671.19,86l.53-1.33,1.38-2.75c.51-1.09,1-2.17,1.52-3.25l1.32-2.85.56-1.16,1-2,1.34-3,2.27-4.74c.19-.42.38-.85.56-1.27L683.18,61l.53-1.31c2.53-1.59,3.95-5.33,7.94-4.1q18.51,9,37,18c3,1.44,5.85,3,8.77,4.59L748,83.43c4.39,1.87,8.84,3.67,10.65,8.71L760,94.67l1.29,5c0,1.62,0,3.25,0,4.88q-2.61,7-5.23,14l-1.31,2.69-1.53,3.32c-.46.92-.91,1.84-1.37,2.77-3.64,8.64-9,15.58-18.76,17.57-2.75.55-3.24,1.88-2.26,4.22,4.22,10.09,2,19.36-3,28.58-4.74,8.77-9,17.78-13.22,26.82-1.61,3.47-3.29,3.88-6.54,2.12-5.55-3-11.24-5.8-17-8.34-3.3-1.45-3.53-3.1-2-6.12,6.17-12.15,12.07-24.44,18.23-36.6,1.84-3.65,1.72-6-2.45-7.89-7.72-3.5-15.29-7.34-22.84-11.2-2.88-1.48-4.48-.92-5.81,2.06-1.83,4.09-4,8-6.08,12-.81,1.51-1.62,3-2.42,4.52l-.54,1.48-1.39,2.66-.54,1.35-1.38,2.73-3.58,7.27-1.43,2.73c-.2.42-.41.84-.61,1.27l-6.32,4.25-1.38-.56L647.74,177l-1.25-.74-3.41-5.72L638,172.25l-.13-.05c1.21-3.88,2.42-7.76,3.7-11.89l-4.64-1.13c.13-1.44.24-2.71.36-4l1.81-3.69L644.2,141l3.64-7.32,1.31-2.72.54-1.29,1.37-2.78,13.47-27.21Zm62.55,15.47a24.86,24.86,0,0,0-3.51-2.85c-6.15-3.32-12.31-6.61-18.55-9.74-8.92-4.47-9-4.4-13.44,4.68-.59,1.19-1.19,2.38-1.81,3.55-1.26,2.37-.76,4.06,1.72,5.28,8.36,4.09,16.66,8.31,25,12.33,1,.48,3.21.46,3.54-.1C724,121.33,726.08,117,728.54,112.3Z"/><path class="cls-6" d="M271.44,451.74a12.66,12.66,0,0,1,1.87,1.52c10.46,12.31,23.12,14.12,37.81,8.63,9.46-3.54,19.22-6.33,28.93-9.19,8.4-2.47,13.8-8.94,15.56-17.63,2.56-12.63,1.05-25.1-2.55-36.94a500.17,500.17,0,0,0-17.94-48.4c-5.74-13.69-14.88-18.54-29.47-16.15-13.76,2.26-27.32,1.62-41.1.49-19.51-1.61-36.86,5.37-52.85,16.05-5.12,3.41-10.12,7-15.13,10.57-13.81,9.88-29.49,10.74-45.75,10.39-17.42-.38-35-.86-52.24,1.12-10.67,1.23-20.11,1-29.19-4.37-2.32-1.37-3.86-4.09-5.76-6.19,2.48-1,4.94-2.87,7.43-2.92a127,127,0,0,1,19.4.94c24.2,3.23,48.51,4.08,72.64.64a96.76,96.76,0,0,0,51-23.29c8.54-7.48,18.91-12,30.53-11.88,18.22.17,36.06-1.66,53.73-6.54,16.53-4.57,33.62,3,43.58,19,8.8,14.15,21.16,23.68,35.82,30.57,7.77,3.65,11.61,9.92,14.44,17.52,4.28,11.47,8.37,23.08,13.64,34.1,6.95,14.53,15.17,28.45,22.4,42.85,2.8,5.57,4.38,11.75,6.51,17.66l-5.1-.89c-.07,1.39-.14,2.81-.21,4.23-.25.65-.5,1.3-.74,1.95a62.22,62.22,0,0,0-16.19-30.23l-1.62-1.55c-.44.75-.88,1.49-1.31,2.24.9,6.34,2.37,12.66,2.54,19,.19,7-1.44,13.76-7.36,18.57-2.39-3.59,0-6.45,1.4-9.49s1.94-5.75-2.53-6.52l.29-2,0-7-1.62-7.93c1.53-1.93,2-3.51-1.25-3.92l-.81-3.06,3.3-2.51-.45-1.17-4-.35-.25-1.17-1.23-2.87c-.72-2.67-1.44-5.33-2.15-8,4.11-4.54-1-6.28-2.75-9l-.41-1.93,3.85-1.81c-1.42-2.8-3-3.33-5.09-1.13l-.29-2.24c.73-1.38,1.47-2.75,2.42-4.52l-4.2-.39-2.47-8-.73-2a88.7,88.7,0,0,0-2.28-9.66,51.25,51.25,0,0,0-4.91-10.65c-.73-1.15-3.9-1.88-5.13-1.24s-2.22,3.29-2.12,5a41,41,0,0,0,2,8.69c5.06,17.33,10.32,34.61,15.22,52,4.33,15.34-3.88,29.29-19.3,33.41l-2.84,1.15-2,.41-5,1.46-7,1.44-4,.34-3.95.79-2,.65-12,2.52q0-3.07,0-6.14l20-6.16,7.68,4.64c-.32-2.75-.51-4.3-.69-5.85l3.06-.64,2-.6,3-.47,2-.76,4.42-2.47,2.51-2,.84-.94c2.09-.07,5,.72,6.12-.36,3.48-3.33,3.07-18-.12-21.67a5.2,5.2,0,0,0-1.71-.87c-.3-1.68-.61-3.36-.91-5.05l-.84-2-2.37-12c.6-2.71,4.78-6.51-2.11-7l-3-11.45c.3-1.4.61-2.81.91-4.21.69-3.29,0-5.76-3.79-6.41-.72-3.71-1.08-7.53-2.24-11.1-1.92-5.9-.15-12.84-5-17.86a30,30,0,0,0-2.88-2.37c-.7,1.17-2.05,2.39-2,3.53.34,6.39.24,13,1.75,19.1,3.69,15,8.13,29.7,7.55,45.49-.31,8.59-3.81,14.45-11.15,17.81a224,224,0,0,1-21.85,8.2c-10.92,3.68-22,7.06-32.93,10.57-.95-1.12-1.9-2.25-2.86-3.37l-1,.68v3.33l-5.26-4a23.55,23.55,0,0,0-4.67-2.25c-1.34-.33-2.87.12-4.31.23-1.12-1.8-2.23-3.61-3.27-5.29l2.39-2.61-6,.34C272.76,457.53,272.1,454.63,271.44,451.74Z"/><path class="cls-7" d="M230.09,138.66l1.28,3c-.25,1.18-.49,2.36-.9,4.32-1.49-2.59-2.53-4.41-3.57-6.23l-1.41.57c.8,3.39,1.6,6.79,2.57,10.88.53,1,2.37,2.79,2.13,4.28-.28,1.75-2.13,4.09-3.74,4.51-1.17.3-3.07-2.07-4.58-3.32s-3-3.69-4.44-3.7c-4.52,0-5-2.44-4-7l-7.22,3c-1.17-1.43-2.36-2.87-3.54-4.32l-.44-1.31-1.38-2.7-2.24-6c-1-3.41-1.88-6.91-3.23-10.2-.36-.87-2.55-1.89-3.36-1.55-4.94,2-9.71,4.43-14.54,6.71l-2,1c-4.78,1.75-10,2.89-14.08,5.65-1.19.8.55,6.29,1.32,9.55a39.86,39.86,0,0,0,2.86,7.92,34.75,34.75,0,0,0,3.53,5l.82,2.22c1.64,4.79,3.19,9.62,5,14.36,2.2,5.9.2,10.66-5.66,13l-7.69,3.06-3.95-4.37-1.05.78,1.58,5.4-4.53-1.48c-.32-.11-.4-.32-.25-.63a15.07,15.07,0,0,0-.55-2.86c-4.22-10.75-8.35-21.54-12.82-32.19-1.66-3.95-4.15-7.56-6.26-11.33-.19-.43-.38-.85-.56-1.28l-1.62-3.7c-.15-.42-.29-.84-.43-1.25q-2.26-5.38-4.52-10.76-1.22-3.12-2.42-6.24c-1-2.24-2-4.47-2.92-6.71l-.1-.28c-.52-1.26-1-2.51-1.55-3.76-.17-.4-.34-.8-.52-1.19q-1.74-3.92-3.49-7.83c-.48-1.07-1-2.14-1.46-3.21l-2.56-5.77c-.18-.39-.36-.78-.53-1.17-.37-1.69-.38-3.58-1.17-5-2.47-4.58-1.5-8.5,1.68-12.21l3-1.44c.26.19.6.6.76.53,9.33-3.49,18.67-7,27.94-10.64,1-.39,1.52-1.91,2.26-2.91l1.18-.56c1.13,0,2.41.38,3.37,0,6.09-2.53,12.14-5.19,18.15-7.9,2.83-1.27,5.55-2.76,8.32-4.15l2.94-.08,10.34,4.31,0,0,2.52,2.41.11.14c1.35,1.92,2.69,3.85,4,5.78l.28.13v.31c.56,1.2,1.12,2.39,1.69,3.59s1,2.13,1.49,3.19l1.68,3.78c.13.33.25.67.37,1l-.65.43.65-.37a.5.5,0,0,1,.21.48q2.34,6.74,4.67,13.49c.14.69.28,1.37.41,2.06C206,92.31,205,97,203.58,101.43c-1.86,5.69-1.51,6.7,4.43,8.49a36.76,36.76,0,0,0,4.36.76l4.12,2.89,3.93,4.09c.62,1,1.24,2,1.85,3,1.16,3.61,2.09,7.31,3.54,10.79C226.88,134,228.64,136.29,230.09,138.66ZM174.78,83.82a9.53,9.53,0,0,0-1.31.33c-9,3.82-18.08,7.52-26.94,11.68-1.09.52-2,4.15-1.32,5.25,2.48,3.87.91,10.53,7.58,11.52.58.09,1.26-.38,1.88-.62,5.56-2.16,11.18-4.19,16.68-6.5,12.8-5.37,13.14-6.44,6.77-18.81a4.7,4.7,0,0,0-1-1.67A12.6,12.6,0,0,0,174.78,83.82ZM174,178.27l-.06.74c.09-.11.25-.22.26-.35S174.06,178.4,174,178.27Z"/><path class="cls-5" d="M470.31,110.61l-.54,10c-.18,1.65-.35,3.3-.53,4.95l-.39,2.05c-1.27,3.39-4.25,4.2-7.33,4.86l-4-.22-4-.81-2-.31-4.49-6.3-3.48,1.3V115.63l2-4c.64-.59,1.9-1.35,1.79-1.72-.25-.86-1.15-1.52-1.79-2.27l-1-1c0-.66,0-1.32,0-2,3.95-2.27,1.1-6.06,2-9,3.19-2,3.26-4.84,2-8l0-12c.65-1.08,1.77-2.12,1.88-3.25.27-2.89.09-5.81.09-8.72.25-1.29.89-2.65.67-3.85-.62-3.5-1.05-6.46,1.09-10.08,1.72-2.92.92-7.33,1.24-11.08l-1-4c0-1,0-2,0-3,.92-1.41,2.22-2.72,2.67-4.26s-.3-3.19-.12-4.76c.41-3.66,1.05-7.3,1.7-11.6l3.48-1.1,1.27-8.06,2,.23,2.94.8c1.31,0,2.62-.12,3.93-.07,10.41.36,10.58-2.7,9.64,10.8l-.63,5-.42,2c-.17,1-.35,2-.52,3l-.21,9-.87,6q-.26,6.15-.52,12.3c-.24,2-1.07,4.42,2.59,3l3.07.33,17,1.6,9.05.12,4.84.52.46-4.74q.29-6,.56-12l1.29-8q.14-5,.25-10l4.52,1.55,2.39-11.56-1.28-.48-2.61,2.43c-.4-1.22-.84-2.57-1.27-3.91.11-3.4,2.15-2,3.84-1.57L539.38,9.9l4.06.2,1.83,4.48-.43,2c-.17,3.66-.35,7.32-.52,11l-.33,3c-.27,1-.53,2-.8,2.94q-.29,5-.56,10l-.3,3-.24,2-.75,3q-.3,6-.61,12c-.15,1-.29,2-.43,3l-.39,2c-.19,1-.38,2-.58,3-.13,3.67-.26,7.35-.4,11l-.63,3-.66,4-.24,6-.36,5c-.26,1.32-.51,2.63-.76,4l-1.26,16-.69,3-.24,5-1.12.51,1.12.52c-.1,1.65-.21,3.3-.31,5l-1,3.36-.25-.24.28.21a36.23,36.23,0,0,0-6-1.75c-1.05-.13-2.23.84-3.35,1.31l-11-.32,1.88-3.07c-1.22-2.84-2-5-3.1-7.1-.3-.6-1.18-.92-1.8-1.37,0-3.67,0-7.35,0-11,2-.72,3.74-1.47,1.6-4a27.43,27.43,0,0,1-2.34-3.92l.44-7.06q.7-6,1.4-12l0-2.09c-.51-1.19-.95-3.37-1.54-3.41-6.49-.47-13-.6-19.53-.82l-10.07-.31c-3.88-2.45-5.81-2-6.15,1.55-.09,1.34-.18,2.69-.26,4-.32,1.63-.63,3.27-.95,4.9-.13.7-.27,1.39-.4,2.09-.11,2-.21,4-.32,6-.06,1.67-.11,3.34-.17,5C469.13,106.35,467.5,108.14,470.31,110.61ZM469,6.06l.08,1.48L473,7.18c0-.38-.06-.75-.1-1.12Zm6.23.83-.2.77,1.78.48.21-.83Z"/><path class="cls-8" d="M657.9,474.47h.38l.17.34,2.25,1.74a.53.53,0,0,1,.73.45l1,3.52-3-.09c-1.81-3.18-3-1.65-4.06.54l-2,.47c-5.07-.75-10.62,2.11-11.95,6.16l0,0c-3.62,1.47-8.71.47-10,5.9l-.08.06c-4.7,1.3-7.12,5.85-7.4,13.88l-5.19,7.32-6.34,2.29-2,.28-6,1.93-5.28,6.33c-.63,1.65-1.27,3.31-1.9,5-1.22,1.86-2.44,3.71-3.65,5.57l-2.85-1.08-2.2-1.13c-2.83-2.19-5.73-3.71-9.15-1.15l-2,.53-5.73.3-1-3c.25-1.31.49-2.62.74-3.93.92-.17,3.19,2,4.61,4.7,1-2.54,2-4.79,2.86-7l-8.45-1.65-1.51-.1c-4-5.91-7.85-6.23-11.8-1l-.85,4c0,1,0,2.07,0,3.11l-.81,4.94c-.66-.23-1.89-.47-1.89-.69a84.33,84.33,0,0,1,.46-10.31c.34-2.53,2.57-5.43,1.82-7.33-1.62-4.16-.28-7.16,1.53-10.53.36-.67-.64-2.07-1-3.13l-1.84-3.18c2.59-3.42,5-6.91,3.94-11.56l5-1.17,3-.81c5.18-1.59,8.76-4.49,8.54-10.48l1.7-6.16-1.2-.29-3,3.5-5.14-2.63c-2.83-3.94-6.92-2.81-10.77-2.68l-4.12-.93,1.33-5.15c3.15,1,5.63,1.75,8.1,2.54s5,1.72,7.52,2.35c.53.14,1.32-.75,2-1.17l5,.52,2.07-.13,3-.35c1.94,2.4,2.5,2.24,4-1.09l1.2-.55,4.75-2.69,3.76-3,5.18-5.13,3.18-3.73c.59-.79,1.19-1.58,1.78-2.38l1.65-2.84c4.88-.81,3.19-4.5,3.25-7.43l.57-3.36c.3-1,.6-2,.89-3l0-18.16c.43-1,.86-2,1.1-2.57a18.39,18.39,0,0,0,2.94,1.14c1.58-2.7,3-5.51,4.35-8.22,1.69,1.17,2.47,12.67.08,18.89-.51-1.31-.9-2.34-1.3-3.37-2.72,6.32,2.2,7.59,4.84,10.27.16.68.33,1.36.49,2-.86,5.11,1.31,9.18,4.43,12.92a.54.54,0,0,1,.44.75l1.11,2.26,1.44,2.55,1.74,2.44,3.21,4.7,2.81,3.31,4.21,4.64,2.23,2.2,5.64,5,2.67,2.15.4.06.12.39Zm-37.36-46.62c-.39.49-.82.79-.84,1.12s.28.8.45,1.2c.38-.35.88-.64,1.09-1.08C621.34,428.89,620.87,428.41,620.54,427.85Zm-50,91.59c.33-.57.79-1.07.69-1.27-.22-.42-.74-.68-1.13-1-.15.4-.46.82-.42,1.2S570.18,519,570.57,519.44Zm17.14,9.83c.12-.27.39-.61.31-.81s-.51-.25-.78-.37c-.12.28-.39.61-.31.81S587.43,529.15,587.71,529.27Zm34.37-95.35c-.11-.28-.15-.71-.35-.8s-.53.18-.81.29c.11.27.15.7.34.79S621.8,434,622.08,433.92Zm-4,1.22c-.29.49-.59.79-.53,1s.45.34.69.5C618.24,436.19,618.19,435.79,618.12,435.14Zm-23.91,96.68a1.3,1.3,0,0,0-.14-.42s-.24.06-.37.09a1.4,1.4,0,0,0,.15.42S594.08,531.85,594.21,531.82Z"/><path class="cls-9" d="M571.42,463.83c-.67.42-1.46,1.31-2,1.17-2.55-.63-5-1.55-7.52-2.35s-4.95-1.55-8.1-2.54l-1.33,5.15-4.11-1.33c.38-1.76.76-3.51,1.25-5.79h-2.51c.12,1.88.24,3.76.35,5.64-9.41-3.13-19-5.8-28.19-9.56-6.87-2.82-10.77-8.44-11-16.4A121.52,121.52,0,0,1,512,404.73c2.41-9.6,4-19.43,5.48-29.23.36-2.35-.89-4.95-1.59-8.43-6,5.1-8.94,10.29-9.39,17-.26,3.92-1.15,7.79-1.76,11.69l-3.46-4.19c0-1,.38-2.12,0-2.94-.81-1.88-1.57-4.29-3.11-5.17-1-.6-3.86.58-5,1.79a18.08,18.08,0,0,0-4.14,7c-4.62,16.2-8.74,32.54-13.49,48.7-2.91,9.88-6.5,19.52-6.64,30-.13,9,2.94,16.19,10.92,20.9,3.56,2.11,7.09,4.25,10.63,6.38l-.21,5-1.83-.76c-2.85-5.72-6.39-6.92-11-3.76L472.35,496c-.21-2,0-4.15-.72-5.92-1.45-3.5-4.51-6.65-5-10.18-.82-6.47-.3-13.12-.17-19.69.06-3.15-.73-5.54-4-6.52-.07-2.05-.94-5.36-.06-5.92,4.82-3.07,7-7.44,8.21-12.74,1.25-5.47,5.58-9.83,5.16-16.1-.2-3,.93-7.06,3-9.17,6.11-6.32,6.92-14.09,7.68-22.06l0,0,8.44-11.41c3.55.39,6.19-2.37,8.61-5.61,1.06-1.4,2.27-3.55,3.62-3.72,6.35-.82,4.37-4.42,3.08-7.93l4-3.7,4.1,4.7c3.28-4.26,5.9-7.8,8.69-11.21a13,13,0,0,1,3.59-3.09c4.83-2.7,7.26-10,4.81-15a37,37,0,0,1,38.92-12.76c14.49,4.19,29.18,6.66,44.29,5.75,16.52-1,30.53,4.44,43,15.2,11.19,9.63,24.67,14.91,39.06,17.79,27.3,5.47,54.59,3.66,81.92.07,6.55-.86,13.29-.47,19.93-.32a5.16,5.16,0,0,1,3.69,2.53c.34.68-1,2.73-2,3.5-8,5.84-16.63,9.35-27,7.42-18.64-3.47-37.54-2.92-56.28-1.57-19.94,1.42-37.72-2.37-53.77-14.95-12.79-10-27.07-17.85-43.55-19.84a99,99,0,0,0-24.86-.21c-10.8,1.48-21.26.55-31.77-1.2-13.2-2.2-23.68,2.87-29.66,14.84-8.72,17.46-15.64,35.62-19.57,54.75-2.34,11.39-3.91,23-.56,34.59,2.36,8.15,7.19,13.61,15.53,16C545.71,456,558.55,460,571.42,463.83Z"/><path class="cls-10" d="M510.22,359c1.29,3.51,3.27,7.11-3.08,7.93-1.35.17-2.56,2.32-3.62,3.72-2.42,3.24-5.06,6-8.61,5.61l-8.44,11.41-.42-.21.4.23c-.76,8-1.57,15.74-7.68,22.06-2,2.11-3.17,6.13-3,9.17.42,6.27-3.91,10.63-5.16,16.1-1.21,5.3-3.39,9.67-8.21,12.74-.88.56,0,3.87.06,5.92a5.13,5.13,0,0,0,0,1c-1.15.54-2.8.78-3.38,1.69-4.67,7.38-9.15,14.89-13.68,22.36L444.6,480l-.48,6.64c-2.27,1-2.3,2,0,3.05.29,2.39.57,4.78.86,7.18l1.16,2.82,7.38,9.92,2.59,1.8L473.43,519l2,.74,3,.49,4,.37h6l2.05-.27c8.1-3.66,9.51-6.19,6.91-12.41.48-.1,1.19,0,1.4-.33,3-4.29,6.56-4.45,10.78-1.74.42.27,2-1.23,3-1.91l3.83,1c.65.89,1.38,2.55,1.93,2.49,1.08-.11,2.06-1.18,3.08-1.85l5,.93c-1.63,2.88-3.52,5-7.41,4.7-1.43-.1-4.06,1.61-4.27,2.81-.41,2.42-3.68,5.47.54,7.62l.25,4-1.86,2.21,3.2,1.67,2.45,8.19c.37,1.32.73,2.64,1.1,4,0,3-.07,6-.1,9l-1,3c-.31.67-.63,1.34-.94,2l-3,3.12-2,.94-9-2.1,0,0c-.32-1.64.91-4.8-2.93-3l-4.06-8,4.28,0,.06.22c.57.93,1.13,1.86,1.69,2.79l2.92,2.43,7.57,3.89c1.41-1.87,4.15-3.92-.44-5.66a.49.49,0,0,1,.51-.61l3.2-2.47-2-1.6c0-.63,0-1.26,0-1.89l-.54-2.08-.57-2.88-.8-2.07a18.13,18.13,0,0,0-1.61-3c-1.87-2.34-3.87-4.58-5.83-6.86l-5.67,5.8L495,535.8l-1.07-3.28-1.63-2.82c-5.25-3.4-9.07-2.55-12.09,2.94a41.38,41.38,0,0,0-2.23,6c-2.22,1.75-2.38,3.44.15,5.06l.22,2,.57,2q.75,3,1.51,6l.85,2,.51,1.28c.48.91,1,1.81,1.46,2.72l1.21,2,1.87,2.44,2.18,2.56-2.06,5-2.23.09-3.85-3.9-1.76-2.25-3.45-6.27c-.24-2.23-.47-4.45-.7-6.68l-1-4-1.12-1-.06-9c2.72-2.13,5.23-4.31,2.15-8,0-.32,0-.65,0-1l2.78-1.35-1-1.45c-.6.59-1.21,1.17-1.82,1.75l-1.89-1-.06-.06-9-4.06-3-1.21-4.63-2.39-.29,0-.1-.27-2.6-1.72h-.29l-.12-.27-2.89-2-7-7.18-1.8-2.8q-1.17-2.89-2.36-5.78l-1.53-2-1.43,1.72-6,11.1c-.61.75-1.23,1.49-1.85,2.24l-4.46,3.67-2.69,1.92L412.18,523l-4.76,2.15-6,2.51c-3.13,1.29-2.46,3.09-.67,5l.45,6.05c-.26,2.55-.4,5.12-.81,7.65-1.09,6.86-1.27,14.07-6.94,19.29l-7.39,3.15,3.4,1.82-.07,1.87-1.66,1.25-14.32,6.4-2,.28a9,9,0,0,0-2.75-.78c-11.66.52-23.07-.41-34-4.94-1.48-.62-3.37-.26-5.08-.35l-3.05-.15c-1.73-.54-3.45-1.45-5.21-1.56-7.93-.47-15.88-.71-23.82-1-.48-1.26-.95-2.53-1.75-4.63l-3.26,3.66a18.55,18.55,0,0,1-2.32-.77c-4.24-2.06-8.46-4.15-12.68-6.23,1.55.45,3.45.48,4.58,1.43,2.81,2.39,5.08,1.48,7.45-.46,1.79.22,3.57.48,5.36.64,6.16.53,12.41,1.47,17.66-3.15,7-4.76,7.17-5.09,4.67-11.82l-1.08-2.69c-.14-1-.27-2-.41-3,0-1.29,0-2.58-.05-3.87.08-1.62.15-3.23.22-4.85.51-1.74,6-1.92,1.62-5.2-.45-1.35-.91-2.7-1.37-4-.06-.68-.12-1.37-.17-2.05,7.13-1.61,5.46-5.87,2.51-11a23.09,23.09,0,0,1,6.06,2.12c1.37.63,2.78,1.15,4.17,1.71a23.8,23.8,0,0,0,1.08-4.16,27.38,27.38,0,0,0-.29-4.41l2-.05,4,4.87,1.92,1.87-3.23,3.34-4.42.87.1,1.28,3,.75c-.32,1-.63,2-.94,3-5.68,0-3.15,3.3-2.43,5.9,0,2,0,4,0,6-.64.75-1.55,1.41-1.8,2.27-.11.37,1.15,1.14,1.78,1.72l0,3-2,4.33,2,.65,2,1,.93,3c-1.66,2.59-.39,4,2,5l9.08,9.92,2,1.13,5,2.11c1.69,3.17,4.06,3.64,7,1.79l2,.26,4,.84,6,0,3-.81,9.72-3.57,1,3,1.35-.94-2.31-2.12,3.4-3.55c7.34-7.71,9-17.5,9.23-27.46.07-2.8-2.87-5.67-4.44-8.5l-2-1.1c-5.2-.64-8.08,1.77-9.12,6.77a38.71,38.71,0,0,1-1.39,4.23h-4.55c0-1.32-.05-2.64-.07-4l2-2.17-3.93-2.85h0L369,527.82l-.33,0-.15-.31c-.34-.63-.67-1.26-1-1.89l-7-2c0-.66,0-1.31,0-2,.6-1.1,1.21-2.2,2-3.65l-4.07-1.33-.93,1-.12,2.22-7.17-6.43c.16-2.83,1.27-5.2,4.46-4.49,4,.88,4.53-1.41,4.95-4.25h1l1.23,4.56,5.67-4.65h2.89c3.65,1.32,2.83-1.48,3.06-3.32l1.15-.31.77,1.61,3.18,3.39-3.6,4.8-1.5-.13c-4.4-1.11-7.54,1-8.39,5.88l8.36-2.84.88,0c3,5,7.35,7.56,13.24,6.83,5.37-.66,10.7-1.6,16.05-2.41l3.85-1.42,17.84-14.08,1.09-2.06a.73.73,0,0,1,.34-.84l1.71-1c2.45-2.06,4.62-12.54,2.94-14.67-.3-.38-1.26-.23-1.91-.32.07-1.42.14-2.84.21-4.23l5.1.89h0l1.94,4.38,1.61-.48.41-4.95.05-.32,2-.23-1.87-1c.53-1.36,1.05-2.71,1.57-4.06l2.68-1.24-1.55-2,4.49-9.84c3-.27,7.31-5.87,6.48-8.59-.08-.26-.89-.3-1.35-.45l2.34-4.48c1,1.36,1.95,2.72,3.79,5.26-1.75-8.31,3.07-11.86,7-16.68,3.32-4.09,4.07-10.52,7.85-15,.17-.19-.44-.91-.4-1.37.18-2.22-.07-4.68.81-6.62,3.24-7.21,7.08-14.15,10.22-21.41,1-2.39.68-5.41.82-8.15,0-.18-1.16-.41-1.78-.62.12-.27.23-.54.34-.82,7.52-5,13.16-12.71,22.11-15.8.19-.06-.15-1.66-.24-2.55l.35.18-.35-.17,5.33,1v-4.76Zm-3.4,159c.59-.54,1.18-1.08,1.76-1.63l-3.69-4-1.69,1.55ZM339.09,568.39c-.27-.12-.61-.39-.81-.31s-.25.51-.37.78c.27.12.61.39.81.31S339,568.67,339.09,568.39Zm3,4c-.28-.12-.62-.39-.81-.31s-.26.5-.38.78c.27.12.61.4.8.32S342,572.65,342.08,572.37Zm8,2c-.27-.11-.61-.38-.81-.31s-.25.51-.37.78c.27.12.61.39.81.31S350,574.67,350.09,574.39ZM397.23,524v.38h1.48V524Z"/><path class="cls-3" d="M418.42,32.19l-12,.22c-4.34.65-10.84-.12-12.46,2.33-1.86,2.83.6,8.5,1.19,12.93q.11,4.5.23,9c.11.66.21,1.33.32,2s.35,1.36.53,2.05c.29,3,.57,6,.86,8.93l.33,9c.16,1,.33,2,.49,3l.33,2.06q.36,7,.73,13.94l.3,3q.76,9.48,1.52,19l.42,2.06c-.38,2-.75,3.92-1.22,6.43l-.71-2.67c-6.29.34-12,1.34-17.6.7-3.49-.4-5.5-14.53-4.27-18.1-2.95-4.13-5.23-7.32-7.52-10.5-.07-1-.15-2-.23-3-.3-6.19-.59-12.38-.93-18.57,0-.15-.55-.27-.84-.41l-.25-3c.26-.41.84-.95.73-1.21-3.56-9,3.7-18.69-1.89-27.53a2.15,2.15,0,0,1-.12-1.86c1.61-2.48,1.82-4.15-1.36-5.84s-5.4-2.27-7.54,1l-12.05.21c-5.13-2-7.36-7.11-6.56-15.35l-3.35.61h0q1-7.84,2-15.68l5-.18c5.68-.13,11.37-.23,17.05-.42.33,0,.63-.7.95-1.07l4-.38,12-1.49,10-.56,4-.74,2.93-.21c.61,3.38,3.09,2.77,5.35,2.46,5.06-.68,10.1-1.43,15.49-2.2L414.5,0l2.93,0a23,23,0,0,0,.26,5.07,63.08,63.08,0,0,0,2.79,7.45c.44,1.09,1.08,2.1,1.63,3.15l.06,5c-.56,1.65-1.15,3.3-1.69,5C419.78,27.78,419.11,30,418.42,32.19Zm-.36-5.81c-.27-.12-.6-.39-.79-.32a.81.81,0,0,0-.33.76.81.81,0,0,0,.75.33C417.89,27.07,418,26.65,418.06,26.38Z"/><path class="cls-2" d="M701.44,526.25l-4.08.11c-6.32-1.56-12.79.89-15.92,6a.44.44,0,0,1-.62.42c-1.12,1.26-2.25,2.52-3.37,3.79l-6.82,9.13-2.2,1.62-9,4.13-10,1.7-24,.23c-6.14,1-12.43,1.5-18.38,3.2-2.86.82-5.08,3.89-7.59,5.94l-.06,0c-2.06,0-4.12-1.39-5.88,1.56-.83,1.4-4.08,1.21-6.09,2.07-3.71,1.58-7.31,3.41-11,5.13l-2,.1-28.93.19c1-6.48,3.38-9,8.63-8.87v4.44c4.07,1.24,7,.43,8.39-3.64l9-.56h1.92c.88.43,1.88,1.4,2.6,1.22,6-1.52,12.2-2.7,17.81-5.17,2.55-1.13,7.54-.63,7.28-5.79,1.25-.18,2.7,0,3.71-.59,9.51-5.52,20.09-6.18,30.64-7,2,4.15,4,1.21,6,0l16-4c6.44.59,10.93-1.8,13.8-7.88.84-1.76,3.75-2.61,5.79-3.71.88-.48,2.42-.2,2.92-.85,2.4-3.07,1.08-8.14-2.54-10.56l1.11-2.1,2-.59,3-.59,5.88,0,9,.67,9.19-.06,2-.51,2-.55,2-.3,6.64-3.06,2.34-1.77c1.62-2.35,3.25-4.69,4.88-7l.66-2.77c-.1-1.79-.19-3.59-.29-5.38-.17-.65-.33-1.31-.5-2l-5.77-7.06-5-2-3-.5-3.12-.15-4,.57-3.6-.42-2.08-2.41c.07-.9.15-1.8.23-2.69l.67-1.22,1.76-2.21,7.4-5.17,2.74-1.1,3.18-1.05,2.83-.73,3.19-2.68c4.28-2.91,6.47-9.5,5-15,1-1.51,2-3,3-4.52,4.19-.36,6.18,2.54,8.15,5.48l6.64,8c2.95,3.48,6.69,4.22,10.95,3.16h4.14c2.87.14,5.74.23,8.61.42,2.51.16,5.91-1.35,6.24,3.16l-.13.12-11.83,2.66-2.06.13c-3.93-2.09-10-.61-12.91,3.16l-3.22,3.11c-.47.91-1,1.82-1.43,2.73-.31,1.08-.62,2.16-.94,3.25-2.87,4.86-1.86,13,2.13,17.06.17.29.34.58.52.86l3.28,3,2.64,1.43,4.95,2,3,.48,17.73,2,3.47,2.92c0,1.51,0,3,0,4.54l0,0L778.42,515l-1.93.14c-.93-.5-1.86-1.41-2.79-1.42-10.15-.1-20.35-.59-30.44.19-4.38.34-8.56,3.36-12.83,5.17l-2.24.9-10.77,2.86-3,.55ZM579.93,567.09v-.9h-2.86v.9Z"/><path class="cls-11" d="M117.54,471.4l-3.05-.28-9-.68-2-.35-7.35-2.32a.47.47,0,0,1-.66-.41l-.15-3,3.18-1.56h4.89l2,.31,3.93.86,5.19-.07,7-1.44,8-4.83,1.85-2.36.57-1.61,1.2-2.78c.34-3.93,2.68-5.58,6.38-5,3.27.49,5.33,2.28,5.14,6a29,29,0,0,0,.56,4.87l.65,1.93.41,2.05c.31.64.63,1.29.95,1.93a13,13,0,0,0,10.26,7.42l2,.79,8.05,4.87,2.06,1.88c.74,2.16,2.14,4.39,1.91,6.45-.11,1-3.33,2.06-5.21,2.23-3.59.33-7.23,0-10.86,0l-1.91.78-1.54.72-2.48,1.67-2.07,2.16L145.62,494q-.69,4.35-1.36,8.7,1.5,3.5,3,7l11.16,7.24c4.46.88,9,2.79,13.36,2.42,8.75-.74,17.34-1.66,25.86,1.2q4.47,7.86,9,15.73l2.34,2.16.36,0,.15.33,2.46,1.7,2.52,1.48,7.91,3,4.06.39c.82.73,1.61,2.07,2.44,2.1,8.5.29,17,.36,25.51.5l3.06.42,5.06,4.23-4,3-3-1-4.64-4-2.35,3.87-1.92.77-12.06-.22-5.06.06-7.94,0-13.69-3.22-1.31-.65-2.2-1.48.06,0-2.8-2.2q-2.25-2.58-4.49-5.18c.64-2.12.52-3.79-2.28-3.88l-1.39-1.73-2.47-2h-.33l-.12-.29c-.55-.76-.95-2-1.66-2.2-5.39-1.68-10.82-3.26-16.29-4.69-2.65-.68-5.39-1-8.09-1.41-6.93-1.07-13.86-2.11-20.78-3.16l-2.15-1c-.24-.43-.37-1-.72-1.24-11.87-6.64-24.55-4.44-37.12-3.36-.09,0-.15.27-.23.42l-4.11.29-7.13-.5a.5.5,0,0,1-.7-.43c.31-2.25.63-4.5.94-6.76l9.13-1.66,4.93-.7,2.06-.32,4.94-.68,5-1.41,2-.79,3.81-2.43,2.08-2.13a.58.58,0,0,1,.42-.78l1.92-4.95c.18-.68.37-1.36.55-2l0-8.08c-1.32-5.29-3.49-10-8.83-12.39Z"/><path class="cls-12" d="M484.75,273.74l.63,4.93c.24,1.35.47,2.7.71,4.06.11,1,.22,1.95.32,2.92s.25,2.07.38,3.1l.57,5.92-3.87,6.85-6.12-3.65c-.64-3.67-1.2-7.36-1.94-11a42.76,42.76,0,0,0-1.59-4.84c-1.41,1.17-3.31,2.08-4.13,3.57-1.55,2.84-2.89,5.39-6.78,4.24-7.34-3.79-14.74-7.44-22-11.42-3.39-1.86-6.27-2.1-9.75-.12C421.15,284,410.92,289.51,400.74,295c-2.56,1.4-5.19,2.66-7.79,4-1.4-1-3.42-1.8-4.06-3.19a88,88,0,0,1-3.38-10.18c.2-1.63.41-3.26.61-4.89l.39-2.11c0-2.26.44-4.61,0-6.75-.29-1.31-1.93-2.33-3-3.47a5.2,5.2,0,0,0,0-.88c-2.72-3.05-1.89-5.38,1.89-5.83,2.07-.25,4.39,1.92,6.51,1.77,7.09-.52,8.13,3.69,8,9.19,0,.11.54.23.83.34,1.94-3.85,4.09-4.44,6.44-1.81a12.46,12.46,0,0,0,2.73,2.23c.14.08,1.51-1.14,1.41-1.56a9.43,9.43,0,0,0-1.73-4.33c-1-1-2.71-1.32-3.77-1.8l7.67-7.11c3.47.19,6.94.42,10.41.56,1.79.08,3.58.09,5.36,0,3.53-.17,7.09-.21,10.57-.73a80.79,80.79,0,0,0,8.68-2.25h3a9.7,9.7,0,0,0,2.82,1.38c5.62.75,11.25,1.61,16.9,1.85,1.73.07,3.54-1.72,5.31-2.66h2l3.17,2.79,1.88-2.73,3.94.15,1,1.68c-.34,1.33-.67,2.65-1,4-2,1.38-1.79,2.73.06,4.06C484.82,268.35,481.24,269.65,484.75,273.74Z"/><path class="cls-13" d="M288.06,205q.82-2.66,1.67-5.31l4.79,2.93q4.14,9.21,8.27,18.42l1.5,2.63q3.07,5.12,6.14,10.22a40.09,40.09,0,0,0,5.53,1.72c3.86.63,7.76,1,11.64,1.47,0,.44,0,.89,0,1.33L331.5,235l4.89.08c.44,3,1.23,4.77,4.65,2.28.76-.55,2.91.81,4.42,1.29l-1.74,2.12-3.33,3.5c-3.9,5.61-10.22,4-15.55,4.93-19.75,3.37-39.58,6.35-59.37,9.47l-2.12.6c-1.67-.77-3.7-1.17-4.94-2.38-6.11-5.95-12-12.11-18-18.19l.15-3.71,2.88-.31,2.14-.39,4.86-.62,7.1-.68,2.91-.3,4.1-.67,1.9-.31,5.13-.3,3.89-.61,2-1,0-.05c1.15-2.18,2.29-4.37,3.44-6.56.26-.8.51-1.6.77-2.4l1.35-2.52,3.66-10.54C287.2,206.79,287.63,205.89,288.06,205Z"/><path class="cls-14" d="M454.46,241.55h-5c.32-3.41-1.74-5.94-4.54-4.53-6,3-10.56,2.3-13.59-2.26-3.33,1.65-6.1,3.08-8.93,4.4-5.36,2.5-3.46-5.45-7.33-5.14-5.23,7.21-5.23,7.21-10.45,5.75.61-3,1.22-6.07,1.83-9.12,2.76,1.17,4.75.67,5.75-2.44,1.38-4.29,2.71-8.62,4.38-12.8.71-1.78,2.23-3.24,3.39-4.85l1.33.45,3.15,13.26c5.13-1,9.34-13.17,7-20.62v-2c.61-1.24,1.23-2.47,1.84-3.7l1.29,0,2.55,40c1.54-1.33,2.36-1.69,2.46-2.19,1.28-6.75,3.48-13.55,3.32-20.29-.1-4.39,1.87-5.2,4.95-7.3.62,2.42,1.39,4.26,1.49,6.13.22,4.1-.15,8.23.2,12.31.15,1.74,1.48,3.39,2.57,5.73,3.2-10,6-18.77,8.77-27.51l1.37-.5c.72,1.29,1.9,2.53,2.07,3.9.33,2.63,0,5.32.12,8,0,1.64.3,3.28.46,4.92,1.56-1.29,3.4-2.38,4.57-4a5.12,5.12,0,0,0,.75-4.21c-1.9-4.68,1.38-5.61,4.65-7.33a73.64,73.64,0,0,0,1.37,8.49,66.58,66.58,0,0,0,3,7.28c.66,1.58,1.25,3.2,1.87,4.79.76-1.56,2.15-3.11,2.17-4.68.05-4.62-1.38-9.43-.47-13.8.83-3.95,1-7.38-.41-11l38,6.57.48,2-17.43,14.33-3.95,3.18-9.05,7.82c-2.16-.1-4.34-.23-4,3l-12,7.68c-1-.9-2.2-2.66-3.06-2.51-1.74.29-3.32,1.61-5,2.5l-5,.13-3-3.53Z"/><path class="cls-15" d="M569.5,250.53l-4-.41-3-.63-7-.35-4-.56-9-1.23c-2.12-1.64-4.21-3.3-6.35-4.91-1.54-1.17-3.13-2.27-4.69-3.41.2-.51.41-1,.61-1.54,5.18,0,10.36.06,15.53,0a24.27,24.27,0,0,0,4.26-.76c1.58-.32,3.38-1.35,4.68-.9,3.7,1.29,6.39.68,8.31-2.79,1.53-2.77,3.19-5.47,4.54-8.33.82-1.72.93-3.77,1.75-5.5,2.18-4.6,4.37-9.21,7-13.58.83-1.39,3-2,4.5-3,3.24,7.91,6.28,15.92,9.91,23.66.76,1.62,3.57,2.93,5.6,3.21,9.51,1.33,19.08,2.23,28.62,3.33,2.09.24,4.16.66,7.28,1.17l-3.42,3.71c-.7.67-1.41,1.33-2.12,2l-1,1c-.65.73-1.3,1.47-2,2.2-3.62,4-7.09,8.09-10.92,11.85-2.76,2.69-6.06,4.6-10.14,2.33l-2-.39-4-1.26-4-.79-3-.67-2-.43-3-.47-2-.56-6-.45-2-.45-3-.4Z"/><path class="cls-2" d="M329.46,508.83a27.38,27.38,0,0,1,.29,4.41,23.8,23.8,0,0,1-1.08,4.16c-1.39-.56-2.8-1.08-4.17-1.71a23.09,23.09,0,0,0-6.06-2.12c2.95,5.11,4.62,9.37-2.51,11-.5-4.67-3.86-5.1-7.52-5.07l-2,1c-.77,1.7-1.55,3.4-2.32,5.11l-4.62,8.87-4.94-.9v-6.4l-1.59,0-.48,3.53-6,3-2,.91-2,.1c.48-7.7.48-7.7-6-6l-2.55-1.06c-.21-.48-.42-1-.64-1.43-.33-4.5-4.38-7.46-10.8-8.57-2.75-.47-5.33-1.92-8-2.93l-7-12-5-6h0q-1.91-1.26-3.82-2.51l-1.17-.56c-2.49-2.46-4-6.37-8.58-5.7l-2.36-1.44c-1.9-1.15-3.88-2.2-5.67-3.51-.88-.65-2-1.76-2-2.69a64.73,64.73,0,0,1,.51-7.73l-.05,0,4.93,2.19.24-3.22,0-1.79-.13-1.37,2.83-2.83,7.15-1.48-1.77-4.22,1-1.13,2.83-1.06,3.06,0h1c.47,2.48,2.06,5.49,1.18,7.34-2.08,4.41-5.43,8.21-8,12.4-1,1.52-1.27,3.44-1.88,5.17,2.34-.21,3.2,3.93,6.79,1.51,3.12-2.09,6.29.56,6.73,4.09.41,3.23,2.13,4.21,4.6,5.6,3.47,1.94,6.41,4.78,6.31,9.55l3.32-.67c.49,6.91,1.16,7.54,7.9,8.49l5.92-3.93,2.87,7.35a13,13,0,0,0,3.1-1.2c3.24-2.07,6.06-5.68,10.44-1.93.39.33,1.85-.28,2.6-.77,2.75-1.76,5.41-3.67,9.09-6.2-.31-.7-1.14-2.48-1.89-4.29s-2.05-3.62-1.9-5.33c.44-5.14-1.84-6.92-6.8-6.54-.91,4.72.87,10.7-5.41,13.44-2.55-5.81-.69-11.2,4.29-15.08,1.38-1.09,1.88-3.31,2.79-5l5.92-1c3.17,4.55,8.24,5.15,13.06,6.27l9,2.71-6,8-2.91,3.54,5.48,2.3.56,2.12c-.1.73-.21,1.47-.31,2.21l2.22-.3,1.91.74,3,.39ZM309.91,495h1v-4.71h-1Zm-10.69,33.77,1.67-.64c-.38-1.07-.77-2.13-1.15-3.19l-1.54.49Zm3.43-40.09c-.28.42-.73.84-.65,1.08s.78.79.93.7a4.47,4.47,0,0,0,1-1.13Zm-5.16,42.15c-.25.32-.63.68-.57.77a2.05,2.05,0,0,0,.91.89c.19.06.56-.48.85-.74Zm-67.43-56.43c-.27-.12-.6-.38-.79-.31s-.25.5-.37.76c.27.12.6.39.79.31S229.94,474.65,230.06,474.38Zm-.35,4.9c.12-.28.39-.62.31-.82s-.5-.25-.78-.37c-.12.27-.39.61-.31.81S229.44,479.16,229.71,479.28Z"/><path class="cls-16" d="M618.15,650.92c0-7,.09-14,0-21-.06-3,1.16-4.16,4.1-4.19q18.22-.15,36.45-.49c3.32-.06,4.29,1.52,4.19,4.62-.34,11.64.64,9.58-9.08,9.62-5.33,0-10.67,0-16,.32-1.37.09-2.62,1.72-3.92,2.64,1.36.82,2.71,2.31,4.1,2.35,6.15.17,12.31-.1,18.47-.17,3.11,0,6.34-.76,6.13,4.52-.18,4.33-1,6.27-5.89,6-6.29-.37-12.64.2-19,.27-2.45,0-4.25.36-4.12,3.49s2.21,3.22,4.49,3.2c6.66-.06,13.32,0,20-.17,3.2-.08,4.33,1.15,4.37,4.41.13,9.65.26,9.64-9.29,9.73-10.15.1-20.31.08-30.46.38-3.85.12-5.41-1-5.25-5.06.27-6.82.08-13.65.08-20.47Z"/><path class="cls-1" d="M259.46,502.64l-3.32.67c.1-4.77-2.84-7.61-6.31-9.55-2.47-1.39-4.19-2.37-4.6-5.6-.44-3.53-3.61-6.18-6.73-4.09-3.59,2.42-4.45-1.72-6.79-1.51.61-1.73.93-3.65,1.88-5.17,2.62-4.19,6-8,8-12.4.88-1.85-.71-4.86-1.18-7.34,0-.67,0-1.34,0-2l-1.11-5.15,0,0,8.1-3.95c4.94-1.91,9.9-4,13,.55l6.9-.48.33.18,0,.38,1.82,2.44c.66.7,1.33,1.39,2,2.09.66,2.89,1.32,5.79,2.13,9.32l6-.34-2.39,2.61c1,1.68,2.15,3.49,3.27,5.29l-2.88,1.43c.33,6.71.62,12.82.94,18.92,0,.48.38.95.39,1.43.06,2.39,1,5.61-.17,7s-4.64,1.74-6.94,1.43C265.48,497.92,261.1,499,259.46,502.64Z"/><path class="cls-17" d="M234.38,678.57c-4.66,0-9.32.09-14,0-7.21-.18-11.37-3.61-11.84-10.7-.63-9.42-1.19-18.92-.64-28.32.44-7.53,6.05-11.77,13.53-11.85,9-.09,18,.12,27,0,3.53-.07,4.53,1.35,4.73,4.67.6,9.68.73,9.69-8.74,9.78-5.66.06-11.32.25-17,0-3.32-.13-4.56,1-4.41,4.27.22,4.48.4,9,.3,13.47-.08,3.46,1.27,4.72,4.72,4.64,7-.17,14,0,21-.09,3.38-.06,4.69,1.19,4.81,4.65.32,9.63.45,9.62-9,9.6H234.38Z"/><path class="cls-18" d="M431.47,203.64c2.33,7.45-1.88,19.62-7,20.62L421.31,211l-1.33-.45c-1.16,1.61-2.68,3.07-3.39,4.85-1.67,4.18-3,8.51-4.38,12.8-1,3.11-3,3.61-5.75,2.44,0-1.33,0-2.66,0-4,.34-5,.88-10.07.86-15.11,0-1.27-1.78-2.54-2.74-3.81-1,1.2-2.8,2.31-3,3.62-.65,5.06-.8,10.19-1.14,15.29q-2.73,4.56-5.47,9.1l-1.09-.44V212.79c-8.39,3.6-.48,14.31-8.35,17.71-4.26-3.76-5.64-7.69-2.47-12.51a5,5,0,0,0,.36-2.43c.15-6.41-1.31-13.17,4.09-18.42l2.93-.45,5.83,6.21c2-5.06,4.34-6.93,8.52-6.25,7.16,1.15,7.69.48,6.36-6.63q9.82-20.34,19.67-40.69c1.22-2.51,2.59-4.94,4.67-8.88l8.74,18.2c-1.83-2-3.7-4-5.47-6.13-2.45-2.88-5.44-1.49-5.79.81-1,6.31-5.95,10.59-6.59,17.48-.91,10-2,19.78-.87,29.73C425.94,204.07,428,205.5,431.47,203.64Z"/><path class="cls-17" d="M517.15,652c0-7.16.07-14.32,0-21.48-.05-3,1.06-4.12,4.1-4.11q18.22,0,36.45-.27c2.81-.05,3.74,1,3.87,3.78.48,10.67.56,10.68-9.92,10.79-5.16.05-10.33-.12-15.48.15-1.29.07-2.51,1.43-3.76,2.2,1.26.94,2.49,2.64,3.78,2.68,7,.22,14,.24,21-.11,3.86-.19,4.45,1.56,4.34,4.75s.23,6-4.5,5.78c-6.81-.25-13.64.17-20.47.1-3.16,0-4.56,1-4.41,4.33.16,4-.27,8,0,12,.22,3.45-.9,4.89-4.43,4.87-12.76-.08-10.28,1.44-10.61-9.95-.15-5.16,0-10.32,0-15.48Z"/><path class="cls-18" d="M482.46,196.78c1.38,3.63,1.24,7.06.41,11-.91,4.37.52,9.18.47,13.8,0,1.57-1.41,3.12-2.17,4.68-.62-1.59-1.21-3.21-1.87-4.79a66.58,66.58,0,0,1-3-7.28,73.64,73.64,0,0,1-1.37-8.49c-3.27,1.72-6.55,2.65-4.65,7.33a5.12,5.12,0,0,1-.75,4.21c-1.17,1.58-3,2.67-4.57,4-.16-1.64-.41-3.28-.46-4.92-.08-2.67.21-5.36-.12-8-.17-1.37-1.35-2.61-2.07-3.9l-1.37.5c-2.78,8.74-5.57,17.49-8.77,27.51-1.09-2.34-2.42-4-2.57-5.73-.35-4.08,0-8.21-.2-12.31-.1-1.87-.87-3.71-1.49-6.13-3.08,2.1-5.05,2.91-4.95,7.3.16,6.74-2,13.54-3.32,20.29-.1.5-.92.86-2.46,2.19l-2.55-40-1.29,0c-.61,1.23-1.23,2.46-1.84,3.7-.55-.81-1.6-1.63-1.59-2.43.13-7.11,1.33-14,4.93-20.28.3-.52,1.3-.64,2.82-1.32v20.64l1.31.79c1.47-1.24,4.14-2.44,4.19-3.74.2-5,1.75-9.47,3-14.2,1.44-5.4.56-11.42.69-17.17l14.67,27.62c0,4.73,2.91,2.34,5,2.07l6,1.23a31.6,31.6,0,0,0-.26,4.34c.06.92.38,2.31,1,2.6a3,3,0,0,0,2.83-.48c.53-.74.23-2.09.24-3.18,0-.71-.07-1.42-.11-2.12Z"/><path class="cls-6" d="M267.31,446.65l-6.9.48c-3.1-4.54-8.06-2.46-13-.55,1.18-3.27,1.75-6.95,3.65-9.72,4.29-6.24.94-12.52.84-18.76,0-.5-1.53-1-2.35-1.46,0-.67,0-1.33,0-2,1-1,2.52-1.92,2.73-3.07.36-2.07-.09-4.28-.19-6.43q-.34-7.41-.67-14.8l.94,0,3.76,1,3.29,1.1c3,2.45,5.1.71,7.06-1.58l6-2.23,2.35.84c3.05,2.76,6.44,4.41,10.74,4,4.51-.42,6.85-2.92,7.66-7.13.22-1.13-.22-2.56.32-3.43a35.63,35.63,0,0,1,3.89-4.57c1.46,1.32,3.72,2.4,4.21,4,.85,2.78.74,5.89.75,8.85,0,5.53,1.72,9.93,6.56,13.16,1.63,1.09,3.61,4.71,3.12,5.31-1.47,1.83-4,3.7-6.25,3.81-4.7.25-9.12.14-12.79,3.91-.63.64-4,0-4.57-1a16.36,16.36,0,0,1-1.87-7c-.44-6.47-4-9.9-11.5-10.46-8.15-.61-11.51,1.87-13.07,8.75C258.92,421.4,260.54,434.35,267.31,446.65Z"/><path class="cls-19" d="M615.44,270.78l1.92.25c-.3,1.17-.59,2.34-.88,3.5l-2.94-.32c-1.3-2.31-2.33-2.09-3.13.33l0,0c-4.64,3.48-4.55,5.35.62,13.12l.36,3c-2.42-.13-5.36.55-7.15-.58-2.69-1.69-3.72-.76-5,1.26l-4.72-2L591.92,288l-7.4-2.64-4-1.9-3.1,0-2,.91L567,288l-3.5,1.74-9.88,4-2.14,2a.72.72,0,0,1-.64.2l-4.33-3.25c0-.65.06-1.3.08-1.95.8-1,2.11-1.9,2.29-3,.34-2-.84-5.28.15-6.07,2.85-2.26,1.56-4.73,1.41-7.14a50.27,50.27,0,0,0-1-5.8l4.08-7.58,4.87.3,2.09,1.28,3,.93h4l.87,1.52c.42-.72.84-1.44,1.25-2.17l9.81,1,8.06,1.66,7.94,1.32,4.08.65,3.9.54,2.1.43,1.92.34Z"/><path class="cls-17" d="M354.45,678l-9-.38q-.54-8.45-1.06-16.9l-1.95-1.83-7.81-3.5c.25-1.86.55-4.11.86-6.36,1.63-.1,3.44.21,4.83-.41s2.55-2.2,3.8-3.35a22.68,22.68,0,0,0-3.84-3.46c-1-.58-2.54-.33-3.83-.46.77-4.25-2.71-3.59-4.94-4.08-3.43-.74-4.48,1.64-5.07,4.38l-1.16,1c-.52,1.49-1.64,3.06-1.44,4.44.59,4.05,1.7,8,2.61,12l-1.74,4.59c-4.79,2-6.07,5.7-5.29,10.52a25.75,25.75,0,0,1,0,3.93,4.27,4.27,0,0,1-.95.28c-8.22.58-8.36.57-8.36-7.55,0-10.08.28-20.17.44-30.25l.24-1.81c.57-7.08,2.82-9.54,9.8-10.72,5.27.19,10.58.86,15.8.44,6.41-.52,11.29,2,16.26,5.53,2.74,1.94,2.36,4.1,2.68,6.76,1.05,8.52-7.84,16.86-.34,25.55.85,1,.06,3.44,0,5.21C354.85,673.69,354.63,675.81,354.45,678Z"/><path class="cls-16" d="M562.49,563.56c-1.41,4.07-4.32,4.88-8.39,3.64v-4.44c-5.25-.11-7.6,2.39-8.63,8.87l-3,0-1.69-1.54-.35,2.53c-1.65.66-3.29,1.38-5,2a70.27,70.27,0,0,1-38.13,2.74c-3.49-.71-6.8-2.29-10.19-3.47l.08.07-.79-2.31,2.06-5,2.93,2.27,2.66,1.5,1.34.51,2,.72,2,.61,2,.46,2,.24c2,2.73,4,2.61,6,.1l8-1.2,2-.6c11.81-3.73,20-10.94,22.45-23.56.23-1.33.45-2.65.68-4l-.07-12.08-.67-5-.27-2c-.14-.66-.27-1.33-.41-2-2.44-6.29-7-9.91-13.71-10.72l-2.06.05c-5.17,1.36-9.15,3.95-10.1,9.7-4.22-2.15-1-5.2-.54-7.62.21-1.2,2.84-2.91,4.27-2.81,3.89.26,5.78-1.82,7.41-4.7,6.44.44,12.88,1.26,19.31,1.2,4.32,0,9.3-.17,10.6-6.06.37,1.06,1.37,2.46,1,3.13-1.81,3.37-3.15,6.37-1.53,10.53.75,1.9-1.48,4.8-1.82,7.33a84.33,84.33,0,0,0-.46,10.31c0,.22,1.23.46,1.89.69l1.45,0c.12,1,.25,2,.37,3a20.33,20.33,0,0,0-2.78,3c-.7,1.15-.62,3.32-1.49,3.72-3.17,1.47-2.65,3.69-2.12,6.26a6.78,6.78,0,0,1-.26,3.71c-1.64,4.07.08,6.74,4.88,7.26l3.64-.29,2.18.85C561.72,562,562.11,562.77,562.49,563.56Z"/><path class="cls-6" d="M459.9,628.79c.05,3.58.11,7.15.16,10.73-7.61.09-15.22.16-22.83.3-1.64,0-3.73-.25-4.78.62-1.38,1.14-2.68,3.33-2.58,5,.06,1.07,2.67,2.85,4.13,2.85,8.57,0,17.15-.48,25.72-.78q0,4.11-.1,8.24c-8.49,0-17,0-25.47-.09-3.47,0-4.77,1.42-4.68,4.8.14,5.26,0,10.52,0,16.23h-13.1q-.07-24.07-.16-48.15Z"/><path class="cls-12" d="M270.48,268.82l2-.16c.95,1,2.21,3,2.79,2.81,6.14-1.93,12.18-4.21,18.25-6.4l4-.39,13,2a23.09,23.09,0,0,0,1.72,3.49,17.24,17.24,0,0,0,2.57,2.39c.58-1,1.07-2.09,1.73-3,1.11-1.61,2.32-3.14,3.48-4.71l3.6,5.16-.18,8.75.72,4.05c.11,1,.21,2,.32,2.94s.37,2,.56,3.08c.11,1.3.22,2.6.32,3.91L318,295a.52.52,0,0,1-.51-.29c-1.34-2.56-2.69-5.11-4.2-8l-4.83,4-4-2c-1.31-2-2.22-5.24-4-5.83-3.2-1.06-7.34-2.66-10,1.72l-5,2.07-2.06.83-3.8,2.17c-4.11,0-7.85.75-10.19,4.63l-2.69,1c-1.71-3.79-3.16-7.23-.23-11.52,1.32-1.94.76-5.77-.07-8.39s-.57-3.94,2-4.83C269.27,270.33,269.82,269.43,270.48,268.82Z"/><path class="cls-20" d="M406.45,226.65c0,1.33,0,2.66,0,4-.61,3.05-1.22,6.1-1.83,9.12,5.22,1.46,5.22,1.46,10.45-5.75,3.87-.31,2,7.64,7.33,5.14,2.83-1.32,5.6-2.75,8.93-4.4,3,4.56,7.57,5.29,13.59,2.26,2.8-1.41,4.86,1.12,4.54,4.53-10.26.24-20.52.55-30.78.68-6.28.08-12.58,0-18.85-.3-2.52-.13-5.59-.39-7.41-1.85-13.9-11.09-27.55-22.48-41.26-33.82-.31-.26-.34-.87-.8-2.19l37.16-6.92c-5.4,5.25-3.94,12-4.09,18.42a5,5,0,0,1-.36,2.43c-3.17,4.82-1.79,8.75,2.47,12.51,7.87-3.4,0-14.11,8.35-17.71V235.3l1.09.44q2.75-4.55,5.47-9.1Z"/><path class="cls-9" d="M623.72,426.69c-2.64-2.68-7.56-3.95-4.84-10.27.4,1,.79,2.06,1.3,3.37,2.39-6.22,1.61-17.72-.08-18.89-1.39,2.71-2.77,5.52-4.35,8.22a18.39,18.39,0,0,1-2.94-1.14c-.24.55-.67,1.56-1.1,2.57a25.5,25.5,0,0,1-1.1-3.26c-1.41-7.26-5.29-10.54-12.24-10.26-7.77.31-11.61,3.69-12.67,11.08a44.8,44.8,0,0,1-1,4.4c-1.21,5-3.22,5.41-7.32,2.5-2-1.44-4.86-1.85-7.4-2.42-1.91-.43-4.06,0-5.88-.6-4.79-1.61-5.62-5.21-1.42-8,6.32-4.18,7.56-10,7.55-16.83a23.85,23.85,0,0,1,1.06-7.28c.37-1.15,2-2.61,3.12-2.6s2.27,1.61,2.95,2.78a12.93,12.93,0,0,1,.93,3.85c1.71,8.61,10.31,11.88,16.81,6,3.21-2.92,5.9-3.34,9.2-1,3.74,2.64,7.34,2.76,11.66,1,7.11-3,8.66-1,8.11,6.49C623.37,406.41,623.79,416.57,623.72,426.69Z"/><path class="cls-20" d="M323.55,269.92l-3.6-5.16c-1.16,1.57-2.37,3.1-3.48,4.71-.66,1-1.15,2-1.73,3a17.24,17.24,0,0,1-2.57-2.39,23.09,23.09,0,0,1-1.72-3.49c.87-1,1.66-2.06,2.61-3a18.66,18.66,0,0,1,2.43-1.67l5-.33,4-.54,8-.47,4-.41,1.9-.16c1.05,1.44,2.57,4.29,3.07,4.12,4.11-1.41,8-3.37,12-5.17l8-.4,3-.27,4.93-.32,1.1,1.21,1-1.36,3-.16c4.73.92,9.5,2.52,14-.78l25-.25c0,.64,0,1.28,0,1.92l-7.67,7.11c1.06.48,2.81.78,3.77,1.8a9.43,9.43,0,0,1,1.73,4.33c.1.42-1.27,1.64-1.41,1.56a12.46,12.46,0,0,1-2.73-2.23c-2.35-2.63-4.5-2-6.44,1.81-.29-.11-.83-.23-.83-.34.12-5.5-.92-9.71-8-9.19-2.12.15-4.44-2-6.51-1.77-3.78.45-4.61,2.78-1.89,5.83-1.82,0-3.64,0-5.45.12-4.53.3-9,.68-13.57,1l-5,.12c-.47-1.66-.95-3.32-1.42-5l-2.56,2.81-1.09,2.15-22.84.35-.75-3.29-1.21,0-1.17,3.37ZM404.38,262l-.82-1.37-2.92,1.72.84,1.4Z"/><path class="cls-21" d="M446.83,163.94c-.13,5.75.75,11.77-.69,17.17-1.26,4.73-2.81,9.21-3,14.2-.05,1.3-2.72,2.5-4.19,3.74l-1.31-.79V177.62c-1.52.68-2.52.8-2.82,1.32-3.6,6.27-4.8,13.17-4.93,20.28,0,.8,1,1.62,1.59,2.43v2c-3.49,1.86-5.53.43-5.94-3.1-1.15-9.95,0-19.77.87-29.73.64-6.89,5.63-11.17,6.59-17.48.35-2.3,3.34-3.69,5.79-.81,1.77,2.09,3.64,4.09,5.47,6.13l.48,1.34,1.53,2.66Z"/><path class="cls-22" d="M553.5,261.11l-4.08,7.58-1.89-.08-5.11-.1-1.94.05-43.06-.31c.28-4,1.87-8.43-3-11.1q26.32,1.58,52.65,3.18C549.23,260.46,551.36,260.84,553.5,261.11Z"/><path class="cls-10" d="M202.63,144.63c1.18,1.45,2.37,2.89,3.54,4.32l7.22-3c-1,4.59-.48,7,4,7,1.48,0,2.92,2.45,4.44,3.7s3.41,3.62,4.58,3.32c1.61-.42,3.46-2.76,3.74-4.51.24-1.49-1.6-3.31-2.13-4.28-1-4.09-1.77-7.49-2.57-10.88l1.41-.57c1,1.82,2.08,3.64,3.57,6.23.41-2,.65-3.14.9-4.32,2.33,5.27,4.86,10.47,6.83,15.88.4,1.09-.93,3.77-2.11,4.32-6.14,2.84-12.52,5.14-18.75,7.8-2.73,1.16-4.27.59-5.38-2.2C208.94,159.83,205.75,152.25,202.63,144.63Z"/><path class="cls-17" d="M369.85,97.61c2.29,3.18,4.57,6.37,7.52,10.5-1.23,3.57.78,17.7,4.27,18.1,5.56.64,11.31-.36,17.6-.7l.71,2.67c.47-2.51.84-4.47,1.22-6.43.4,1.75.84,3.48,1.19,5.24.69,3.53-.77,5.22-4.39,5.48-7.26.53-14.51,1.19-21.75,1.92-2.87.29-4-1.14-4.13-3.66Q371,114.17,369.85,97.61Z"/><path class="cls-9" d="M354.45,678c.18-2.14.4-4.26.53-6.4.11-1.77.9-4.22,0-5.21-7.5-8.69,1.39-17,.34-25.55-.32-2.66.06-4.82-2.68-6.76-5-3.51-9.85-6-16.26-5.53-5.22.42-10.53-.25-15.8-.44,9.09-.17,18.19-.62,27.27-.41,5.64.13,10.8,6.09,10.88,11.74.17,11.6.13,23.2.36,34.8C359.22,677.85,358,679.13,354.45,678Z"/><path class="cls-22" d="M582.61,202.62c-1.54,1-3.67,1.59-4.5,3-2.6,4.37-4.79,9-7,13.58-.82,1.73-.93,3.78-1.75,5.5-1.35,2.86-3,5.56-4.54,8.33-1.92,3.47-4.61,4.08-8.31,2.79-1.3-.45-3.1.58-4.68.9a24.27,24.27,0,0,1-4.26.76c-5.17.09-10.35,0-15.53,0-.2.52-.41,1-.61,1.54,1.56,1.14,3.15,2.24,4.69,3.41,2.14,1.61,4.23,3.27,6.35,4.91-9,1.49-12.8-5.3-19-11.7,7.69-.62,14-1.19,20.33-1.62,4.15-.29,8.32-.45,12.48-.56,4.33-.11,6.67-2.13,8.4-6.28a274.71,274.71,0,0,1,15.63-31.49C581.12,198,581.86,200.32,582.61,202.62Z"/><path class="cls-22" d="M270.48,268.82c-.66.61-1.21,1.51-2,1.78-2.61.89-2.89,2.11-2,4.83s1.39,6.45.07,8.39c-2.93,4.29-1.48,7.73.23,11.52l-7.83,4c.87-6.52,1.45-12,2.35-17.38,1-5.86.15-6.73-5.8-5.92-6.66.91-13.34,1.61-20,2.4,0-.64,0-1.28,0-1.92Z"/><path class="cls-16" d="M481.92,382.49c.62.21,1.79.44,1.78.62-.14,2.74.22,5.76-.82,8.15-3.14,7.26-7,14.2-10.22,21.41-.88,1.94-.63,4.4-.81,6.62,0,.46.57,1.18.4,1.37-3.78,4.5-4.53,10.93-7.85,15-3.92,4.82-8.74,8.37-7,16.68-1.84-2.54-2.82-3.9-3.79-5.26,7.9-16.82,15.93-33.6,23.64-50.51C479.31,392.11,480.4,387.2,481.92,382.49Z"/><path class="cls-10" d="M461.47,1.86,460.2,9.92,456.72,11c-.65,4.3-1.29,7.94-1.7,11.6-.18,1.57.53,3.3.12,4.76s-1.75,2.85-2.67,4.26l-2.62-3c.48-6.76.6-13.56,1.52-20.26C452.45.56,453.29.26,461.47,1.86Z"/><path class="cls-17" d="M335.46,22.64l3.35-.61c-.8,8.24,1.43,13.39,6.56,15.35C335.2,41,333.81,40,333.43,29.52c-.21-5.77-1-11.52-1.59-17.28-.4-4.21,1-6.45,5.65-5.27q-1,7.83-2,15.68l-.21.41Z"/><path class="cls-16" d="M535.46,330.65c2.45,5,0,12.31-4.81,15a13,13,0,0,0-3.59,3.09c-2.79,3.41-5.41,6.95-8.69,11.21l-4.1-4.7c7.4-5.36,12.42-12.71,17.16-20.34C532.44,333.29,534.1,332.07,535.46,330.65Z"/><path class="cls-23" d="M487.17,573.89c3.39,1.18,6.7,2.76,10.19,3.47a70.27,70.27,0,0,0,38.13-2.74c1.68-.59,3.32-1.31,5-2l2-1,3,0,28.93-.19c-4.12.32-8.26.46-12.34,1-8.67,1.1-17.53,1.57-25.9,3.79-15.77,4.2-31.24,6.84-46.72-.6A13.7,13.7,0,0,1,487.17,573.89Z"/><path class="cls-23" d="M249.55,416.64c.82.48,2.35,1,2.35,1.46.1,6.24,3.45,12.52-.84,18.76-1.9,2.77-2.47,6.45-3.65,9.72l-8.1,3.95A77.36,77.36,0,0,0,249.55,416.64Z"/><path class="cls-10" d="M677.42,518.63c3.62,2.42,4.94,7.49,2.54,10.56-.5.65-2,.37-2.92.85-2,1.1-4.95,2-5.79,3.71-2.87,6.08-7.36,8.47-13.8,7.88,0-.44,0-.88.07-1.32l4.69-2.77,3.28-2.84,0,0,2.76-3.48,1.54-2.51,2.3-4.75.93-2.23Q675.24,520.17,677.42,518.63Z"/><path class="cls-9" d="M335.5,649c-.31,2.25-.61,4.5-.86,6.36l7.81,3.5-16,.23c-.91-4-2-8-2.61-12-.2-1.38.92-2.95,1.44-4.44-1.11,4.53.51,6.61,5.3,6.13A32.51,32.51,0,0,1,335.5,649Z"/><path class="cls-24" d="M459.72,647.49c-8.57.3-17.15.76-25.72.78-1.46,0-4.07-1.78-4.13-2.85-.1-1.65,1.2-3.84,2.58-5,1.05-.87,3.14-.59,4.78-.62,7.61-.14,15.22-.21,22.83-.3-1.24.63-2.47,1.76-3.73,1.8-6.94.18-13.89,0-20.83.22-1.44,0-2.82,1.4-4.23,2.16,1.47.88,2.91,2.45,4.4,2.51,6.77.23,13.56,0,20.34,0C457.25,646.28,458.49,647.06,459.72,647.49Z"/><path class="cls-24" d="M416.41,676.67h13.1c0-5.71.1-11,0-16.23-.09-3.38,1.21-4.85,4.68-4.8,8.49.14,17,.08,25.47.09a15.65,15.65,0,0,1-3.88,1.12c-6.45.15-12.91.29-19.35.12-3.8-.11-5.51,1.15-5.27,5.11s.18,7.94.08,11.91c0,1.22-.64,3.48-1,3.48C425.63,677.38,421,677,416.41,676.67Z"/><path class="cls-17" d="M153.55,191.63l4.53,1.48-1.58-5.4,1.05-.78,3.95,4.37,7.69-3.06c5.86-2.32,7.86-7.08,5.66-13-1.78-4.74-3.33-9.57-5-14.36,3.17,6.9,6.36,13.8,9.5,20.72,1,2.24.32,3.63-2.06,4.56-6.33,2.47-12.56,5.17-18.85,7.72C156.11,194.85,153.79,195.41,153.55,191.63ZM176.91,183c.11-.05.27-.09.3-.17a.85.85,0,0,0,0-.38l-.46.25Z"/><path class="cls-23" d="M657.52,540.31c0,.44,0,.88-.07,1.32l-16,4h-6c-10.55.86-21.13,1.52-30.64,7-1,.58-2.46.41-3.71.6,7.08-5.92,15.71-7.53,24.46-8.72C636.21,543.1,646.87,541.72,657.52,540.31Z"/><path class="cls-7" d="M449.85,28.66l2.62,3c0,1,0,2,0,3,.33,1.34.67,2.67,1,4-.32,3.75.48,8.16-1.24,11.08-2.14,3.62-1.71,6.58-1.09,10.08.22,1.2-.42,2.56-.67,3.85-4,.85-1-3.34-2.89-4l.36-11c.23-1.33.45-2.65.68-4,.11-.67.21-1.35.32-2l.72-11C449.72,30.69,449.78,29.67,449.85,28.66Z"/><path class="cls-17" d="M357.42,37.17c2.14-3.28,4.47-2.65,7.54-1s3,3.36,1.36,5.84a2.15,2.15,0,0,0,.12,1.86c5.59,8.84-1.67,18.56,1.89,27.53.11.26-.47.8-.73,1.21-.49-2.74-1.18-5.45-1.43-8.21-.71-7.9-1.4-15.8-1.8-23.71C364.09,35,360,37.89,357.42,37.17Z"/><path class="cls-25" d="M297.46,571.63c7.94.32,15.89.56,23.82,1,1.76.11,3.48,1,5.21,1.56-9.53-.24-19.09-.12-28.59-.82-9.89-.73-18.73-4.69-26.65-10.66l2.21-.11,2,0,2,1h0c4.22,2.08,8.44,4.17,12.68,6.23a18.55,18.55,0,0,0,2.32.77Z"/><path class="cls-22" d="M462.93,289.84c3.89,1.15,5.23-1.4,6.78-4.24.82-1.49,2.72-2.4,4.13-3.57a42.76,42.76,0,0,1,1.59,4.84c.74,3.64,1.3,7.33,1.94,11Z"/><path class="cls-17" d="M219.36,472.5a64.73,64.73,0,0,0-.51,7.73c0,.93,1.13,2,2,2.69,1.79,1.31,3.77,2.36,5.67,3.51l-20.6-4.71Z"/><path class="cls-8" d="M555.52,560.64c-4.8-.52-6.52-3.19-4.88-7.26a6.78,6.78,0,0,0,.26-3.71c-.53-2.57-1-4.79,2.12-6.26.87-.4.79-2.57,1.49-3.72a20.33,20.33,0,0,1,2.78-3l.2,7-1.71,5.63c-.39,2.37-.79,4.73-1.19,7.1Z"/><path class="cls-20" d="M411.17,190c1.33,7.11.8,7.78-6.36,6.63-4.18-.68-6.55,1.19-8.52,6.25l-5.83-6.21c4.14-.94,8.34-1.64,12.38-2.88C405.73,192.92,408.4,191.31,411.17,190Z"/><path class="cls-16" d="M504.13,363.32c.09.89.43,2.49.24,2.55-8.95,3.09-14.59,10.77-22.11,15.8a18.12,18.12,0,0,1,9.45-12.14C495.78,367.32,500,365.38,504.13,363.32Z"/><path class="cls-25" d="M143.65,523.11c6.92,1,13.85,2.09,20.78,3.16,2.7.42,5.44.73,8.09,1.41,5.47,1.43,10.9,3,16.29,4.69.71.22,1.11,1.44,1.66,2.2-8.7-5.88-19.16-4.43-28.68-6.93C155.76,526.06,149.7,524.62,143.65,523.11Z"/><path class="cls-22" d="M413.46,258.64c0-.64,0-1.28,0-1.92l35-.51a78.56,78.56,0,0,1-8.68,2.26c-3.48.52-7,.56-10.57.73-1.78.09-3.57.08-5.36,0C420.4,259.06,416.93,258.83,413.46,258.64Z"/><path class="cls-20" d="M494.44,257.15c4.85,2.67,3.26,7.06,3,11.1l-6.82-.16-1.16-1.42c-.66-1.34-1.32-2.69-2-4,.33-1.33.66-2.65,1-4l3-1.57Z"/><path class="cls-17" d="M730.43,519.08c4.27-1.81,8.45-4.83,12.83-5.17,10.09-.78,20.29-.29,30.44-.19.93,0,1.86.92,2.79,1.42-8.12,0-16.25.21-24.35-.18A48.32,48.32,0,0,0,730.43,519.08Z"/><path class="cls-26" d="M385.51,285.65a88,88,0,0,0,3.38,10.18c.64,1.39,2.66,2.15,4.06,3.19l-8.76,5.76-1.62-.86Z"/><path class="cls-26" d="M616.48,274.53c.29-1.16.58-2.33.88-3.5,3.36,1.08,6.66,2.49,10.11,3.15,5.59,1.09,11.28,1.68,16.93,2.48l-2.27,1.83c-7-1-14-1.89-20.94-2.9C619.6,275.36,618.05,274.89,616.48,274.53Z"/><path class="cls-24" d="M459.9,628.79l-43.65-.27c1.32-.58,2.64-1.66,4-1.69,11.91-.19,23.81-.27,35.72-.16C457.27,626.68,458.58,628.05,459.9,628.79Z"/><path class="cls-17" d="M133.67,144.62c2.11,3.77,4.6,7.38,6.26,11.33,4.47,10.65,8.6,21.44,12.82,32.19a15.07,15.07,0,0,1,.55,2.86c-2.55-5.68-5.24-11.31-7.65-17.05C141.57,164.21,137.65,154.4,133.67,144.62Z"/><path class="cls-23" d="M251.43,390.35q.33,7.39.67,14.8c.1,2.15.55,4.36.19,6.43-.21,1.15-1.77,2.06-2.73,3.07-.7-6.66-1.49-13.32-2.08-20C247.25,392,247.58,389.46,251.43,390.35Z"/><path class="cls-10" d="M443.51,115.63v10.51l3.48-1.3,4.49,6.3c-12.52,0-10.46,2-10.18-10.7.05-2.24.92-4.47,1.41-6.7Z"/><path class="cls-25" d="M329.54,574.37c1.71.09,3.6-.27,5.08.35,10.95,4.53,22.36,5.46,34,4.94a9,9,0,0,1,2.75.78C356.78,583,343,579.89,329.54,574.37Z"/><path class="cls-9" d="M319.46,678.11a25.75,25.75,0,0,0,0-3.93c-.78-4.82.5-8.54,5.29-10.52.18,3.08.22,6.18.56,9.24C325.79,677.51,324.17,679.46,319.46,678.11Z"/><path class="cls-25" d="M197.66,520.56c-8.52-2.86-17.11-1.94-25.86-1.2-4.35.37-8.9-1.54-13.36-2.42,9.67-.06,19.35-.45,29,0C190.89,517.1,194.25,519.29,197.66,520.56Z"/><path class="cls-25" d="M103.43,518c.08-.15.14-.41.23-.42,12.57-1.08,25.25-3.28,37.12,3.36.35.2.48.81.72,1.24-10.22-5.35-21.23-4.28-32.15-4.07C107.38,518.12,105.4,518,103.43,518Z"/><path class="cls-10" d="M273.46,562.63l-2.21.11-1.76-1.19-11-5.89,4-3,6.71.67,1.25.59,0,1.75Z"/><path class="cls-17" d="M169.06,158.68a34.75,34.75,0,0,1-3.53-5,39.86,39.86,0,0,1-2.86-7.92c-.77-3.26-2.51-8.75-1.32-9.55,4.1-2.76,9.3-3.9,14.08-5.65-3.15,1.43-6.23,3-9.46,4.24-3.95,1.49-5,3.69-3.24,7.69C165.07,147.77,167,153.27,169.06,158.68Z"/><path class="cls-23" d="M601.11,553.27c.26,5.16-4.73,4.66-7.28,5.79-5.61,2.47-11.81,3.65-17.81,5.17-.72.18-1.72-.79-2.6-1.22C583.43,562,592.35,557.85,601.11,553.27Z"/><path class="cls-6" d="M145.47,59.76c-.74,1-1.28,2.52-2.26,2.91-9.27,3.67-18.61,7.15-27.94,10.64-.16.07-.5-.34-.76-.53Z"/><path class="cls-11" d="M273.46,562.63l-3-7,2.64-.26.37.19c1.87,4.22,5.54,4.87,9.56,4.86l1.41.49,5,3.71c-2.37,1.94-4.64,2.85-7.45.46-1.13-1-3-1-4.58-1.43h0l-2-1Z"/><path class="cls-7" d="M446.48,95.63c-.91,3,1.94,6.74-2,9-.31-1.32-.61-2.65-.92-4,.08-.67.15-1.34.23-2l1.77-19c.12-1.33.24-2.67.35-4l2.59-9.94v9.89l0,12Z"/><path class="cls-16" d="M637.29,155.19c-.12,1.28-.23,2.55-.36,4l4.64,1.13c-1.28,4.13-2.49,8-3.7,11.89L633,169.85c2.88-2,3.49-6.71,1.06-8.35Z"/><path class="cls-22" d="M293.49,265.07c-6.07,2.19-12.11,4.47-18.25,6.4-.58.19-1.84-1.82-2.79-2.81Z"/><path class="cls-10" d="M517.6,9.69c.43,1.34.87,2.69,1.27,3.91l2.61-2.43,1.28.48-2.39,11.56-4.52-1.55Z"/><path class="cls-17" d="M414.5,0l-.23,2.16c-5.39.77-10.43,1.52-15.49,2.2-2.26.31-4.74.92-5.35-2.46Z"/><path class="cls-26" d="M599.23,291.35c1.24-2,2.27-3,5-1.26,1.79,1.13,4.73.45,7.15.58.44,2.1.87,4.2,1.31,6.29l-1.32,1Z"/><path class="cls-23" d="M599.41,562.54c2.51-2,4.73-5.12,7.59-5.94,6-1.7,12.24-2.2,18.38-3.2C616.3,555.24,607.26,557.2,599.41,562.54Z"/><path class="cls-25" d="M393.47,565.67c5.67-5.22,5.85-12.43,6.94-19.29.41-2.53.55-5.1.81-7.65,1.78,11.06,0,21.19-7.81,29.74Z"/><path class="cls-6" d="M176.49,47.13c-2.77,1.39-5.49,2.88-8.32,4.15-6,2.71-12.06,5.37-18.15,7.9-1,.4-2.24,0-3.37,0Z"/><path class="cls-22" d="M476.48,256.78c-1.77.94-3.58,2.73-5.31,2.66-5.65-.24-11.28-1.1-16.9-1.85a9.7,9.7,0,0,1-2.82-1.38Z"/><path class="cls-25" d="M289.48,564.63l-5-3.71c9.25,2.74,18.54,4.71,28.06,1.2-5.25,4.62-11.5,3.68-17.66,3.15C293.05,565.11,291.27,564.85,289.48,564.63Z"/><path class="cls-25" d="M254.36,548c-8.51-.14-17-.21-25.51-.5-.83,0-1.62-1.37-2.44-2.1,7.28.34,14.56.58,21.82,1.06C250.3,546.58,252.32,547.45,254.36,548Z"/><path class="cls-10" d="M448.49,75.62V65.73l-2.59,9.94q.84-8,1.67-16c1.91.63-1.07,4.82,2.89,4,0,2.91.18,5.83-.09,8.72C450.26,73.5,449.14,74.54,448.49,75.62Z"/><path class="cls-23" d="M576.43,571.34c3.64-1.72,7.24-3.55,11-5.13,2-.86,5.26-.67,6.09-2.07,1.76-2.95,3.82-1.56,5.88-1.56C592.58,567.79,584.8,570.32,576.43,571.34Z"/><path class="cls-17" d="M177.44,129.57c4.83-2.28,9.6-4.68,14.54-6.71.81-.34,3,.68,3.36,1.55,1.35,3.29,2.19,6.79,3.23,10.2-.91-1.74-1.9-3.44-2.69-5.22-2.59-5.8-2.73-5.86-8.8-3.45C183.88,127.2,180.65,128.36,177.44,129.57Z"/><path class="cls-17" d="M395.11,47.67c-.59-4.43-3.05-10.1-1.19-12.93,1.62-2.45,8.12-1.68,12.46-2.33-2.71.63-5.4,1.7-8.13,1.81-3.81.15-4.38,1.79-3.75,5.1A68,68,0,0,1,395.11,47.67Z"/><path class="cls-6" d="M212.37,110.68a36.76,36.76,0,0,1-4.36-.76c-5.94-1.79-6.29-2.8-4.43-8.49C205,97,206,92.31,207.19,87.74c-.45,4.3,0,9-1.59,12.81-1.89,4.68-1.79,7.07,3.53,8.1C210.3,108.87,211.29,110,212.37,110.68Z"/><path class="cls-25" d="M294.53,533.58l4.94.9,4.62-8.87a11.31,11.31,0,0,1-.23,1.93c-.81,2.83-.91,6.49-2.78,8.17-1.26,1.14-5-.66-7.7-.88-2.29-.19-4.61,0-6.92,0v-1.2l6-3Z"/><path class="cls-26" d="M547.53,268.61l1.89.08a50.27,50.27,0,0,1,1,5.8c.15,2.41,1.44,4.88-1.41,7.14-1,.79.19,4-.15,6.07-.18,1.09-1.49,2-2.29,3,.43-4.43,1-8.86,1.23-13.3C548,274.48,547.64,271.54,547.53,268.61Z"/><path class="cls-17" d="M254.47,514.66c2.66,1,5.24,2.46,8,2.93,6.42,1.11,10.47,4.07,10.8,8.57a18.16,18.16,0,0,0-12.14-6.87c-3.28-.53-6.24-3.07-9.33-4.71Z"/><path class="cls-22" d="M353.5,259.05c-4,1.8-7.92,3.76-12,5.17-.5.17-2-2.68-3.07-4.12Z"/><path class="cls-10" d="M509.47,125.65c.62.45,1.5.77,1.8,1.37,1.05,2.08,1.88,4.26,3.1,7.1l-1.88,3.07L506.22,136Q507.84,130.8,509.47,125.65Z"/><path class="cls-26" d="M235.41,276.54c0,.64,0,1.28,0,1.92L217,281.68l-.27-1.47Z"/><path class="cls-22" d="M290.46,284.65c2.61-4.38,6.75-2.78,10-1.72,1.79.59,2.7,3.8,4,5.83Z"/><path class="cls-17" d="M276.45,528.65c6.49-1.7,6.49-1.7,6,6v1.92l-1.16.54C277.15,535.74,277,532.1,276.45,528.65Z"/><path class="cls-22" d="M315.49,262a18.66,18.66,0,0,0-2.43,1.67c-.95.9-1.74,2-2.61,3l-13-2Z"/><path class="cls-25" d="M258.46,555.66l11,5.89-22.94-6.24,1.92-.77,7,.11Z"/><path class="cls-22" d="M331.5,235l-3.86,3.42c0-.44,0-.89,0-1.33-3.88-.47-7.78-.84-11.64-1.47a40.09,40.09,0,0,1-5.53-1.72Z"/><path class="cls-10" d="M489.55,81.36c6.52.22,13,.35,19.53.82.59,0,1,2.22,1.54,3.41-1.82-.8-3.57-2-5.47-2.31C500,82.44,494.76,82,489.55,81.36Z"/><path class="cls-7" d="M509.47,125.65q-1.62,5.16-3.25,10.31v0c-.19-1.74-.39-3.49-.58-5.23.08-.68.17-1.36.25-2,.25-1,.51-2,.76-3l.57-4c.52-2.66,1.05-5.32,1.57-8a3.61,3.61,0,0,1,.6.48c.09.1.07.3.1.46C509.47,118.3,509.47,122,509.47,125.65Z"/><path class="cls-6" d="M111.5,74.22c-3.18,3.71-4.15,7.63-1.68,12.21.79,1.46.8,3.35,1.17,5-1.74-3.91-3.91-7.69-5.1-11.76C104.56,75.18,108.56,75,111.5,74.22Z"/><path class="cls-17" d="M422.11,15.67c-.55-1.05-1.19-2.06-1.63-3.15a63.08,63.08,0,0,1-2.79-7.45A23,23,0,0,1,417.43,0c1,.48,2.87.82,3,1.45C421.16,6.16,421.58,10.92,422.11,15.67Z"/><path class="cls-17" d="M775.39,464.45c-.33-4.51-3.73-3-6.24-3.16-2.87-.19-5.74-.28-8.61-.42,4.36-.36,8.76-1.23,13.07-.93C777.08,460.18,777.36,461.64,775.39,464.45Z"/><path class="cls-10" d="M509.48,114.63c0-.16,0-.36-.1-.46a3.61,3.61,0,0,0-.6-.48c-.52,2.66-1,5.32-1.57,8l1.53-14.94a27.43,27.43,0,0,0,2.34,3.92C513.22,113.16,511.51,113.91,509.48,114.63Z"/><path class="cls-17" d="M400.75,119.69q-.76-9.48-1.52-19Q400,110.21,400.75,119.69Z"/><path class="cls-17" d="M360.51,5.3c-.32.37-.62,1.06-.95,1.07-5.68.19-11.37.29-17.05.42Z"/><path class="cls-10" d="M539.38,9.9,521.44,8.12Z"/><path class="cls-10" d="M230.09,138.66c-1.45-2.37-3.21-4.62-4.28-7.16-1.45-3.48-2.38-7.18-3.54-10.79Q226.19,129.68,230.09,138.66Z"/><path class="cls-17" d="M367.85,75.61c.29.14.83.26.84.41.34,6.19.63,12.38.93,18.57Z"/><path class="cls-26" d="M364.45,268.69c4.52-.34,9-.72,13.57-1,1.81-.12,3.63-.08,5.45-.12a5.2,5.2,0,0,1,0,.88Z"/><path class="cls-17" d="M681.44,532.38c3.13-5.13,9.6-7.58,15.92-6Z"/><path class="cls-17" d="M777.15,506.35l-17.73-2Z"/><path class="cls-26" d="M318,295l7.32-2.35,1.41,5.6-1.29.86Z"/><path class="cls-9" d="M344.4,660.67q.53,8.45,1.06,16.9c-.44-3.53-1-7.05-1.28-10.59A53.38,53.38,0,0,1,344.4,660.67Z"/><path class="cls-22" d="M308.43,290.72l4.83-4c1.51,2.87,2.86,5.42,4.2,8Z"/><path class="cls-10" d="M499.4,55.84l-17-1.6Z"/><path class="cls-17" d="M745,496.67c-4-4.07-5-12.2-2.13-17.06Z"/><path class="cls-17" d="M418.42,32.19c.69-2.21,1.36-4.41,2.06-6.61.54-1.66,1.13-3.31,1.69-5,.18,2.62.22,5.26.56,7.85C423.21,32.07,421.57,32.94,418.42,32.19Z"/><path class="cls-10" d="M445.55,79.67l-1.77,19Z"/><path class="cls-22" d="M345.46,238.64c-1.51-.48-3.66-1.84-4.42-1.29-3.42,2.49-4.21.73-4.65-2.28a68.08,68.08,0,0,1,8.33,0C347.76,235.43,348.1,236.85,345.46,238.64Z"/><path class="cls-17" d="M727.7,448.72c1.48,5.5-.71,12.09-5,15Q725.21,456.22,727.7,448.72Z"/><path class="cls-14" d="M476.16,196c0,.7.12,1.41.11,2.12,0,1.09.29,2.44-.24,3.18a3,3,0,0,1-2.83.48c-.63-.29-.95-1.68-1-2.6a31.6,31.6,0,0,1,.26-4.34Z"/><path class="cls-17" d="M748.46,470.52c2.92-3.77,9-5.25,12.91-3.16Z"/><path class="cls-9" d="M623.93,507.46c.28-8,2.7-12.58,7.4-13.88Q627.63,500.53,623.93,507.46Z"/><path class="cls-26" d="M483.49,301.52l3.87-6.85c.6,2.79,1.2,5.58,2.09,9.74Z"/><path class="cls-8" d="M254.47,514.66l-2.68-.08-.21-.21c-.74-1.24-1.48-2.48-2.23-3.71l-.21-.34-1.65-7.67Z"/><path class="cls-17" d="M398.93,97.68q-.37-7-.73-13.94Q398.56,90.7,398.93,97.68Z"/><path class="cls-26" d="M611,287.71c-5.17-7.77-5.26-9.64-.62-13.12Q610.68,281.16,611,287.71Z"/><path class="cls-22" d="M388.49,257c-4.49,3.3-9.26,1.7-14,.78Z"/><path class="cls-25" d="M373.43,580.16l14.32-6.4Z"/><path class="cls-16" d="M451.27,451.58c.47.15,1.28.19,1.36.45.83,2.72-3.45,8.32-6.48,8.59Z"/><path class="cls-17" d="M247.49,502.65l1.65,7.67q-3.33-6.84-6.68-13.68Z"/><path class="cls-25" d="M276.45,528.65c.51,3.45.7,7.09,4.85,8.46-3.29,2.45-4.41-.29-5.36-2.49a56.81,56.81,0,0,1-2-7Z"/><path class="cls-17" d="M701.44,526.25l12.93-2.86Z"/><path class="cls-25" d="M207.8,551.91l13.69,3.22Z"/><path class="cls-9" d="M631.41,493.52c1.28-5.43,6.37-4.43,10-5.9Z"/><path class="cls-6" d="M206.78,85.68q-2.33-6.75-4.67-13.49Q204.45,78.93,206.78,85.68Z"/><path class="cls-23" d="M239.34,450.49l1.11,5.15h-1l-3.08,2-2.83,1.06Z"/><path class="cls-9" d="M641.44,487.59c1.33-4,6.88-6.91,11.95-6.16Z"/><path class="cls-7" d="M443.51,115.63l-.8-1.89c.13-2.35.27-4.7.4-7l1.34-.06,1,1v4Z"/><path class="cls-10" d="M510.58,87.68q-.7,6-1.4,12Q509.89,93.67,510.58,87.68Z"/><path class="cls-6" d="M189.77,51.36l-10.34-4.31Z"/><path class="cls-17" d="M376.53,3.43l-12,1.49Z"/><path class="cls-16" d="M638,172.25l5.08-1.73,3.41,5.72Z"/><path class="cls-25" d="M269.19,553.3l-6.71-.67-5.06-4.23Z"/><path class="cls-23" d="M562.49,563.56c-.38-.79-.77-1.57-1.15-2.36L571.5,563Z"/><path class="cls-9" d="M628.64,441.65c-3.12-3.74-5.29-7.81-4.43-12.92Z"/><path class="cls-23" d="M232.54,459.81l1.77,4.22-7.15,1.48Z"/><path class="cls-20" d="M466.45,241.33c1.65-.89,3.23-2.21,5-2.5.86-.15,2,1.61,3.06,2.51Z"/><path class="cls-10" d="M523.49,137.51c1.12-.47,2.3-1.44,3.35-1.31a36.23,36.23,0,0,1,6,1.75Z"/><path class="cls-10" d="M544.32,27.6c.17-3.66.35-7.32.52-11C544.67,20.28,544.49,23.94,544.32,27.6Z"/><path class="cls-17" d="M393.47,565.67l-.06,2.8-1,1.17-3,1-3.4-1.82Z"/><path class="cls-17" d="M763.43,467.23l11.83-2.66Z"/><path class="cls-10" d="M449.65,31.7l-.72,11Z"/><path class="cls-5" d="M634.08,161.5c2.43,1.64,1.82,6.39-1.06,8.35l-.38,0-.17-.34c-.07-1.49-.15-3-.22-4.46Z"/><path class="cls-27" d="M642.13,278.49l2.27-1.83,7.35,1.12c-.08.66-.16,1.31-.25,2Z"/><path class="cls-25" d="M283,560.43c-4,0-7.69-.64-9.56-4.86Z"/><path class="cls-20" d="M454.46,241.55l4-3.62,3,3.53Z"/><path class="cls-16" d="M691.65,55.56c-4-1.23-5.41,2.51-7.94,4.1C686.52,52.52,686.93,52.31,691.65,55.56Z"/><path class="cls-23" d="M649.42,553.17l10-1.7Z"/><path class="cls-16" d="M748,83.43l-10.58-5.31Z"/><path class="cls-17" d="M224.33,468.34c0,.46.09.91.13,1.37s0,1.19,0,1.79l-.24,3.22-4.93-2.19Z"/><path class="cls-17" d="M738.81,449.68c-2-2.94-4-5.84-8.15-5.48C735.91,442.3,737.75,443.54,738.81,449.68Z"/><path class="cls-17" d="M756.4,460.86c-4.26,1.06-8,.32-10.95-3.16Z"/><path class="cls-22" d="M269.44,294.35c2.34-3.88,6.08-4.65,10.19-4.63Z"/><path class="cls-23" d="M474.47,552.64c.23,2.23.46,4.45.7,6.68q-1.41-5.85-2.81-11.7l1.12,1Z"/><path class="cls-26" d="M489.44,266.67l1.16,1.42c-3.66.12-5.82,1.79-5.85,5.66-3.51-4.1.07-5.4,2.77-7.05Z"/><path class="cls-17" d="M126.54,127.63q2.25,5.38,4.52,10.76Q128.8,133,126.54,127.63Z"/><path class="cls-10" d="M461.52,132.48c3.08-.66,6.06-1.47,7.33-4.86C468.5,133.38,468.5,133.38,461.52,132.48Z"/><path class="cls-17" d="M717.42,522.84,728.19,520Z"/><path class="cls-17" d="M228.89,487.87c4.56-.67,6.09,3.24,8.58,5.7Z"/><path class="cls-10" d="M513.75,51.74l-.46,4.74L508.45,56Z"/><path class="cls-16" d="M644.2,141l-5.1,10.51Z"/><path class="cls-25" d="M105.53,470.44l9,.68Z"/><path class="cls-23" d="M698.36,516l-9-.67Z"/><path class="cls-17" d="M397.05,69.67c-.29-3-.57-6-.86-8.93C396.48,63.72,396.76,66.7,397.05,69.67Z"/><path class="cls-23" d="M677.42,518.63q-2.17,1.54-4.37,3.07c.74-2.87,1.74-5.47,5.48-5.17Z"/><path class="cls-12" d="M355.46,266.64l2.56-2.81c.47,1.66,1,3.32,1.42,5l-2.92.13C356.17,268.17,355.82,267.41,355.46,266.64Z"/><path class="cls-23" d="M463.51,523.49l9,4.06Z"/><path class="cls-23" d="M579.39,532.79c3.42-2.56,6.32-1,9.15,1.15Z"/><path class="cls-16" d="M474.45,530.64c3.08,3.69.57,5.87-2.15,8l.09-3C473.08,534,473.77,532.32,474.45,530.64Z"/><path class="cls-16" d="M509.46,359.54v4.76l-5.33-1Z"/><path class="cls-9" d="M610.22,435c-.06,2.93,1.63,6.62-3.25,7.43Q608.6,438.75,610.22,435Z"/><path class="cls-23" d="M438.78,479.24l-.41,4.95-1.61.48-1.94-4.38Z"/><path class="cls-2" d="M317.47,530.65c4.42,3.28-1.11,3.46-1.62,5.2l.27-5.14Z"/><path class="cls-10" d="M515.6,31.69l-1.29,8Z"/><path class="cls-25" d="M129.32,484.6l0,8.08Z"/><path class="cls-26" d="M587.45,265.69,579.39,264Z"/><path class="cls-26" d="M546.5,292.64l4.33,3.25-5.39,2.81C546,295.78,546.23,294.21,546.5,292.64Z"/><path class="cls-16" d="M651.87,178.88l6.32-4.25C656.74,177,657.45,182.64,651.87,178.88Z"/><path class="cls-23" d="M568.92,522.59l1.51.1c.33,1.32.65,2.64,1,4-.25,1.31-.49,2.62-.74,3.93Q569.8,526.57,568.92,522.59Z"/><path class="cls-25" d="M222.35,545l-7.91-3Z"/><path class="cls-26" d="M615.44,270.78,607.39,269Z"/><path class="cls-22" d="M294.52,202.62l-4.79-2.93,1.17-3.07,1.23.06Q293.33,199.65,294.52,202.62Z"/><path class="cls-25" d="M92.19,517.76l7.13.5Z"/><path class="cls-10" d="M470.31,110.61c-2.81-2.47-1.18-4.26.92-6C470.92,106.63,470.62,108.62,470.31,110.61Z"/><path class="cls-6" d="M115.54,101.62q1.75,3.91,3.49,7.83Q117.29,105.54,115.54,101.62Z"/><path class="cls-10" d="M473.33,82.6c.34-3.51,2.27-4,6.15-1.55Z"/><path class="cls-22" d="M483.49,256.83l-1.88,2.73-3.17-2.79Z"/><path class="cls-26" d="M257.56,233l-7.1.68Z"/><path class="cls-23" d="M474.45,530.64c-.68,1.68-1.37,3.35-2.06,5,.06-2.69.11-5.37.17-8.06l1.89,1c0,.35,0,.7,0,1S474.47,530.32,474.45,530.64Z"/><path class="cls-25" d="M92.43,510.57c-.31,2.26-.63,4.51-.94,6.76C87.89,514.53,90.33,512.58,92.43,510.57Z"/><path class="cls-9" d="M662.45,480.51l-1-3.52,4.71,2.51c-.09.34-.19.67-.29,1Z"/><path class="cls-23" d="M266.48,390.88c-2,2.29-4,4-7.06,1.58Z"/><path class="cls-25" d="M121.5,462.47l-7,1.44Z"/><path class="cls-25" d="M147.28,509.7q-1.51-3.49-3-7Z"/><path class="cls-9" d="M600.36,451.4l-5.18,5.13Z"/><path class="cls-23" d="M571.63,533.62l5.73-.3C575.49,534.12,573.74,537.39,571.63,533.62Z"/><path class="cls-25" d="M96.15,467.77l7.35,2.32Z"/><path class="cls-10" d="M471.4,99.62c.11-2,.21-4,.32-6C471.61,95.62,471.51,97.62,471.4,99.62Z"/><path class="cls-10" d="M477.3,38.59l.87-6Z"/><path class="cls-6" d="M121.2,114.68c1,2.24,2,4.47,2.92,6.71C123.14,119.15,122.17,116.92,121.2,114.68Z"/><path class="cls-6" d="M196.4,59.65c-1.35-1.93-2.69-3.86-4-5.78C193.71,55.79,195.05,57.72,196.4,59.65Z"/><path class="cls-26" d="M281,223.14c-1.15,2.19-2.29,4.38-3.44,6.56Q279.28,226.43,281,223.14Z"/><path class="cls-10" d="M537.4,95.62l.24-6Z"/><path class="cls-10" d="M444.45,106.63l-1.34.06c.15-2,.29-4,.44-6,.31,1.32.61,2.65.92,4C444.46,105.31,444.45,106,444.45,106.63Z"/><path class="cls-9" d="M585.47,462.78c-1.47,3.33-2,3.49-4,1.09Z"/><path class="cls-10" d="M545.27,14.58l-1.83-4.48C547,10.37,546.07,12.51,545.27,14.58Z"/><path class="cls-23" d="M612.4,517.07l6.34-2.29Z"/><path class="cls-23" d="M604.42,519.28l6-1.93Z"/><path class="cls-23" d="M555.52,560.64l-.93-4.27,4.57,4Z"/><path class="cls-22" d="M328.4,269.18l1.17-3.37,1.21,0,.75,3.29Z"/><path class="cls-10" d="M469.24,125.57c.18-1.65.35-3.3.53-4.95C469.59,122.27,469.42,123.92,469.24,125.57Z"/><path class="cls-10" d="M220.42,117.66l-3.93-4.09Z"/><path class="cls-16" d="M761.29,104.59c0-1.63,0-3.26,0-4.88C761.3,101.33,761.29,103,761.29,104.59Z"/><path class="cls-14" d="M466.47,193.63c-2.06.27-5,2.66-5-2.07Z"/><path class="cls-26" d="M271.6,231.4l-5.13.3Z"/><path class="cls-6" d="M111.52,92.64l2.56,5.77Z"/><path class="cls-25" d="M106.49,508.21l-4.93.7Z"/><path class="cls-25" d="M400.77,532.68c-1.79-1.95-2.46-3.75.67-5C401.21,529.32,401,531,400.77,532.68Z"/><path class="cls-23" d="M556.92,533.68l-1.45,0,.81-4.94C556.49,530.36,556.71,532,556.92,533.68Z"/><path class="cls-10" d="M472.12,91.53c.32-1.63.63-3.27.95-4.9C472.75,88.26,472.44,89.9,472.12,91.53Z"/><path class="cls-10" d="M505.63,130.7c.19,1.74.39,3.49.58,5.23C506,134.19,505.82,132.44,505.63,130.7Z"/><path class="cls-10" d="M479.32,18.59l.63-5Z"/><path class="cls-25" d="M229.43,555.15l5.06-.06Z"/><path class="cls-25" d="M103.41,462.81h0Z"/><path class="cls-25" d="M113.49,507.21l-4.94.68Z"/><path class="cls-9" d="M655.42,481c1.08-2.19,2.25-3.72,4.06-.54Z"/><path class="cls-25" d="M128.72,494.72l-1.92,4.95Z"/><path class="cls-23" d="M407.42,525.13l4.76-2.15Z"/><path class="cls-23" d="M672.12,523.93l-2.3,4.75Z"/><path class="cls-23" d="M597.24,530.58c.63-1.66,1.27-3.32,1.9-5C598.51,527.26,597.87,528.92,597.24,530.58Z"/><path class="cls-23" d="M555.78,549.27l1.71-5.63Z"/><path class="cls-23" d="M716.51,483.48l5,2Z"/><path class="cls-22" d="M563.47,263.62l-3-.93a5.28,5.28,0,0,0,0-.89l2.91.44C563.39,262.7,563.43,263.16,563.47,263.62Z"/><path class="cls-17" d="M756.39,503.89l-4.95-2Z"/><path class="cls-20" d="M499.54,222.84l3.95-3.18Z"/><path class="cls-10" d="M453.52,131.45l4,.81Z"/><path class="cls-25" d="M317.47,530.65l-1.35.06,0-4.11C316.56,528,317,529.3,317.47,530.65Z"/><path class="cls-25" d="M315.63,540.7c0,1.29,0,2.58.05,3.87C315.67,543.28,315.65,542,315.63,540.7Z"/><path class="cls-26" d="M486.09,282.73c-.24-1.36-.47-2.71-.71-4.06C485.62,280,485.85,281.37,486.09,282.73Z"/><path class="cls-9" d="M591.42,459.54l-4.75,2.69Z"/><path class="cls-26" d="M563.47,263.62c0-.46-.08-.92-.11-1.38l4.09.45c0,.31,0,.62,0,.94Z"/><path class="cls-26" d="M580.51,283.49l4,1.9Z"/><path class="cls-16" d="M632.25,165.08c.07,1.49.15,3,.22,4.46C629.07,168.22,631.07,166.63,632.25,165.08Z"/><path class="cls-25" d="M109.36,464l-3.93-.86Z"/><path class="cls-22" d="M569.5,250.53l4,.65Z"/><path class="cls-22" d="M551.47,248.58l4,.56Z"/><path class="cls-23" d="M455.86,519.89l4.63,2.39Z"/><path class="cls-25" d="M194.78,538.55c2.8.09,2.92,1.76,2.28,3.88Z"/><path class="cls-22" d="M340.39,244.26l3.33-3.5Z"/><path class="cls-22" d="M324.5,261.14l-4,.54Z"/><path class="cls-22" d="M336.5,260.26l-4,.41Z"/><path class="cls-22" d="M491.5,257.09l-3,1.57-1-1.68Z"/><path class="cls-26" d="M264.57,232l-4.1.67Z"/><path class="cls-20" d="M486.47,233.66c-.32-3.23,1.86-3.1,4-3Z"/><path class="cls-16" d="M667.66,155.14c.8-1.51,1.61-3,2.42-4.52C669.27,152.13,668.46,153.63,667.66,155.14Z"/><path class="cls-17" d="M677.45,536.59c1.12-1.27,2.25-2.53,3.37-3.79C679.7,534.06,678.57,535.32,677.45,536.59Z"/><path class="cls-16" d="M441.66,470.46l1.55,2-2.68,1.24C440.91,472.58,441.28,471.52,441.66,470.46Z"/><path class="cls-17" d="M390.5,2.13l-4,.74Z"/><path class="cls-10" d="M536.28,104.58c.25-1.32.5-2.63.76-4C536.78,102,536.53,103.26,536.28,104.58Z"/><path class="cls-23" d="M556.27,525.59c.28-1.33.56-2.66.85-4C556.83,522.93,556.55,524.26,556.27,525.59Z"/><path class="cls-26" d="M324.09,282.72l-.72-4.05Z"/><path class="cls-17" d="M780.6,513.81c0-1.51,0-3,0-4.54C780.61,510.78,780.61,512.3,780.6,513.81Z"/><path class="cls-16" d="M681.13,64.93l-2.27,4.74Z"/><path class="cls-22" d="M594.47,254.61l4,.79Z"/><path class="cls-26" d="M599.47,267.66l-4.08-.65Z"/><path class="cls-10" d="M479.37,53.91c-3.66,1.4-2.83-1.06-2.59-3C477.65,51.89,478.51,52.9,479.37,53.91Z"/><path class="cls-10" d="M448.61,44.69c-.23,1.33-.45,2.65-.68,4C448.16,47.34,448.38,46,448.61,44.69Z"/><path class="cls-9" d="M639.39,457.66l-2.81-3.31Z"/><path class="cls-26" d="M240.58,235l-.15,3.71-2-2.48Z"/><path class="cls-17" d="M238.64,494.13q1.92,1.25,3.82,2.51Q240.56,495.38,238.64,494.13Z"/><path class="cls-17" d="M748.8,500.5l-3.28-3Z"/><path class="cls-23" d="M668.28,531.19l-2.76,3.48Z"/><path class="cls-17" d="M249.35,510.66c.75,1.23,1.49,2.47,2.23,3.71C250.84,513.13,250.1,511.89,249.35,510.66Z"/><path class="cls-25" d="M389.48,570.64l3-1-3,2.87Z"/><path class="cls-23" d="M665.49,534.7l-3.28,2.84Z"/><path class="cls-17" d="M286.46,533.64v1.2l-2,.74,0-1Z"/><path class="cls-10" d="M534.33,123.6l.69-3Z"/><path class="cls-26" d="M325,288.74c-.19-1-.38-2.05-.56-3.08C324.59,286.69,324.78,287.71,325,288.74Z"/><path class="cls-23" d="M710.4,482.83l3.12.15Z"/><path class="cls-6" d="M119.55,110.64c.52,1.25,1,2.5,1.55,3.76C120.58,113.14,120.07,111.89,119.55,110.64Z"/><path class="cls-9" d="M611.68,428.71c-.29,1-.59,2-.89,3C611.09,430.68,611.39,429.7,611.68,428.71Z"/><path class="cls-23" d="M683.52,515.35l-3,.59Z"/><path class="cls-10" d="M538.3,85.59l.63-3Z"/><path class="cls-17" d="M397.87,81.68c-.16-1-.33-2-.49-3C397.54,79.68,397.71,80.68,397.87,81.68Z"/><path class="cls-22" d="M562.51,249.49l3,.63Z"/><path class="cls-26" d="M610.41,274.54c.8-2.42,1.83-2.64,3.13-.33Z"/><path class="cls-10" d="M539.33,71.6c.2-1,.39-2,.58-3C539.72,69.61,539.53,70.61,539.33,71.6Z"/><path class="cls-23" d="M256.13,391.36l-3.76-1Z"/><path class="cls-10" d="M540.3,66.59c.14-1,.28-2,.43-3C540.59,64.61,540.44,65.6,540.3,66.59Z"/><path class="cls-6" d="M198.36,63.68c-.57-1.2-1.13-2.39-1.69-3.59C197.23,61.29,197.79,62.48,198.36,63.68Z"/><path class="cls-9" d="M657.9,474.47l-3.24-2.35Z"/><path class="cls-10" d="M541.34,51.6l.75-3Z"/><path class="cls-10" d="M542.33,46.6l.3-3Z"/><path class="cls-10" d="M543.19,33.56c.27-1,.53-2,.8-2.94C543.72,31.6,543.46,32.58,543.19,33.56Z"/><path class="cls-23" d="M435.42,499.52l1.43-1.72,1.53,2Z"/><path class="cls-10" d="M478.38,23.62c.17-1,.35-2,.52-3C478.73,21.62,478.55,22.62,478.38,23.62Z"/><path class="cls-22" d="M567.46,263.63c0-.32,0-.63,0-.94l2.13.29c-.41.73-.83,1.45-1.25,2.17Z"/><path class="cls-22" d="M355.46,266.64c.36.77.71,1.53,1.06,2.3l-2.15-.15Z"/><path class="cls-10" d="M466.38,2.89l-2.94-.8Z"/><path class="cls-17" d="M131.49,139.64l1.62,3.7Z"/><path class="cls-10" d="M532.78,138c.33-1.12.66-2.24,1-3.36C533.44,135.74,533.11,136.86,532.78,138Z"/><path class="cls-26" d="M563.49,289.74,567,288Z"/><path class="cls-25" d="M117.54,471.4l2.95.81Z"/><path class="cls-23" d="M702.79,483l3.6.42Z"/><path class="cls-22" d="M364.5,258.38l-3,.27Z"/><path class="cls-10" d="M506.64,125.7c-.25,1-.51,2-.76,3C506.13,127.68,506.39,126.69,506.64,125.7Z"/><path class="cls-26" d="M486.79,288.75c-.13-1-.25-2.06-.38-3.1C486.54,286.69,486.66,287.72,486.79,288.75Z"/><path class="cls-23" d="M486.46,571.65l.79,2.31-3-2.22Z"/><path class="cls-25" d="M95.34,464.37l.15,3Z"/><path class="cls-23" d="M449.57,515.6l2.89,2Z"/><path class="cls-23" d="M440.74,505.62l1.8,2.8Z"/><path class="cls-25" d="M201.55,547.61l2.8,2.2Z"/><path class="cls-9" d="M630.19,444.66l-1.11-2.26Z"/><path class="cls-6" d="M192.25,53.73l-2.52-2.41Z"/><path class="cls-6" d="M201.53,70.65l-1.68-3.78Z"/><path class="cls-23" d="M420.4,518.45l2.69-1.92Z"/><path class="cls-9" d="M654.14,471.67l-2.67-2.15Z"/><path class="cls-23" d="M700.94,477.88c-.08.89-.16,1.79-.23,2.69C700.78,479.67,700.86,478.77,700.94,477.88Z"/><path class="cls-26" d="M551.47,295.69l2.14-2Z"/><path class="cls-25" d="M145.81,458.68l-.65-1.93Z"/><path class="cls-25" d="M153.43,487.09l1.91-.78Z"/><path class="cls-25" d="M149.41,489.48l2.48-1.67Z"/><path class="cls-26" d="M591.92,288l2.59,1.35Z"/><path class="cls-25" d="M131.31,455.28l-1.85,2.36Z"/><path class="cls-25" d="M145.62,494l1.72-2.37Z"/><path class="cls-23" d="M727.25,492.58c.17.66.33,1.32.5,2C727.58,493.9,727.42,493.24,727.25,492.58Z"/><path class="cls-25" d="M133.08,450.89l-1.2,2.78Z"/><path class="cls-9" d="M633.37,449.65l-1.74-2.44Z"/><path class="cls-6" d="M269.44,449.65l-1.82-2.44Z"/><path class="cls-9" d="M605.32,445.29c-.59.8-1.19,1.59-1.78,2.38C604.13,446.88,604.73,446.09,605.32,445.29Z"/><path class="cls-25" d="M126.38,500.45l-2.08,2.13Z"/><path class="cls-25" d="M284.41,534.55l0,1-2,1v-1.92Z"/><path class="cls-23" d="M590.74,535.07l2.85,1.08Z"/><path class="cls-23" d="M728,499.93l-.66,2.77Z"/><path class="cls-25" d="M209,538.45l-2.34-2.16Z"/><path class="cls-22" d="M283.43,287.55l2.06-.83Z"/><path class="cls-25" d="M120.49,505l-2,.79Z"/><path class="cls-25" d="M211.92,540.46l-2.46-1.7Z"/><path class="cls-26" d="M575.4,284.38l2-.91Z"/><path class="cls-23" d="M722.5,509.74l-2.34,1.77Z"/><path class="cls-17" d="M395.66,58.69c-.11-.67-.21-1.34-.32-2C395.45,57.35,395.55,58,395.66,58.69Z"/><path class="cls-16" d="M683.18,61l-1.49,2.69Z"/><path class="cls-23" d="M427.55,512.86c.62-.75,1.24-1.49,1.85-2.24C428.79,511.37,428.17,512.11,427.55,512.86Z"/><path class="cls-26" d="M386.51,278.65l-.39,2.11C386.26,280.06,386.38,279.35,386.51,278.65Z"/><path class="cls-16" d="M677.52,72.66l-1,2Z"/><path class="cls-16" d="M675.94,75.81l-1.32,2.85Z"/><path class="cls-23" d="M713.52,514.57l-2,.3Z"/><path class="cls-16" d="M673.1,81.91l-1.38,2.75Z"/><path class="cls-17" d="M778.42,515l2.21-1.22Z"/><path class="cls-16" d="M671.19,86l-1.33,2.68Z"/><path class="cls-25" d="M316.09,547.61l1.08,2.69Z"/><path class="cls-16" d="M760,94.67l-1.35-2.53Z"/><path class="cls-16" d="M668,92.82l-1.31,2.84Z"/><path class="cls-25" d="M204.29,549.78l2.2,1.48Z"/><path class="cls-16" d="M666,96.83l-1.46,2.84Z"/><path class="cls-23" d="M709.52,515.42l-2,.51Z"/><path class="cls-16" d="M754.75,121.31l1.31-2.69Z"/><path class="cls-16" d="M751.85,127.4c.46-.93.91-1.85,1.37-2.77C752.76,125.55,752.31,126.47,751.85,127.4Z"/><path class="cls-16" d="M651.06,126.88l-1.37,2.78Z"/><path class="cls-26" d="M605.47,268.63l-2.1-.43Z"/><path class="cls-16" d="M649.15,131l-1.31,2.72Z"/><path class="cls-26" d="M540.48,268.56l1.94-.05Z"/><path class="cls-10" d="M200.81,140.62l1.38,2.7Z"/><path class="cls-25" d="M273.1,555.38l-2.64.26c0-.58,0-1.17,0-1.75Z"/><path class="cls-16" d="M665.73,159.28l1.39-2.66Z"/><path class="cls-18" d="M446.26,162.65,444.73,160Z"/><path class="cls-16" d="M663.81,163.36l1.38-2.73Z"/><path class="cls-16" d="M658.8,173.36l1.43-2.73Z"/><path class="cls-16" d="M647.74,177l2.75,1.34Z"/><path class="cls-25" d="M190.92,534.85l2.47,2Z"/><path class="cls-23" d="M452.87,517.88l2.6,1.72Z"/><path class="cls-25" d="M306.41,520.5l2-1Z"/><path class="cls-22" d="M288.06,205c-.43.89-.86,1.79-1.28,2.68C287.2,206.79,287.63,205.89,288.06,205Z"/><path class="cls-26" d="M283.12,218.22l-1.35,2.52Z"/><path class="cls-22" d="M304.29,223.67l-1.5-2.63Z"/><path class="cls-26" d="M277.52,229.75l-2,1Z"/><path class="cls-26" d="M245.6,234.28l-2.14.39Z"/><path class="cls-23" d="M478.62,565.59l1.76,2.25Z"/><path class="cls-22" d="M628.48,239.69c.71-.66,1.42-1.32,2.12-2C629.9,238.37,629.19,239,628.48,239.69Z"/><path class="cls-22" d="M625.56,242.87c.66-.73,1.31-1.47,2-2.2C626.87,241.4,626.22,242.14,625.56,242.87Z"/><path class="cls-9" d="M645.83,464.5l-2.23-2.2Z"/><path class="cls-9" d="M578.49,464.22l-2.07.13Z"/><path class="cls-23" d="M719.52,466.4l-2.83.73Z"/><path class="cls-25" d="M147.17,462.66c-.32-.64-.64-1.29-.95-1.93Z"/><path class="cls-23" d="M713.51,468.18l-2.74,1.1Z"/><path class="cls-25" d="M159.39,470.87l-2-.79Z"/><path class="cls-17" d="M743.81,476.36c.48-.91,1-1.82,1.43-2.73C744.77,474.54,744.29,475.45,743.81,476.36Z"/><path class="cls-23" d="M274.82,389.49l-2.35-.84Z"/><path class="cls-26" d="M560.45,261.8a5.28,5.28,0,0,1,0,.89l-2.09-1.28Z"/><path class="cls-9" d="M660.7,476.54l-2.25-1.74Z"/><path class="cls-23" d="M703.37,474.45l-1.76,2.21Z"/><path class="cls-25" d="M169.5,477.62l-2.06-1.88Z"/><path class="cls-22" d="M371.49,257.91l-1,1.36-1.1-1.21Z"/><path class="cls-26" d="M263.35,259.26l2.12-.6Z"/><path class="cls-9" d="M310.83,638.78l-.24,1.81Z"/><path class="cls-22" d="M602.45,256.66l2,.39Z"/><path class="cls-16" d="M439,477.71l1.87,1-2,.23C438.88,478.51,438.92,478.11,439,477.71Z"/><path class="cls-22" d="M589.51,253.51l2,.43Z"/><path class="cls-22" d="M584.51,252.48l2,.56Z"/><path class="cls-22" d="M576.49,251.58l2,.45Z"/><path class="cls-23" d="M668.43,547.34l2.2-1.62Z"/><path class="cls-10" d="M534.09,129.66l-1.12-.52,1.12-.51Z"/><path class="cls-6" d="M201.9,71.71l-.65.37.65-.43Z"/><path class="cls-28" d="M51.64,171.1c-.76-.43-1.71-.66-2.09-1.25a96.6,96.6,0,0,1-6.91-11.53c-.51-1.09.81-3.92,2.09-4.8,7.53-5.21,15.31-10.05,23-15.08,2.26-1.48,3.7-1.11,5.41,1.08,9.44,12.18,9.51,12.16-3.08,20.31-5,3.26-10.13,6.41-15.21,9.58C53.84,170,52.8,170.49,51.64,171.1Z"/><path class="cls-27" d="M103.57,187.66a20.85,20.85,0,0,1-3.06,3.23c-7.45,5-15,9.72-22.44,14.75-2.83,1.92-4.52,1.12-6-1.44C63.59,190,62,194.26,75.49,184.66c4.73-3.36,9.7-6.37,14.55-9.56,2.88-1.91,5.2-1.68,7,1.54C99.07,180.23,101.24,183.73,103.57,187.66Z"/><path class="cls-29" d="M268.26,117.49c-.8-.87-2.55-1.92-2.87-3.3-4.06-17.63-8-35.29-11.67-53-.27-1.3,1.56-4.17,2.86-4.49,10.29-2.57,20.66-4.77,31.06-6.83,1-.21,3.24,1.1,3.46,2,2.6,11,4.87,22,7.35,33,1.53,6.79,3.2,13.55,4.92,20.29.9,3.52.46,5.39-3.88,6.07-9.16,1.43-18.21,3.6-27.31,5.46Z"/><path class="cls-27" d="M728.54,112.3c-2.46,4.72-4.56,9-7,13.15-.33.56-2.55.58-3.54.1-8.39-4-16.69-8.24-25-12.33-2.48-1.22-3-2.91-1.72-5.28.62-1.17,1.22-2.36,1.81-3.55,4.49-9.08,4.52-9.15,13.44-4.68,6.24,3.13,12.4,6.42,18.55,9.74A24.86,24.86,0,0,1,728.54,112.3Z"/><path class="cls-28" d="M311.44,486.91c-4.82-1.12-9.89-1.72-13.06-6.27q.11-3.31.23-6.63c11-3.51,22-6.89,32.93-10.57a224,224,0,0,0,21.85-8.2c7.34-3.36,10.84-9.22,11.15-17.81.58-15.79-3.86-30.5-7.55-45.49-1.51-6.15-1.41-12.71-1.75-19.1-.06-1.14,1.29-2.36,2-3.53a30,30,0,0,1,2.88,2.37c4.89,5,3.12,12,5,17.86,1.16,3.57,1.52,7.39,2.24,11.1l2.88,10.62,3,11.45q1.06,3.46,2.11,7l2.37,12,.84,2c.3,1.69.61,3.37.91,5.05,2.66,8.4.24,15.85-4.29,22.9l-.84.94-2.51,2-4.42,2.47-2,.76-3,.47-2,.6-3.06.64-7,1.21-20,6.16-1,.18-2,.8-5.08.52-1.85-.05Z"/><path class="cls-28" d="M317.6,505.6l-.56-2.12,3.54-5.78,2.93-1.93,7-2.87,12-2.52,2-.65,3.95-.79,4-.34,7-1.44,5-1.46,2-.41,2.84-1.15c15.42-4.12,23.63-18.07,19.3-33.41-4.9-17.37-10.16-34.65-15.22-52a41,41,0,0,1-2-8.69c-.1-1.69.84-4.3,2.12-5s4.4.09,5.13,1.24A51.25,51.25,0,0,1,383.53,397a88.7,88.7,0,0,1,2.28,9.66l.73,2,2.47,8c.59,1.64,1.19,3.27,1.78,4.91.1.75.2,1.49.29,2.24.42,1,.83,2,1.24,2.94l.41,1.93c.91,3,1.83,6,2.75,9,.71,2.67,1.43,5.33,2.15,8l1.23,2.87c.09.39.17.78.25,1.17.4,1.34.79,2.68,1.19,4l.81,3.06,1.25,3.92,1.62,7.93,0,7-.29,2q-4.2,6.63-8.41,13.24l-5.74,3.9-5.06,2.86-6,2.21-2.88,1.08a.46.46,0,0,0-.61,0l-.37,0-1.15.31-1,.38-5.13,1.25-6.71,1.77h-1l-2.1.26-2,.72-5,.74-7,1.24-7,.65-3.06.27-2,.2-2,.05-5-.19-3-.39-1.91-.74Z"/><path class="cls-28" d="M425.3,502.57l-17.84,14.08-3.85,1.42c-5.35.81-10.68,1.75-16.05,2.41-5.89.73-10.21-1.88-13.24-6.83.22-1,.43-1.91.65-2.87l3.6-4.8,2.5-1.44,1.25-.35,4.14-1.59,4.22-1.27,2.76-1,2.8-1.24,1.21-.58,3.09-1.81,1.87-1.22,2.38-1.82c5.92-4.81,7.55-11.58,7.36-18.57-.17-6.36-1.64-12.68-2.54-19l2.93-.69a62.22,62.22,0,0,1,16.19,30.23l-1.32,12-.68,2a.73.73,0,0,0-.34.84Z"/><path class="cls-8" d="M259.46,502.64c1.64-3.62,6-4.72,12.36-3.86,2.3.31,5.66,0,6.94-1.43s.23-4.56.17-7c0-.48-.37-.95-.39-1.43-.32-6.1-.61-12.21-.94-18.92l2.88-1.43c1.44-.11,3-.56,4.31-.23a23.55,23.55,0,0,1,4.67,2.25v1l-2,3c.38,2.14.75,4.28,1.19,6.81l3.81.19c-.91,1.7-1.41,3.92-2.79,5-5,3.88-6.84,9.27-4.29,15.08,6.28-2.74,4.5-8.72,5.41-13.44,5-.38,7.24,1.4,6.8,6.54-.15,1.71,1.18,3.57,1.9,5.33s1.58,3.59,1.89,4.29c-3.68,2.53-6.34,4.44-9.09,6.2-.75.49-2.21,1.1-2.6.77-4.38-3.75-7.2-.14-10.44,1.93a13,13,0,0,1-3.1,1.2l-2.87-7.35-5.92,3.93C260.62,510.18,260,509.55,259.46,502.64Z"/><path class="cls-17" d="M404.79,493.64l-2.38,1.82a17.51,17.51,0,0,0-1.86-2.68c-.14-.14-1.21.62-1.85,1l1.84,2.94-3.09,1.81q-1.11-3.81-2.2-7.62,4.22-6.62,8.41-13.24c4.47.77,3.93,3.54,2.53,6.52S402.4,490.05,404.79,493.64Z"/><path class="cls-17" d="M375.24,471.54c4.53-7.05,6.95-14.5,4.29-22.9a5.2,5.2,0,0,1,1.71.87c3.19,3.69,3.6,18.34.12,21.67C380.24,472.26,377.33,471.47,375.24,471.54Z"/><path class="cls-1" d="M292.46,481.64l-3.81-.19c-.44-2.53-.81-4.67-1.19-6.81l2-3v-1l5.26,4v-3.33l1-.68c1,1.12,1.91,2.25,2.86,3.37q-.12,3.32-.23,6.63Z"/><path class="cls-2" d="M330.48,492.9l-7,2.87c-.36-2.5-.73-5-1.1-7.51l5.08-.52,2-.8,1-.18Q330.46,489.82,330.48,492.9Z"/><path class="cls-16" d="M427.41,497.63l1.32-12c.24-.65.49-1.3.74-1.95.65.09,1.61-.06,1.91.32,1.68,2.13-.49,12.61-2.94,14.67Z"/><path class="cls-17" d="M370.27,411.26l-2.88-10.62c3.77.65,4.48,3.12,3.79,6.41C370.88,408.45,370.57,409.86,370.27,411.26Z"/><path class="cls-17" d="M350.45,480.6l7-1.21c.18,1.55.37,3.1.69,5.85Z"/><path class="cls-17" d="M395.48,437.64c-.92-3-1.84-6-2.75-9C394.53,431.36,399.59,433.1,395.48,437.64Z"/><path class="cls-17" d="M375.41,429.66l-2.11-7C380.19,423.15,376,427,375.41,429.66Z"/><path class="cls-17" d="M392.32,426.7c-.41-1-.82-2-1.24-2.94,2.1-2.2,3.67-1.67,5.09,1.13Z"/><path class="cls-17" d="M390.79,421.52c-.59-1.64-1.19-3.27-1.78-4.91l4.2.39C392.26,418.77,391.52,420.14,390.79,421.52Z"/><path class="cls-17" d="M400.3,453.71c-.4-1.35-.79-2.69-1.19-4l4,.35.45,1.17Z"/><path class="cls-17" d="M404,475.66l0-7Z"/><path class="cls-17" d="M364.48,485.7l-5,1.46Z"/><path class="cls-17" d="M352.45,488.6l-4,.34Z"/><path class="cls-17" d="M402.36,460.69l-1.25-3.92C404.36,457.18,403.89,458.76,402.36,460.69Z"/><path class="cls-17" d="M412.54,455.36l-2.93.69c.43-.75.87-1.49,1.31-2.24Z"/><path class="cls-17" d="M369.29,484.14l-2.84,1.15Z"/><path class="cls-17" d="M378.62,443.59l-.84-2Z"/><path class="cls-17" d="M344.49,489.73l-2,.65Z"/><path class="cls-17" d="M398.86,448.51l-1.23-2.87Z"/><path class="cls-17" d="M386.54,408.62l-.73-2Z"/><path class="cls-17" d="M371.89,474.45l2.51-2Z"/><path class="cls-17" d="M365.47,477.68l2-.76Z"/><path class="cls-17" d="M360.5,478.75l2-.6Z"/><path class="cls-27" d="M174.78,83.82a12.6,12.6,0,0,1,2.3,1.18,4.7,4.7,0,0,1,1,1.67c6.37,12.37,6,13.44-6.77,18.81-5.5,2.31-11.12,4.34-16.68,6.5-.62.24-1.3.71-1.88.62-6.67-1-5.1-7.65-7.58-11.52-.7-1.1.23-4.73,1.32-5.25,8.86-4.16,17.93-7.86,26.94-11.68A9.53,9.53,0,0,1,174.78,83.82Z"/><path class="cls-17" d="M174,178.27c.07.13.21.27.2.39s-.17.24-.26.35Z"/><path class="cls-10" d="M446.48,95.63l2-8C449.74,90.79,449.67,93.6,446.48,95.63Z"/><path class="cls-10" d="M469,6.06h3.83c0,.37.07.74.1,1.12l-3.85.36Z"/><path class="cls-10" d="M445.47,111.64v-4c.64.75,1.54,1.41,1.79,2.27C447.37,110.29,446.11,111.05,445.47,111.64Z"/><path class="cls-10" d="M453.46,38.64c-.33-1.33-.67-2.66-1-4C452.79,36,453.13,37.31,453.46,38.64Z"/><path class="cls-10" d="M475.26,6.89l1.79.42-.21.83-1.78-.48Z"/><path class="cls-28" d="M504.75,395.78c.61-3.9,1.5-7.77,1.76-11.69.45-6.73,3.36-11.92,9.39-17,.7,3.48,2,6.08,1.59,8.43-1.52,9.8-3.07,19.63-5.48,29.23a121.52,121.52,0,0,0-3.71,33.09c.2,8,4.1,13.58,11,16.4,9.17,3.76,18.78,6.43,28.19,9.56l.91.15,4.11,1.33,4.13.92,10.76,2.69,5.14,2.63,2.51,2.95c.22,6-3.36,8.89-8.54,10.48l-3,.81-5,1.17c-7-.87-14.15-1.35-21.08-2.72-8.28-1.63-16.31-4.48-24.6-6-16-2.95-23.61-14.22-19.83-30,2.66-11.12,5.19-22.28,7.78-33.43.35-1.36.71-2.72,1.06-4.08l.46-1.78q1.07-5.61,2.14-11.23C504.52,397,504.64,396.4,504.75,395.78Z"/><path class="cls-27" d="M556.38,501.65c-1.3,5.89-6.28,6-10.6,6.06-6.43.06-12.87-.76-19.31-1.2l-5-.93-5-.64-3.83-1-22.12-5.75c-3.54-2.13-7.07-4.27-10.63-6.38-8-4.71-11.05-11.87-10.92-20.9.14-10.5,3.73-20.14,6.64-30,4.75-16.16,8.87-32.5,13.49-48.7a18.08,18.08,0,0,1,4.14-7c1.13-1.21,3.95-2.39,5-1.79,1.54.88,2.3,3.29,3.11,5.17.35.82,0,2,0,2.94a11.84,11.84,0,0,0-.85,1.76q-7.71,26.83-15.37,53.67c-4.25,15-.48,27,11.63,33.14,6.84,3.46,14.61,5.29,22.15,7.06,12.2,2.87,25.2,3,35.69,11.25Z"/><path class="cls-16" d="M554.54,498.47c-10.49-8.25-23.49-8.38-35.69-11.25-7.54-1.77-15.31-3.6-22.15-7.06C484.59,474,480.82,462,485.07,447q7.6-26.85,15.37-53.67a11.84,11.84,0,0,1,.85-1.76l3.46,4.19c-.11.62-.23,1.24-.34,1.86-5.25,1.81-6.13,6.41-2.14,11.23-.15.59-.31,1.18-.46,1.78l-3,2.52,1.92,1.56c-2.59,11.15-5.12,22.31-7.78,33.43-3.78,15.8,3.85,27.07,19.83,30,8.29,1.53,16.32,4.38,24.6,6,6.93,1.37,14.05,1.85,21.08,2.72C559.5,491.56,557.13,495.05,554.54,498.47Zm-.27-8.75c-.49-.39-.8-.82-1.13-.85s-.81.29-1.22.46c.36.39.65.89,1.09,1.11C553.22,490.54,553.7,490.07,554.27,489.72Z"/><path class="cls-16" d="M571.41,526.65c-.33-1.32-.65-2.64-1-4l8.45,1.65c-.9,2.22-1.82,4.47-2.86,7C574.6,528.68,572.33,526.48,571.41,526.65Z"/><path class="cls-9" d="M567.37,468.87l-10.76-2.69C560.45,466.06,564.54,464.93,567.37,468.87Z"/><path class="cls-9" d="M575,474.45l-2.51-2.95,3-3.5,1.2.29Z"/><path class="cls-9" d="M620.54,427.85c.33.56.8,1,.7,1.24-.21.44-.71.73-1.09,1.08-.17-.4-.48-.81-.45-1.2S620.15,428.34,620.54,427.85Z"/><path class="cls-16" d="M570.57,519.44c-.39-.46-.82-.75-.86-1.08s.27-.8.42-1.2c.39.33.91.59,1.13,1C571.36,518.37,570.9,518.87,570.57,519.44Z"/><path class="cls-16" d="M563.49,485.74l3-.81Z"/><path class="cls-16" d="M587.71,529.27c-.28-.12-.7-.17-.78-.37s.19-.53.31-.81c.27.12.7.18.78.37S587.83,529,587.71,529.27Z"/><path class="cls-9" d="M622.08,433.92c-.28.11-.63.36-.82.28s-.23-.52-.34-.79c.28-.11.62-.37.81-.29S622,433.64,622.08,433.92Z"/><path class="cls-9" d="M618.12,435.14c.07.65.12,1.05.16,1.46-.24-.16-.61-.28-.69-.5S617.83,435.63,618.12,435.14Z"/><path class="cls-16" d="M594.21,531.82c-.13,0-.33.13-.36.09a1.4,1.4,0,0,1-.15-.42c.13,0,.33-.13.37-.09A1.3,1.3,0,0,1,594.21,531.82Z"/><path class="cls-28" d="M444.12,486.62l.48-6.64.81-1.33c4.53-7.47,9-15,13.68-22.36.58-.91,2.23-1.15,3.38-1.69a18.8,18.8,0,0,1,.33,3.79c-.52,5.13-1.72,10.25-1.68,15.36.08,9.08,1.95,17.61,11.23,22.2l5.08,2.77,11,3.76,1.83.76,7.13,4.72c2.6,6.22,1.19,8.75-6.91,12.41l-2.05.27h-6l-4-.37-3-.49-2-.74-17.35-7.65-2.59-1.8-7.38-9.92L445,496.85c-.29-2.4-.57-4.79-.86-7.18Z"/><path class="cls-16" d="M472.35,496c-9.28-4.59-11.15-13.12-11.23-22.2,0-5.11,1.16-10.23,1.68-15.36a18.8,18.8,0,0,0-.33-3.79,5.13,5.13,0,0,1,0-1c3.28,1,4.07,3.37,4,6.52-.13,6.57-.65,13.22.17,19.69.45,3.53,3.51,6.68,5,10.18C472.36,491.8,472.14,494,472.35,496Z"/><path class="cls-16" d="M497.42,508l-7.13-4.72.21-5L512.62,504c-1,.68-2.6,2.18-3,1.91-4.22-2.71-7.75-2.55-10.78,1.74C498.61,507.92,497.9,507.86,497.42,508Z"/><path class="cls-16" d="M488.46,502.48l-11-3.76C482.07,495.56,485.61,496.76,488.46,502.48Z"/><path class="cls-8" d="M548.37,463.93l-.91-.15c-.11-1.88-.23-3.76-.35-5.64h2.51C549.13,460.42,548.75,462.17,548.37,463.93Z"/><path class="cls-28" d="M527.49,511.89c6.73.81,11.27,4.43,13.71,10.72.14.66.27,1.33.41,2l.27,2c.23,1.67.45,3.33.67,5l.07,12.08c-.23,1.33-.45,2.65-.68,4-2.48,12.62-10.64,19.83-22.45,23.56l-2,.6-8,1.2-6-.1-2-.24-2-.46-2-.61-2-.72-1.34-.51-2.66-1.5-2.93-2.27-2.18-2.56c-.62-.82-1.24-1.63-1.87-2.44l-1.21-2c-.49-.91-1-1.81-1.46-2.72l-.51-1.28-.85-2q-.76-3-1.51-6l-.57-2c-.08-.67-.15-1.34-.22-2l-.15-5.06a41.38,41.38,0,0,1,2.23-6c3-5.49,6.84-6.34,12.09-2.94l1.63,2.82c.36,1.09.72,2.19,1.07,3.28l2.49,10.85,4.06,8,2.93,3,0,0c2.49,2.81,5.5,3.4,9,2.1l2-.94,3-3.12c.31-.68.63-1.35.94-2l1-3c0-3,.07-6,.1-9-.37-1.32-.73-2.64-1.1-4q-1.23-4.09-2.45-8.19c-.45-1.3-.89-2.59-1.34-3.88l-.25-4c.95-5.75,4.93-8.34,10.1-9.7Z"/><path class="cls-28" d="M359.45,572.86l-2-.26-7-1.79-5-2.11-2-1.13-9.08-9.92q-1-2.49-2-5l-.93-3-.26-20,.7-4.87c.31-1,.62-2,.94-3s.89-1.93,1.33-2.9l3.23-3.34,4.8-2.49,8,.41,7.17,6.43.21,1.76v2c-.73,3-1.46,6-2.2,9-.23.68-.47,1.37-.71,2-.4,1.33-.79,2.65-1.18,4-.16,5.16-1.43,10.6-.24,15.42,1.94,7.88,10.37,9.93,16.48,4.5,5.58-4.95,8.08-11.51,8.25-18.94a38.71,38.71,0,0,0,1.39-4.23c1-5,3.92-7.41,9.12-6.77l2,1.1c1.57,2.83,4.51,5.7,4.44,8.5-.23,10-1.89,19.75-9.23,27.46l-3.4,3.55.19.19-.23-.13-9.72,3.57-3,.81-6,0Z"/><path class="cls-27" d="M506.45,552.05l-2.92-2.43c-.56-.93-1.12-1.86-1.69-2.79l-.06-.22q-.76-7-1.52-14l5.67-5.8c2,2.28,4,4.52,5.83,6.86a18.13,18.13,0,0,1,1.61,3l.8,2.07.57,2.88.54,2.08c0,.63,0,1.26,0,1.89-.4,1.36-.81,2.72-1.21,4.07a.49.49,0,0,0-.51.61Z"/><path class="cls-17" d="M378,539.62c-.17,7.43-2.67,14-8.25,18.94-6.11,5.43-14.54,3.38-16.48-4.5-1.19-4.82.08-10.26.24-15.42l2.73.63c-2.9,6.19-2.46,9.81,1.64,13.06l1.17-3.74c3.78,5.58,8.49,5.35,11.4-.72a80.93,80.93,0,0,0,3-8.24Z"/><path class="cls-27" d="M373.41,539.63a80.93,80.93,0,0,1-3,8.24c-2.91,6.07-7.62,6.3-11.4.73.18-3,.37-6,.55-8.93.39-1.3.78-2.61,1.18-3.91q1-2,2-4l2-3,.83-.89,2.91-.32.15.31.33,0,2.49,2.85h0c.64,1.67,1.27,3.35,1.91,5C373.36,537,373.39,538.31,373.41,539.63Z"/><path class="cls-2" d="M365.56,527.87l-.83.89-3.71.18-1.32,1.7,3.06,1.1-2,4-2.77.57,1.59,3.34c-.18,3-.37,6-.55,8.93-.38,1.2-.76,2.41-1.17,3.73-4.1-3.25-4.54-6.87-1.64-13.06l-2.73-.63c.39-1.33.78-2.65,1.18-4l.71-2c.74-3,1.47-6,2.2-9l2.89,0,7,2C366.83,526.39,366.2,527.13,365.56,527.87Z"/><path class="cls-2" d="M350.18,513.44l-8-.41c-2.28-.27-5-4.91-6.72.62l-4-4.87,2-.2,3.06-.27,7-.65c2.69,1.54,5.18,1.94,7-1.24l5-.74,2-.72,2.1-.26c-.42,2.84-1,5.13-4.95,4.25C351.45,508.24,350.34,510.61,350.18,513.44Z"/><path class="cls-16" d="M500.26,532.64q.76,7,1.52,14l-4.28,0L495,535.8Z"/><path class="cls-2" d="M381.07,504.54l-2.5,1.44-3.18-3.39c-.13-.55-.26-1.1-.4-1.65a.46.46,0,0,1,.61,0l2.88-1.08,6-2.21,2.73,1.84c-.24,1-.48,2.08-.72,3.13l-4.14,1.59-.78-1.91C381.38,503,381.23,503.78,381.07,504.54Z"/><path class="cls-25" d="M331.2,529.65q.14,10,.26,20l-2-1c0-1.66,0-3.32,0-5l0-3c0-1.33,0-2.66,0-4,0-2,0-4,0-6Z"/><path class="cls-2" d="M373.44,513.69l-8.36,2.84c.85-4.91,4-7,8.39-5.88Z"/><path class="cls-16" d="M506.45,552.05l7.13-1.77c4.59,1.74,1.85,3.79.44,5.66Z"/><path class="cls-2" d="M357.56,521.63l-.21-1.76.12-2.22.93-1,4.07,1.33c-.8,1.45-1.41,2.55-2,3.65Z"/><path class="cls-2" d="M360.62,504.69l6.71-1.77.19,1.68-5.67,4.65Z"/><path class="cls-17" d="M335.48,513.65c1.75-5.53,4.44-.89,6.72-.62l-4.8,2.49Z"/><path class="cls-16" d="M506.82,518l-3.62-4.06,1.69-1.55,3.69,4C508,516.92,507.41,517.46,506.82,518Z"/><path class="cls-2" d="M331.2,529.65l-1.73,1c-.72-2.59-3.25-5.93,2.43-5.89C331.66,526.4,331.43,528,331.2,529.65Z"/><path class="cls-16" d="M513.49,559.71c-3.46,1.3-6.47.71-9-2.1Z"/><path class="cls-25" d="M350.45,570.81l7,1.79C354.51,574.45,352.14,574,350.45,570.81Z"/><path class="cls-11" d="M297.46,571.63l-5-1,3.26-3.66C296.51,569.1,297,570.37,297.46,571.63Z"/><path class="cls-17" d="M373.34,535.68c-.64-1.67-1.27-3.35-1.91-5l3.93,2.85Z"/><path class="cls-16" d="M516.45,504.94l5,.64c-1,.67-2,1.74-3.08,1.85C517.83,507.49,517.1,505.83,516.45,504.94Z"/><path class="cls-2" d="M329.47,543.64c0,1.66,0,3.32,0,5l-2-.65Z"/><path class="cls-16" d="M515.58,525.61c.45,1.29.89,2.58,1.34,3.88l-3.2-1.67Z"/><path class="cls-2" d="M334.17,518.86c-.44,1-.89,1.93-1.33,2.9l-3-.75-.1-1.28Z"/><path class="cls-16" d="M514.09,549.67c.4-1.35.81-2.71,1.21-4.07l2,1.6Z"/><path class="cls-25" d="M332.39,552.67q1,2.49,2,5C332,556.68,330.73,555.26,332.39,552.67Z"/><path class="cls-17" d="M367.52,504.6l-.19-1.68,5.13-1.25-2,2.94Z"/><path class="cls-23" d="M478,538.61l.15,5.06C475.61,542.05,475.77,540.36,478,538.61Z"/><path class="cls-16" d="M474.49,529.66c0-.35,0-.7,0-1,.61-.58,1.22-1.16,1.82-1.75l1,1.45Z"/><path class="cls-2" d="M329.46,536.64c0,1.33,0,2.66,0,4-.63-.58-1.89-1.35-1.78-1.72C327.91,538.05,328.82,537.39,329.46,536.64Z"/><path class="cls-25" d="M359.45,572.86l4,.84Z"/><path class="cls-16" d="M504.49,557.57l-2.93-3C505.4,552.77,504.17,555.93,504.49,557.57Z"/><path class="cls-2" d="M370.41,504.61l2-2.94,1-.38C373.24,503.13,374.06,505.93,370.41,504.61Z"/><path class="cls-23" d="M478.42,520.27l4,.37Z"/><path class="cls-16" d="M519.37,537.68c.37,1.32.73,2.64,1.1,4C520.1,540.32,519.74,539,519.37,537.68Z"/><path class="cls-16" d="M474.47,552.64l-1-4Z"/><path class="cls-16" d="M518.47,555.65l-3,3.12Z"/><path class="cls-25" d="M403.61,518.07l3.85-1.42Z"/><path class="cls-17" d="M357.56,521.63l2.9,0c0,.66,0,1.31,0,2l-2.89,0Z"/><path class="cls-16" d="M520.37,550.64l-1,3Z"/><path class="cls-23" d="M444.12,486.62l0,3.05C441.82,488.63,441.85,487.61,444.12,486.62Z"/><path class="cls-17" d="M365.56,527.87c.64-.74,1.27-1.48,1.91-2.21.33.63.66,1.26,1,1.89Z"/><path class="cls-17" d="M382.24,569.23l2.31,2.12-1.35.94-1-3,.23.13Z"/><path class="cls-25" d="M369.47,573.67l3-.81Z"/><path class="cls-17" d="M373.44,513.69l0-3,1.5.13c-.22,1-.43,1.91-.65,2.87Z"/><path class="cls-23" d="M484.47,561.62c.63.81,1.25,1.62,1.87,2.44C485.72,563.24,485.1,562.43,484.47,561.62Z"/><path class="cls-17" d="M371.44,530.67,369,527.82Z"/><path class="cls-17" d="M390.43,529.72l-2-1.1Z"/><path class="cls-16" d="M493.94,532.52l-1.63-2.82Z"/><path class="cls-23" d="M427.41,497.63l1,1-1.71,1Z"/><path class="cls-23" d="M445,496.85l1.16,2.82Z"/><path class="cls-23" d="M488.46,520.64l2.05-.27Z"/><path class="cls-16" d="M514.17,538.75l-.8-2.07Z"/><path class="cls-23" d="M453.49,509.59l2.59,1.8Z"/><path class="cls-16" d="M515.28,543.71l-.54-2.08Z"/><path class="cls-23" d="M478.36,545.68l.57,2Z"/><path class="cls-16" d="M501.84,546.83c.57.93,1.13,1.86,1.69,2.79C503,548.69,502.41,547.76,501.84,546.83Z"/><path class="cls-23" d="M480.44,553.65l.85,2Z"/><path class="cls-23" d="M481.8,556.94c.48.91,1,1.81,1.46,2.72C482.77,558.75,482.28,557.85,481.8,556.94Z"/><path class="cls-23" d="M473.43,519l2,.74Z"/><path class="cls-17" d="M339.09,568.39c-.12.28-.18.71-.37.78s-.54-.19-.81-.31c.12-.27.18-.7.37-.78S338.82,568.27,339.09,568.39Z"/><path class="cls-25" d="M343.47,567.57l2,1.13Z"/><path class="cls-17" d="M342.08,572.37c-.13.28-.19.71-.39.79s-.53-.2-.8-.32c.12-.28.18-.71.38-.78S341.8,572.25,342.08,572.37Z"/><path class="cls-17" d="M350.09,574.39c-.12.28-.18.71-.37.78s-.54-.19-.81-.31c.12-.27.18-.7.37-.78S349.82,574.28,350.09,574.39Z"/><path class="cls-17" d="M397.23,524h1.48v.38h-1.48Z"/><path class="cls-23" d="M425.3,502.57l1.09-2.06Z"/><path class="cls-17" d="M358.4,516.68l-.93,1Z"/><path class="cls-17" d="M375,500.94c.14.55.27,1.1.4,1.65l-.77-1.61Z"/><path class="cls-9" d="M486.45,387.65l-.4-.23.42.21Z"/><path class="cls-16" d="M445.41,478.65,444.6,480Z"/><path class="cls-17" d="M418.06,26.38c-.11.27-.17.69-.37.77a.81.81,0,0,1-.75-.33.81.81,0,0,1,.33-.76C417.46,26,417.79,26.26,418.06,26.38Z"/><path class="cls-17" d="M635.46,545.64h6C639.45,546.85,637.46,549.79,635.46,545.64Z"/><path class="cls-23" d="M579.93,567.09h-2.86v-.9h2.86Z"/><path class="cls-10" d="M255.46,554.65l-7-.11,2.35-3.87Z"/><path class="cls-22" d="M489.44,266.67l-1.92,0c-1.84-1.33-2-2.68,0-4.06C488.12,264,488.78,265.33,489.44,266.67Z"/><path class="cls-6" d="M322.41,488.26c.37,2.5.74,5,1.1,7.51l-2.93,1.93-6.11-.06,6-8c0-.47.07-.94.1-1.41Z"/><path class="cls-8" d="M314.47,497.64l6.11.06L317,503.48l-5.48-2.3Z"/><path class="cls-17" d="M320.56,488.21c0,.47-.07.94-.1,1.41l-9-2.71Z"/><path class="cls-17" d="M294.53,533.58l-2.07-2.92.48-3.53,1.59,0Z"/><path class="cls-6" d="M309.91,495v-4.71h1V495Z"/><path class="cls-17" d="M299.22,528.75l-1-3.34,1.54-.49c.38,1.06.77,2.12,1.15,3.19Z"/><path class="cls-17" d="M317.6,505.6l1.91,1.91-2.22.3C317.39,507.07,317.5,506.33,317.6,505.6Z"/><path class="cls-6" d="M302.65,488.66l1.3.65a4.47,4.47,0,0,1-1,1.13c-.15.09-.83-.38-.93-.7S302.37,489.08,302.65,488.66Z"/><path class="cls-1" d="M236.4,457.62l3.07-2c0,.67,0,1.34,0,2Z"/><path class="cls-17" d="M321.42,508.25l3,.39Z"/><path class="cls-17" d="M297.49,530.81l1.19.92c-.29.26-.66.8-.85.74a2.05,2.05,0,0,1-.91-.89C296.86,531.49,297.24,531.13,297.49,530.81Z"/><path class="cls-23" d="M230.06,474.38c-.12.27-.18.68-.37.76s-.52-.19-.79-.31c.12-.26.18-.68.37-.76S229.79,474.26,230.06,474.38Z"/><path class="cls-1" d="M229.71,479.28c-.27-.12-.7-.18-.78-.38s.19-.54.31-.81c.28.12.71.18.78.37S229.83,479,229.71,479.28Z"/><path class="cls-23" d="M224.48,471.5c0-.6,0-1.2,0-1.79Z"/><path class="cls-17" d="M239.46,457.64c0-.66,0-1.33,0-2h1c0,.67,0,1.34,0,2Z"/><path class="cls-14" d="M406.45,226.65h-6c.34-5.1.49-10.23,1.14-15.29.17-1.31,1.94-2.42,3-3.62,1,1.27,2.74,2.54,2.74,3.81C407.33,216.58,406.79,221.62,406.45,226.65Z"/><path class="cls-27" d="M335.5,649a32.51,32.51,0,0,0-4.91-.25c-4.79.48-6.41-1.6-5.3-6.13l1.16-1,10-.3c1.29.13,2.8-.12,3.83.46a22.68,22.68,0,0,1,3.84,3.46c-1.25,1.15-2.32,2.69-3.8,3.35S337.13,648.88,335.5,649Z"/><path class="cls-9" d="M336.46,641.3l-10,.3c.59-2.74,1.64-5.12,5.07-4.38C333.75,637.71,337.23,637.05,336.46,641.3Z"/><path class="cls-23" d="M503.45,572.93l6,.1C507.43,575.54,505.41,575.66,503.45,572.93Z"/><path class="cls-23" d="M542.55,531.61c-.22-1.66-.44-3.32-.67-5Z"/><path class="cls-23" d="M541.94,547.67c.23-1.33.45-2.65.68-4C542.39,545,542.17,546.34,541.94,547.67Z"/><path class="cls-2" d="M542.5,571.66l-2,1c.12-.84.24-1.69.35-2.53Z"/><path class="cls-23" d="M527.49,511.89l-2.06.05Z"/><path class="cls-23" d="M491.45,568.89l2.66,1.5Z"/><path class="cls-23" d="M541.61,524.6c-.14-.66-.27-1.33-.41-2C541.34,523.27,541.47,523.94,541.61,524.6Z"/><path class="cls-23" d="M495.45,570.9l2,.72Z"/><path class="cls-23" d="M517.52,571.83l2-.6Z"/><path class="cls-23" d="M499.43,572.23l2,.46Z"/><path class="cls-12" d="M404.38,262l-2.9,1.75-.84-1.4,2.92-1.72Z"/><path class="cls-3" d="M335.46,22.64l-.21.42.21-.41Z"/><path class="cls-7" d="M176.91,183l-.2-.3.46-.25a.85.85,0,0,1,0,.38C177.18,182.88,177,182.92,176.91,183Z"/><path class="cls-10" d="M275.45,562.67l2,1Z"/><path class="cls-17" d="M329.48,486.94l-2,.8Z"/><path class="cls-2" d="M395.25,490.87q1.1,3.81,2.2,7.62l-1.21.58-2.8,1.24-2.76,1-1.17-6.56Z"/><path class="cls-17" d="M389.51,494.77l1.17,6.56-4.22,1.27c.24-1.05.48-2.11.72-3.13l-2.73-1.84Z"/><path class="cls-17" d="M350.51,506.42c-1.86,3.18-4.35,2.78-7,1.24Z"/><path class="cls-17" d="M336.5,508.31l-3.06.27Z"/><path class="cls-17" d="M378.48,499.84l-2.88,1.08Z"/><path class="cls-17" d="M357.49,505l-2,.72Z"/><path class="cls-2" d="M400.54,496.68l-1.84-2.94c.64-.34,1.71-1.1,1.85-1a17.51,17.51,0,0,1,1.86,2.68Z"/><path class="cls-17" d="M393.44,500.31l2.8-1.24Z"/><path class="cls-17" d="M381.07,504.54c.16-.76.31-1.51.47-2.26l.78,1.91Z"/><path class="cls-6" d="M289.46,471.65l-2,3Z"/><path class="cls-9" d="M502.27,408.87c-4-4.82-3.11-9.42,2.14-11.23Q503.35,403.25,502.27,408.87Z"/><path class="cls-9" d="M500.75,414.73l-1.92-1.56,3-2.52C501.46,412,501.1,413.37,500.75,414.73Z"/><path class="cls-8" d="M554.27,489.72c-.57.35-1,.82-1.26.72-.44-.22-.73-.72-1.09-1.11.41-.17.83-.49,1.22-.46S553.78,489.33,554.27,489.72Z"/><path class="cls-17" d="M355.36,532.61l-.71,2C354.89,534,355.13,533.29,355.36,532.61Z"/><path class="cls-17" d="M359.56,539.67,358,536.33l2.77-.57C360.34,537.06,360,538.37,359.56,539.67Z"/><path class="cls-17" d="M362.76,531.74l-3.06-1.1,1.32-1.7,3.71-.18Z"/></g></g></svg>