<svg xmlns="http://www.w3.org/2000/svg" viewBox="0 0 899 797"><defs><style>.cls-1{fill:#fdfdfd;}.cls-2{fill:#9e8256;}.cls-3{fill:#a6895c;}.cls-4{fill:#977a4c;}.cls-5{fill:#ad9164;}.cls-6{fill:#a78d62;}.cls-7{fill:#9d8660;}.cls-8{fill:#8e7245;}.cls-9{fill:#a79272;}.cls-10{fill:#575359;}.cls-11{fill:#2c292e;}.cls-12{fill:#b5a489;}.cls-13{fill:#25252a;}.cls-14{fill:#2c2b30;}.cls-15{fill:#201e21;}.cls-16{fill:#1d1c20;}.cls-17{fill:#121113;}.cls-18{fill:#222023;}.cls-19{fill:#141316;}.cls-20{fill:#222126;}.cls-21{fill:#161316;}.cls-22{fill:#f4f4f4;}.cls-23{fill:#181619;}.cls-24{fill:#f6f6f6;}.cls-25{fill:#f9f9f9;}.cls-26{fill:#151316;}.cls-27{fill:#211c1e;}.cls-28{fill:#151315;}</style></defs><g id="Layer_2" data-name="Layer 2"><g id="Layer_1-2" data-name="Layer 1"><path class="cls-1" d="M0,797V0H899V797ZM216.83,603.13l2.2,1.49,1.31.65L234,608.48l7.94,0,5.06-.06,12.06.21L282,614.91l1.76,1.18c7.92,6,16.76,9.93,26.65,10.66,9.5.7,19.06.58,28.59.83l3.05.15c13.44,5.52,27.24,8.58,41.85,6.06l2-.27,14.32-6.4,1.66-1.26,3-2.86,1-1.18c7.82-8.54,9.59-18.67,7.81-29.74l-.45-6,.66-5,6-2.51,4.76-2.14,8.22-4.54,2.68-1.92,4.47-3.67,1.85-2.23,6-11.1,3,.31,2.36,5.79,1.8,2.8q3.51,3.59,7,7.18l2.89,2,.12.27h.29L468,573l.11.27.29,0,4.63,2.39,3,1.21,9,4,.06.07c-.06,2.69-.11,5.37-.17,8.06l-.09,3,.06,9q1.41,5.85,2.8,11.71,1.74,3.14,3.46,6.27c.59.75,1.17,1.5,1.76,2.24,1.28,1.31,2.57,2.61,3.85,3.91l3,2.21-.08-.06A14.28,14.28,0,0,0,502,629c15.48,7.44,30.95,4.79,46.71.6,8.38-2.23,17.24-2.69,25.9-3.79,4.09-.52,8.23-.67,12.34-1l2-.1c8.36-1,16.15-3.55,22.92-8.76l.06-.05c7.85-5.33,16.89-7.3,26-9.13l24-.23,10-1.7,9-4.13,2.2-1.62,6.82-9.14c1.12-1.26,2.25-2.52,3.37-3.79.36.09.57,0,.62-.41l15.92-6,4.07-.11,12.94-2.87,3.05-.55,10.77-2.85,2.24-.91a48.45,48.45,0,0,1,21.71-4.11c8.1.38,16.23.14,24.35.17l1.93-.14,2.21-1.22,0,0,0-4.55-3.48-2.91-17.72-2-3-.47-4.94-2-2.64-1.44q-1.65-1.47-3.28-3l-.52-.86L755.41,533c.31-1.08.63-2.16.94-3.24l1.43-2.73,3.21-3.11,12.92-3.17,2.06-.13,11.83-2.66.13-.12c2-2.8,1.69-4.27-1.78-4.5-4.31-.3-8.71.56-13.07.93l-4.14,0-11-3.15-6.64-8c-1.06-6.15-2.91-7.39-8.15-5.48l-3,4.51q-2.49,7.51-5,15l-3.19,2.68-2.83.72-3.18,1.06-2.74,1.1-7.4,5.17L714.15,530c-.23.4-.45.81-.67,1.21l-.24,2.69c.7.81,1.4,1.61,2.09,2.42l3.59.42,4-.57,3.12.15,3,.5,5,2q2.88,3.52,5.77,7.06l.5,2c.1,1.79.19,3.58.29,5.37l-.66,2.78-4.89,7-2.33,1.78-6.65,3.06-2,.3-2,.55-2,.51-9.19.05-9-.66-5.88,0-3,.6-2,.59c-3.74-.3-4.74,2.3-5.48,5.17l-.93,2.22-2.3,4.75-1.54,2.52L678.06,588l0,0-3.28,2.83-4.69,2.78c-10.65,1.41-21.31,2.79-31.95,4.24-8.76,1.2-17.38,2.8-24.46,8.72-8.76,4.57-17.68,8.7-27.69,9.74H584l-10.16-1.8-2.18-.85-4.57-4q.6-3.56,1.19-7.1L570,597c-.07-2.32-.13-4.65-.2-7-.13-1-.25-2-.37-3-.22-1.66-.43-3.31-.64-5,0-1,0-2.08,0-3.11.29-1.33.57-2.66.86-4,4-5.24,7.78-4.92,11.8,1,.58,2.67,1.17,5.33,1.75,8l1,3c2.11,3.78,3.86.51,5.73-.3l2-.52,9.14,1.15,2.21,1.13,2.85,1.08,3.64-5.57,1.91-5,5.28-6.32,5.95-1.94,2-.27,6.34-2.29,5.19-7.32,7.39-13.88.09-.06,10-5.91,0,0,11.95-6.17,2-.46,4-.54,3,.09h3.4c.1-.34.2-.68.29-1L674,530.35a.53.53,0,0,0-.73-.45L671,528.16l-.17-.35-.38,0-3.24-2.35-.12-.39-.4-.06L664,522.88l-5.65-5-2.22-2.19L651.93,511l-2.81-3.32L645.91,503l-1.74-2.45L642.73,498l-1.11-2.26a.54.54,0,0,0-.44-.75l-4.43-12.92c-.16-.68-.33-1.37-.49-2,.07-10.12-.35-20.27.39-30.34.56-7.48-1-9.45-8.11-6.5-4.31,1.79-7.91,1.68-11.65-1-3.3-2.33-6-1.91-9.2,1-6.5,5.9-15.1,2.64-16.81-6a12.93,12.93,0,0,0-.93-3.85c-.68-1.17-1.94-2.77-3-2.78s-2.74,1.45-3.11,2.6a23.79,23.79,0,0,0-1.06,7.27c0,6.79-1.23,12.66-7.55,16.84-4.2,2.78-3.38,6.38,1.41,8,1.82.61,4,.17,5.89.6,2.54.56,5.37,1,7.4,2.41,4.1,2.92,6.11,2.47,7.32-2.49a44.8,44.8,0,0,0,1-4.4c1.06-7.39,4.9-10.77,12.67-11.09,7-.27,10.83,3,12.24,10.27a24,24,0,0,0,1.1,3.26l0,18.16c-.3,1-.59,2-.89,2.95l-.57,3.36c-1.08,2.48-2.16,4.95-3.25,7.43l-1.65,2.84c-.6.79-1.19,1.58-1.78,2.38l-3.19,3.72-5.17,5.13-3.76,3-4.76,2.68-1.19.55-4,1.09-3,.36-2.07.13-5-.52c-12.87-3.88-25.72-7.87-38.64-11.59-8.35-2.4-13.18-7.85-15.53-16-3.35-11.61-1.78-23.2.56-34.6,3.93-19.12,10.85-37.29,19.57-54.74,6-12,16.46-17.05,29.65-14.85,10.52,1.76,21,2.68,31.78,1.21a98.53,98.53,0,0,1,24.86.21c16.48,2,30.76,9.82,43.55,19.84,16,12.58,33.83,16.37,53.77,14.94,18.74-1.34,37.64-1.9,56.27,1.58,10.38,1.93,19-1.58,27-7.42,1.05-.77,2.36-2.82,2-3.5a5.12,5.12,0,0,0-3.68-2.53c-6.64-.15-13.38-.54-19.93.32-27.33,3.59-54.62,5.39-81.92-.07-14.39-2.88-27.87-8.16-39.06-17.79-12.49-10.76-26.5-16.2-43-15.2-15.11.91-29.8-1.57-44.3-5.75A37,37,0,0,0,548,384c-1.36,1.41-3,2.64-4,4.27-4.74,7.63-9.76,15-17.16,20.34l-4,3.7-.76.57-5.34,3.8.35.16-.34-.17c-4.15,2.06-8.35,4-12.42,6.2A18.12,18.12,0,0,0,494.8,435l-.34.82c-1.52,4.71-2.62,9.62-4.66,14.09-7.71,16.92-15.74,33.69-23.65,50.52l-2.34,4.48q-2.55,4.51-5.12,9l-4.49,9.84c-.38,1.07-.75,2.13-1.13,3.19-.52,1.36-1,2.71-1.57,4.06,0,.41-.08.81-.13,1.21l-.05.33-4,1h0c-2.13-5.9-3.71-12.08-6.51-17.65-7.23-14.4-15.45-28.32-22.4-42.85-5.27-11-9.36-22.63-13.64-34.11-2.83-7.59-6.67-13.87-14.44-17.52-14.66-6.89-27-16.41-35.82-30.57-10-16-27.05-23.57-43.58-19-17.67,4.89-35.51,6.72-53.74,6.55-11.61-.11-22,4.4-30.52,11.88a96.91,96.91,0,0,1-51,23.29c-24.12,3.44-48.43,2.59-72.64-.64a125.53,125.53,0,0,0-19.39-.94c-2.49.05-4.95,1.89-7.43,2.91,1.9,2.1,3.43,4.83,5.76,6.2,9.08,5.34,18.52,5.6,29.19,4.37,17.23-2,34.82-1.5,52.24-1.12,16.26.35,31.94-.52,45.75-10.39,5-3.58,10-7.16,15.12-10.58,16-10.67,33.35-17.66,52.86-16.05,13.78,1.14,27.34,1.78,41.1-.48,14.59-2.4,23.73,2.46,29.47,16.15a500.17,500.17,0,0,1,17.94,48.4c3.59,11.84,5.11,24.31,2.55,36.94-1.76,8.69-7.16,15.16-15.56,17.63-9.71,2.85-19.47,5.65-28.94,9.18-14.68,5.49-27.34,3.69-37.8-8.62A12.74,12.74,0,0,0,284,505.1l-2-2.1-1.82-2.43,0-.38-.33-.18c-6.77-12.3-8.39-25.25-5.29-38.95,1.55-6.87,4.91-9.35,13.06-8.74,7.46.55,11.07,4,11.51,10.46a16.3,16.3,0,0,0,1.87,7c.56,1,3.94,1.62,4.57,1,3.67-3.76,8.09-3.66,12.79-3.9,2.23-.11,4.78-2,6.25-3.81.49-.6-1.49-4.23-3.12-5.31-4.84-3.24-6.56-7.64-6.57-13.16,0-3,.1-6.08-.74-8.85-.49-1.62-2.75-2.7-4.21-4a36.41,36.41,0,0,0-3.89,4.58c-.54.87-.1,2.29-.32,3.43-.81,4.2-3.16,6.7-7.66,7.13-4.3.4-7.69-1.25-10.75-4L285,442l-6,2.22L272,445.82l-3.29-1.1-3.76-1-1,0c-3.84-.89-4.17,1.68-3.94,4.3.59,6.68,1.38,13.34,2.08,20,0,.66,0,1.32,0,2a77.22,77.22,0,0,1-10.23,33.9l0,0L246.11,512c-.35.37-.69.75-1,1.12-1.79,1.91-3.59,3.81-5.38,5.71l-2.83,2.83q-2.52,2.09-5,4.19l.05,0-13.43,9.23,20.6,4.71,2.36,1.44,8.58,5.69,1.17.56L255,550h0l6.68,13.68.21.33,2.23,3.71.2.21c3.1,1.64,6.06,4.19,9.33,4.71a18.24,18.24,0,0,1,12.15,6.87c.22.48.43,1,.64,1.44a57.31,57.31,0,0,0,2,7c.94,2.2,2.07,4.94,5.36,2.49l1.16-.54,2-1,2-.74c2.31,0,4.63-.2,6.92,0,2.67.22,6.44,2,7.7.88,1.87-1.68,2-5.34,2.78-8.18a12.12,12.12,0,0,0,.23-1.93c.77-1.7,1.55-3.4,2.32-5.11l2-1c3.66,0,7,.4,7.51,5.06l.18,2.06c0,1.37,0,2.74,0,4.11l-.27,5.14c-.07,1.61-.15,3.23-.22,4.84,0,1.29,0,2.58.05,3.87.14,1,.27,2,.41,3l1.08,2.7c2.5,6.72,2.37,7.05-4.67,11.82-9.52,3.51-18.81,1.54-28.06-1.2l-1.41-.5L286,608.93l-.38-.19-2.65-1.5-1.25-.58L270,601.76l-3.07-.42c-2-.54-4.05-1.4-6.12-1.54-7.26-.49-14.54-.73-21.82-1.06l-4.06-.4-7.91-3-2.52-1.48-2.47-1.7-.14-.33-.36,0-2.34-2.17q-4.47-7.86-9-15.73c-3.41-1.26-6.77-3.45-10.23-3.61-9.64-.45-19.32-.06-29,0l-11.17-7.24c-1-2.32-2-4.65-3-7l1.35-8.7c.58-.79,1.16-1.58,1.73-2.38l2.07-2.15,2.48-1.67,1.53-.72,1.92-.79a106.32,106.32,0,0,0,10.86,0c1.88-.18,5.1-1.27,5.21-2.24.23-2-1.17-4.28-1.91-6.45L180,529.09l-8-4.87-2-.78A13,13,0,0,1,159.71,516l-1-1.93-.41-2.06-.65-1.92a29.08,29.08,0,0,1-.56-4.87c.19-3.74-1.88-5.54-5.15-6-3.7-.55-6,1.09-6.37,5l-1.2,2.78-.57,1.61c-.62.78-1.24,1.57-1.85,2.36l-8,4.83-6.95,1.43-5.2.08-3.92-.86-2-.31h-4.89l-3.18,1.55.14,3a.48.48,0,0,0,.67.41l7.34,2.32,2,.34,9,.69,3.05.28,2.95.81c5.34,2.42,7.51,7.1,8.83,12.38l-.05,8.09c-.19.68-.37,1.36-.55,2L139.34,553a.59.59,0,0,0-.42.78l-2.08,2.13L133,558.37l-2,.79-5,1.41-4.94.68-2.06.32-4.93.7L105,563.93c-2.11,2-4.54,4-.94,6.76a.5.5,0,0,0,.7.43l7.13.49,4.11-.28c2,0,4,.15,5.92.11,10.91-.21,21.93-1.29,32.14,4.06l2.16,1c6.05,1.51,12.11,3,18.14,4.54,9.52,2.49,20,1,28.68,6.92l.12.3.33,0,2.47,2c.46.57.92,1.15,1.39,1.72.75,1.3,1.51,2.59,2.27,3.89q2.25,2.58,4.49,5.18l2.81,2.2ZM580,316.05l-4.1-.45-2.9-.45-2.09-.39-4.87-.29c-2.13-.27-4.26-.65-6.4-.79q-26.32-1.62-52.65-3.17l-2.94-.06-4.07-.11-4-.15-5-.06h-2l-25-.56h-3l-35,.51-25,.25-14,.78-3,.16-2.06.15-4.93.32-3,.27-8,.4-15.09,1-1.9.17-4,.41-8,.47-4,.53-5,.33L310,318l-4,.39L285,322l-2,.16L248,329.9l-18.7,3.66.28,1.48L248,331.82c6.67-.79,13.36-1.5,20-2.4,5.94-.82,6.77.05,5.8,5.92-.9,5.4-1.48,10.85-2.35,17.38,3.28-1.68,5.56-2.85,7.83-4l2.69-1,10.19-4.64,3.8-2.16,2.06-.84,5-2.07,14,4.11,4,2,9,4a.51.51,0,0,0,.51.3l7.44,4.1,1.29-.86L337.83,346l-.32-3.92L337,339l-.32-2.94c-.24-1.35-.48-2.7-.73-4.06.07-2.91.13-5.83.19-8.74l4.85-.74,3.13,0,22.84-.35,2.15.14,2.92-.12,5-.12,19.07-.26c1,1.14,2.67,2.15,3,3.46.47,2.15.07,4.49,0,6.75l-.38,2.12c-.21,1.63-.42,3.26-.62,4.89l-2.94,18.27,1.62.86,8.76-5.76c2.6-1.32,5.23-2.59,7.79-4,10.18-5.54,20.41-11,30.47-16.74,3.48-2,6.36-1.74,9.74.12,7.24,4,14.64,7.63,22,11.41l14.44,8,6.12,3.64,6,2.9c-.89-4.16-1.49-6.95-2.09-9.74q-.28-3-.58-5.92c-.12-1-.24-2.07-.37-3.1s-.21-1.95-.32-2.93l-.71-4.06-.63-4.92c0-3.87,2.19-5.54,5.85-5.66l6.82.17,43.06.31,1.94-.05,5.11.1c.11,2.92.43,5.86.27,8.78-.23,4.44-.79,8.87-1.22,13.3L559,346c-.27,1.58-.55,3.15-1.06,6.07l5.39-2.82a.71.71,0,0,0,.64-.19l2.14-2,9.88-4,3.5-1.74,8.41-3.63,2-.91,3.09,0,4,1.91,7.4,2.64,2.59,1.35,4.72,2,12.1,6.63,1.32-1c-.44-2.1-.87-4.19-1.31-6.29l-.36-3q-.32-6.56-.62-13.12l.05-.06,3.12-.32,2.95.32c1.56.36,3.12.83,4.7,1.06,7,1,14,1.94,20.95,2.9L664,333.1c.09-.66.17-1.31.25-2L656.94,330c-5.65-.8-11.34-1.4-16.93-2.48-3.45-.67-6.75-2.08-10.12-3.15l-1.92-.26-8-1.8L618,322l-2.11-.42L612,321l-4.08-.64L600,319.05l-8.06-1.66-9.81-1.05ZM290.06,283.1l-2,1-3.89.61-5.13.31-1.9.3L273,286l-2.91.3L263,287l-4.86.62L256,288l-2.88.31L251,289.56l2,2.48c6,6.09,11.87,12.25,18,18.19,1.24,1.21,3.27,1.62,4.94,2.39L278,312c19.79-3.13,39.61-6.1,59.37-9.48,5.32-.91,11.65.69,15.55-4.92l3.33-3.5L358,292c2.64-1.79,2.3-3.22-.74-3.57a70.15,70.15,0,0,0-8.33,0l-4.89-.09L323,287.25,316.83,277l-1.5-2.63L307.06,256,304.67,250l-1.23-.06-1.17,3.08q-.84,2.65-1.67,5.3L299.32,261l-3.66,10.53-1.36,2.53-.76,2.4-3.44,6.56Zm-85.27-176-2.52-2.42,0,0L192,100.41l-2.94.08-29.84,12.06-1.18.57-31,13-3,1.44c-2.94.78-6.94,1-5.61,5.49,1.19,4.07,3.36,7.85,5.09,11.76l.54,1.17c.85,1.92,1.71,3.84,2.56,5.77l1.46,3.2q1.75,3.92,3.49,7.83l.52,1.19,1.55,3.77.1.28,2.92,6.71q1.2,3.12,2.42,6.24l4.51,10.75L144,193l1.62,3.7.56,1.28c4,9.78,7.9,19.59,12,29.33,2.41,5.74,5.09,11.37,7.65,17.05a.4.4,0,0,0,.25.63c.24,3.78,2.56,3.22,4.92,2.27,6.29-2.55,12.52-5.25,18.84-7.72,2.39-.94,3.1-2.32,2.07-4.57-3.14-6.91-6.33-13.81-9.5-20.71-.28-.74-.55-1.48-.82-2.23-2.09-5.41-4-10.9-6.33-16.2-1.78-4-.71-6.2,3.24-7.69,3.23-1.21,6.31-2.82,9.46-4.24l2-1c3.21-1.21,6.44-2.37,9.64-3.64,6.07-2.4,6.21-2.34,8.79,3.46.8,1.78,1.79,3.48,2.7,5.22l2.23,6,1.39,2.69.44,1.32c3.12,7.61,6.31,15.2,9.33,22.85,1.11,2.78,2.65,3.36,5.38,2.2,6.22-2.66,12.61-5,18.75-7.8,1.18-.55,2.51-3.23,2.11-4.32-2-5.41-4.5-10.61-6.83-15.89-.43-1-.85-2-1.28-3q-3.91-9-7.82-18L233,171,229,166.93,224.9,164c-1.07-.7-2.06-1.8-3.23-2-5.32-1-5.42-3.41-3.53-8.09,1.56-3.86,1.14-8.51,1.59-12.82-.13-.68-.27-1.37-.41-2.05q-2.32-6.75-4.67-13.5a.48.48,0,0,0-.21-.47V125l-.37-1-1.68-3.77L210.9,117c-.57-1.19-1.13-2.39-1.7-3.58l0-.31-.28-.13-4-5.79Zm440,111.35c-1.17,1.55-3.17,3.14.23,4.45l.17.35.37,0,4.86,2.35.13.05,8.49,4,1.25.74,2.74,1.33,1.39.56c5.58,3.76,4.87-1.85,6.32-4.25.2-.42.41-.84.61-1.27.48-.9.95-1.81,1.43-2.72l3.57-7.27c.47-.91.93-1.82,1.39-2.73l.54-1.35,1.39-2.66.53-1.49,2.43-4.51c2-4,4.25-7.91,6.08-12,1.33-3,2.92-3.54,5.81-2.07,7.55,3.86,15.12,7.71,22.84,11.21,4.17,1.89,4.29,4.24,2.45,7.89-6.16,12.16-12.06,24.45-18.24,36.6-1.53,3-1.3,4.66,2,6.12,5.78,2.54,11.47,5.32,17,8.34,3.25,1.76,4.93,1.34,6.54-2.12,4.2-9,8.48-18.06,13.22-26.82,5-9.22,7.25-18.5,3-28.58-1-2.34-.48-3.67,2.27-4.23,9.81-2,15.11-8.92,18.76-17.57l1.37-2.76,1.53-3.33L768.6,172q2.61-7,5.23-14c0-1.62,0-3.25,0-4.88l-1.29-5-1.35-2.53c-1.81-5-6.26-6.83-10.66-8.7L750,131.48c-2.92-1.54-5.8-3.15-8.77-4.6q-18.48-9-37-18c-4.72-3.26-5.13-3-7.94,4.1l-.53,1.31L694.23,117c-.18.42-.37.84-.56,1.26-.76,1.59-1.51,3.17-2.27,4.75l-1.34,3-1,2c-.19.38-.37.77-.56,1.15L687.16,132c-.51,1.09-1,2.17-1.52,3.25L684.26,138l-.53,1.33L682.4,142q-1,2.07-1.91,4.14L679.17,149l-.64,1.18L677.07,153,663.6,180.23,662.23,183l-.54,1.29c-.44.9-.87,1.81-1.31,2.72q-1.83,3.66-3.64,7.32l-5.1,10.51-1.81,3.69-3.21,6.31Zm-99.46-27.1,1-3.37c.11-1.65.21-3.3.32-5v-1l.24-5,.69-3q.63-8,1.25-16c.26-1.32.51-2.64.77-3.95l.36-5,.24-6,.66-4,.63-3c.13-3.67.27-7.35.4-11,.19-1,.39-2,.58-3l.39-2,.43-3q.3-6,.61-12l.75-3,.24-2c.1-1,.19-2,.29-3l.57-10c.27-1,.53-2,.79-2.93s.23-2,.34-3c.17-3.66.34-7.31.52-11l.43-2c.8-2.07,1.76-4.21-1.83-4.49l-4.06-.19L534,61.47c-1.69-.48-3.74-1.82-3.85,1.57l-1.74,12c-.08,3.34-.17,6.68-.25,10l-1.29,8q-.29,6-.56,12l-5.3,4.22-9.05-.11-17-1.6-3.07-.34-2.59-3q.27-6.13.52-12.29l.87-6,.21-9c.17-1,.35-2,.52-3,.14-.68.28-1.35.41-2l.63-5c.95-13.5.78-10.44-9.63-10.81-1.31,0-2.62,0-3.93.08l-2.94-.8-2-.24c-8.19-1.59-9-1.29-10.1,6.55-.92,6.69-1,13.5-1.52,20.26-.07,1-.13,2-.2,3l-.72,11c-.11.68-.21,1.35-.32,2-.23,1.32-.45,2.65-.68,4l-.36,11q-.83,8-1.67,16c-.11,1.34-.23,2.67-.35,4l-1.77,19c-.08.67-.15,1.34-.23,2-.15,2-.29,4-.44,6-.13,2.35-.27,4.7-.4,7.05-.49,2.24-1.36,4.46-1.41,6.71-.28,12.72-2.34,10.71,10.18,10.7l2,.3,4,.82,4,.21c7,.9,7,.9,7.34-4.85l.39-2c.18-1.65.35-3.3.53-5l.54-10c.3-2,.61-4,.92-6,.05-1.67.11-3.34.17-5,.11-2,.21-4,.32-6l.4-2.09.95-4.9c.08-1.35.17-2.69.26-4L492,134.4l10.07.31c5.21.62,10.43,1.08,15.6,1.93,1.9.31,3.65,1.51,5.47,2.3l0,2.1q-.71,6-1.4,12-.22,3.54-.44,7.06L519.75,175l-.57,4c-.25,1-.51,2-.76,3-.09.68-.17,1.36-.25,2,.19,1.75.38,3.49.58,5.24v0l6.27,1.23,11,.32,9.32.44-.28-.22ZM458.8,216l-1.53-2.67c-.16-.44-.32-.89-.49-1.33-2.73-5.69-5.46-11.37-8.73-18.2-2.08,3.94-3.45,6.37-4.67,8.88q-9.87,20.33-19.67,40.69c-2.77,1.29-5.44,2.9-8.33,3.79-4,1.24-8.24,1.94-12.38,2.87l-2.94.46-37.15,6.92c.46,1.32.48,1.93.8,2.19,13.71,11.33,27.36,22.73,41.26,33.82,1.82,1.45,4.89,1.72,7.41,1.84,6.27.33,12.57.38,18.85.31,10.26-.13,20.52-.45,30.77-.68h5l7-.1,5-.12h8L499,287l4-3,9.05-7.81L516,273l17.43-14.32-.48-2-38-6.58-6.29-.76L485,248.21,479,247l-5-2.08L459.37,217.3Zm13.36,493.08q.06-4.12.1-8.25c-1.24-.43-2.47-1.21-3.71-1.22-6.78-.08-13.57.18-20.34-.06-1.49,0-2.94-1.63-4.4-2.5,1.41-.76,2.79-2.12,4.23-2.17,6.93-.24,13.89,0,20.83-.22,1.26,0,2.49-1.17,3.73-1.79-.05-3.58-.11-7.15-.16-10.73-1.32-.74-2.63-2.11-3.95-2.13-11.91-.1-23.81,0-35.72.17-1.34,0-2.66,1.1-4,1.69Q428.87,706,429,730c4.61.32,9.22.72,13.83.81.32,0,.93-2.26,1-3.48.1-4,.16-8-.08-11.91s1.46-5.22,5.27-5.12c6.44.18,12.9,0,19.35-.11A16.09,16.09,0,0,0,472.16,709.09ZM356.94,714a53.31,53.31,0,0,0-.22,6.31c.28,3.54.84,7.06,1.28,10.59l9,.37c3.52,1.19,4.77-.09,4.69-3.76-.23-11.59-.19-23.19-.36-34.79-.08-5.66-5.24-11.61-10.88-11.74-9.08-.21-18.18.24-27.27.41-7,1.17-9.23,3.63-9.8,10.71l-.24,1.82c-.16,10.08-.44,20.16-.44,30.25,0,8.12.14,8.12,8.36,7.55a5.69,5.69,0,0,0,.95-.28c4.7,1.35,6.33-.61,5.82-5.21-.35-3.06-.38-6.16-.56-9.25q.87-2.29,1.73-4.58l16-.23ZM589,304.94l2,.44,6,.46,2,.55,3,.48,2,.42,3,.67,4,.8,4,1.26,2,.39c4.08,2.27,7.38.36,10.14-2.34,3.83-3.75,7.3-7.88,10.92-11.84l2-2.2,1-1,2.12-2,3.42-3.71c-3.12-.51-5.19-.93-7.28-1.18-9.55-1.09-19.11-2-28.62-3.32-2-.28-4.84-1.59-5.61-3.22-3.62-7.73-6.66-15.74-9.9-23.65l-2.24-6.92a272.28,272.28,0,0,0-15.63,31.49c-1.74,4.15-4.07,6.16-8.4,6.28-4.17.11-8.33.27-12.48.55-6.33.44-12.64,1-20.33,1.62,6.16,6.41,10,13.2,19,11.71l9,1.22,4,.57,7,.35,3,.63,4,.41,4,.64ZM411.46,151l-.72-13.94-.33-2.05c-.16-1-.33-2-.49-3l-.33-9c-.29-3-.57-6-.86-8.94-.18-.68-.35-1.36-.53-2s-.22-1.33-.32-2c-.08-3-.16-6-.23-9a68,68,0,0,0-.61-8.35c-.63-3.31-.07-5,3.75-5.11,2.73-.1,5.42-1.17,8.13-1.81l12-.22c3.15.75,4.79-.12,4.31-3.71-.34-2.6-.38-5.23-.56-7.85l-.06-5c-.53-4.75-.95-9.51-1.71-14.22-.1-.63-1.94-1-3-1.45H427L406,55.28l-2.93.21-4,.74-10,.55-12,1.5-4,.38-18,1.48-5,.18c-4.62-1.17-6,1.06-5.65,5.28.55,5.76,1.38,11.5,1.59,17.27.38,10.48,1.77,11.5,11.94,7.86l12-.21c2.53.73,6.67-2.12,7,3.51.4,7.92,1.09,15.82,1.8,23.71.25,2.76.94,5.48,1.43,8.22l.25,3,1.77,19c.08,1,.16,2,.23,3q1.11,16.56,2.24,33.13c.17,2.52,1.25,3.95,4.13,3.66,7.24-.73,14.49-1.4,21.75-1.92,3.62-.26,5.07-2,4.39-5.48-.35-1.76-.8-3.5-1.2-5.25l-.42-2.06q-.75-9.48-1.51-19C411.67,153.07,411.57,152.05,411.46,151ZM115.28,197.58c.52-12.12-6.62-23.81-15.55-33.59s-20.25-11-31.42-4q-25.65,16-51,32.36c-6,3.83-5.89,4.15-2,10.1q32.22,49.35,64.34,98.75c1.8,2.78,3.28,3.25,6,1.49,17.28-11.3,34.68-22.4,51.89-33.81,9.63-6.39,14.58-17.9,10.61-28.79-3.11-8.55-8.66-16.32-13.81-24-3.53-5.24-9.13-8-15.5-9.16-1.36-.25-2.8-2.37-3.36-3.93S115.28,199.41,115.28,197.58ZM346.76,168l-.9-.36a84.07,84.07,0,0,0-1-9.41q-4.14-19-8.63-37.87c-2.7-11.3-4.7-22.88-8.66-33.73-6.26-17.15-17.72-19.91-32.52-17-11.54,2.3-22.88,5.77-34.49,7.54-21,3.2-26.4,21.42-23.64,35.13,3.63,18.07,7.53,36.09,11.89,54a180.7,180.7,0,0,0,8.73,26.89c3.54,8.47,13.81,14.57,20.57,13.13q26.25-5.58,52.4-11.6A15.69,15.69,0,0,0,341.73,185C343.86,179.5,345.12,173.7,346.76,168Zm406.08,75.62c-6.15,7.45-11.82,14.4-17.58,21.28-2,2.36-1.36,3.93.86,5.8,18.32,15.43,36.5,31,54.91,46.35,2.11,1.75,5.34,2.6,8.16,3,6.31.78,11.64-2.29,15.49-6.68,9.19-10.51,18.2-21.22,26.48-32.45,5.62-7.63,4.24-17.1-2.7-23.42-8.85-8.05-18.07-15.72-27.34-23.3-8.21-6.72-8.34-6.57-1.88-14.64,5-6.28,5-6.25,11-1.1q17.65,15.07,35.39,30c1.47,1.24,3,3.81,5.35,1.08,6-7.1,12.11-14.17,17.91-21.47.7-.87.35-3.61-.52-4.51-2.88-3-6.22-5.5-9.4-8.19-12.81-10.86-25.59-21.78-38.47-32.58-10.45-8.76-18.39-7.68-27.8,1.63-9.75,9.64-17.92,21-26,32.16-5.36,7.38-4.82,21.59,4.39,28.27,9.81,7.11,18.52,15.71,27.87,23.48,3.18,2.64,3.37,4.93.64,7.87-2.47,2.65-4.77,5.45-7.65,8.77Zm-93.1-117.81c2.93-10.08,5.87-19.74,8.4-29.51.27-1-1.59-3.58-2.88-4-23.53-6.81-47.13-13.38-70.69-20-3.1-.88-4.61-.55-5.61,3.17-5.73,21.3-11.85,42.5-17.8,63.75-4.87,17.42-9.57,34.9-14.65,52.27-1.23,4.22.6,5.21,4,6.1,17.33,4.58,34.64,9.27,51.95,14,7.14,1.93,14.26,3.93,21.68,6,2.67-9.6,4.89-18.63,7.76-27.45,1.49-4.61-.52-5.82-4.28-6.81-11.69-3.08-23.29-6.52-35-9.48-14.67-3.71-10.14-3.28-7.53-14.84a2,2,0,0,1,.19-.46c1.22-3.09,2.93-4.14,6.56-3.1,15.11,4.36,30.33,8.33,46.12,12.61,2.17-7.47,4.12-14.65,6.37-21.72,1-3.15-.38-4.24-3-5q-18-4.89-35.94-9.83c-11.84-3.27-11.79-3.28-8.24-15.13,1.13-3.77,3-4.94,7-3.74C629,117.13,644,121.33,659.74,125.85ZM630.68,704.27h-.63c0,6.83.2,13.66-.07,20.47-.16,4,1.4,5.18,5.25,5.07,10.15-.3,20.31-.29,30.46-.38,9.55-.09,9.42-.08,9.29-9.73-.05-3.27-1.17-4.49-4.38-4.42-6.65.16-13.31.12-20,.18-2.28,0-4.35,0-4.49-3.2s1.67-3.47,4.12-3.49c6.32-.07,12.67-.65,19-.27,4.89.29,5.71-1.65,5.88-6,.22-5.28-3-4.54-6.12-4.51-6.16.06-12.32.33-18.47.16-1.39,0-2.74-1.52-4.1-2.34,1.3-.93,2.55-2.55,3.91-2.65,5.31-.37,10.65-.29,16-.31,9.73,0,8.75,2,9.09-9.62.09-3.1-.87-4.69-4.19-4.62q-18.23.33-36.46.49c-2.94,0-4.15,1.18-4.09,4.19C630.78,690.29,630.68,697.28,630.68,704.27ZM246.92,731.92V732H257.4c9.41,0,9.28,0,9-9.59-.12-3.46-1.43-4.72-4.81-4.65-7,.14-14-.08-21,.09-3.45.08-4.8-1.18-4.72-4.64.1-4.49-.09-9-.3-13.47-.15-3.24,1.09-4.4,4.4-4.27,5.65.23,11.31,0,17,0,9.47-.1,9.34-.1,8.74-9.79-.2-3.31-1.21-4.74-4.73-4.67-9,.18-18,0-27,.06-7.48.07-13.09,4.32-13.53,11.85-.55,9.4,0,18.89.64,28.31.47,7.1,4.63,10.53,11.84,10.71C237.6,732,242.26,731.92,246.92,731.92Zm282.76-26.6h-.14c0,5.16-.13,10.33,0,15.48.33,11.39-2.15,9.88,10.61,10,3.53,0,4.65-1.41,4.42-4.86-.26-4,.18-8,0-12-.14-3.31,1.26-4.36,4.42-4.33,6.82.08,13.66-.34,20.47-.09,4.72.18,4.39-2.64,4.5-5.78s-.48-5-4.34-4.75c-7,.35-14,.33-21,.11-1.29,0-2.52-1.75-3.78-2.68,1.25-.77,2.47-2.14,3.76-2.21,5.15-.26,10.31-.09,15.48-.15,10.48-.1,10.4-.12,9.92-10.78-.13-2.76-1.06-3.83-3.87-3.79q-18.23.28-36.45.27c-3,0-4.15,1.15-4.1,4.12C529.76,691,529.68,698.16,529.68,705.32Z"/><path class="cls-2" d="M467,294.91h-5c.33-3.41-1.73-5.95-4.53-4.53-6,3-10.56,2.3-13.59-2.26-3.34,1.64-6.1,3.08-8.93,4.4-5.36,2.5-3.46-5.45-7.33-5.14-5.23,7.2-5.23,7.2-10.45,5.75.61-3,1.22-6.07,1.83-9.12,2.76,1.17,4.75.67,5.75-2.44,1.38-4.3,2.71-8.62,4.38-12.8.71-1.79,2.23-3.25,3.38-4.85l1.34.45q1.57,6.63,3.14,13.26c5.13-1,9.35-13.17,7-20.62v-2c.61-1.23,1.23-2.46,1.84-3.7l1.29,0,2.55,40c1.54-1.34,2.36-1.7,2.46-2.19,1.28-6.76,3.48-13.55,3.32-20.29-.11-4.4,1.87-5.2,4.95-7.31.61,2.43,1.39,4.27,1.49,6.14.21,4.09-.15,8.23.2,12.3.15,1.75,1.48,3.4,2.57,5.74,3.2-10,6-18.77,8.77-27.51l1.37-.51c.72,1.3,1.9,2.54,2.07,3.91.33,2.62,0,5.32.12,8,0,1.65.3,3.29.46,4.93,1.55-1.29,3.4-2.38,4.57-4a5.14,5.14,0,0,0,.75-4.22c-1.9-4.67,1.38-5.6,4.64-7.32a76.15,76.15,0,0,0,1.38,8.49,67.41,67.41,0,0,0,3,7.28c.66,1.58,1.25,3.19,1.87,4.79.76-1.56,2.15-3.12,2.17-4.69.05-4.61-1.38-9.43-.47-13.8.83-3.95,1-7.37-.42-11l38,6.58.48,2L516,273l-3.95,3.19L503,284c-2.16-.1-4.34-.22-4,3l-12,7.68c-1-.9-2.2-2.66-3.06-2.52-1.75.3-3.32,1.61-5,2.51l-5,.12-3-3.52Z"/><path class="cls-3" d="M582,303.89l-4-.41-3-.63-7-.35-4-.57-9-1.22c-2.12-1.64-4.22-3.3-6.35-4.91-1.54-1.17-3.13-2.28-4.69-3.41l.61-1.54c5.18,0,10.35,0,15.53,0a23.5,23.5,0,0,0,4.26-.75c1.58-.32,3.38-1.35,4.68-.9,3.7,1.28,6.39.68,8.31-2.79,1.53-2.77,3.19-5.48,4.54-8.33.82-1.72.93-3.78,1.75-5.5,2.18-4.6,4.37-9.22,7-13.58.83-1.39,3-2,4.5-3,3.24,7.91,6.28,15.92,9.9,23.65.77,1.63,3.58,2.94,5.61,3.22,9.51,1.33,19.07,2.23,28.62,3.32,2.09.25,4.16.67,7.28,1.18l-3.42,3.71-2.12,2-1,1-2,2.21c-3.62,4-7.09,8.09-10.92,11.84-2.76,2.7-6.06,4.61-10.14,2.34l-2-.39-4-1.26-4-.8-3-.66-2-.43-3-.48-2-.55-6-.46-2-.44-3-.41Z"/><path class="cls-4" d="M444,257c2.33,7.45-1.89,19.62-7,20.62q-1.58-6.63-3.14-13.26l-1.34-.45c-1.15,1.6-2.67,3.06-3.38,4.85-1.67,4.18-3,8.5-4.38,12.8-1,3.11-3,3.61-5.75,2.44,0-1.33,0-2.66,0-4,.33-5,.87-10.08.86-15.11,0-1.28-1.78-2.55-2.74-3.82-1,1.21-2.8,2.31-3,3.63-.66,5.06-.8,10.19-1.14,15.29q-2.73,4.54-5.47,9.1l-1.09-.44V266.15c-8.39,3.59-.48,14.31-8.35,17.71-4.26-3.76-5.64-7.69-2.48-12.51a4.91,4.91,0,0,0,.37-2.43c.15-6.41-1.31-13.17,4.08-18.42L403,250l5.83,6.22c2-5.06,4.34-6.93,8.52-6.26,7.16,1.15,7.69.48,6.36-6.62q9.82-20.34,19.67-40.69c1.22-2.51,2.59-4.94,4.67-8.88,3.27,6.83,6,12.51,8.74,18.2-1.83-2-3.7-4-5.47-6.13-2.45-2.88-5.44-1.5-5.79.8-1,6.32-6,10.59-6.59,17.49-.91,10-2,19.78-.87,29.72C438.48,257.43,440.52,258.86,444,257Z"/><path class="cls-4" d="M495,250.13c1.39,3.64,1.25,7.06.42,11-.91,4.37.52,9.19.47,13.8,0,1.57-1.41,3.13-2.17,4.69-.62-1.6-1.21-3.21-1.87-4.79a67.41,67.41,0,0,1-3-7.28,76.15,76.15,0,0,1-1.38-8.49c-3.26,1.72-6.54,2.65-4.64,7.32a5.14,5.14,0,0,1-.75,4.22c-1.17,1.58-3,2.67-4.57,4-.16-1.64-.42-3.28-.46-4.93-.08-2.66.21-5.36-.12-8-.17-1.37-1.35-2.61-2.07-3.91l-1.37.51c-2.79,8.74-5.57,17.48-8.77,27.51-1.09-2.34-2.42-4-2.57-5.74-.35-4.07,0-8.21-.2-12.3-.1-1.87-.88-3.71-1.49-6.14-3.08,2.11-5.06,2.91-4.95,7.31.16,6.74-2,13.53-3.32,20.29-.1.49-.92.85-2.46,2.19l-2.55-40-1.29,0c-.61,1.24-1.23,2.47-1.84,3.7-.56-.81-1.6-1.62-1.59-2.42.12-7.12,1.33-14,4.93-20.28.3-.52,1.3-.64,2.82-1.32v20.64l1.31.79c1.47-1.25,4.14-2.45,4.19-3.74.19-5,1.75-9.48,3-14.2,1.44-5.41.56-11.42.69-17.17L474,244.91c0,4.74,2.91,2.34,5,2.08l6,1.22a33.45,33.45,0,0,0-.25,4.34c.06.93.38,2.32,1,2.61a3,3,0,0,0,2.84-.48c.53-.74.23-2.09.24-3.18,0-.71-.07-1.42-.11-2.13Z"/><path class="cls-5" d="M628,324.13l1.93.25c-.3,1.17-.59,2.34-.88,3.51l-2.95-.32c-1.29-2.31-2.32-2.09-3.12.32l-.05.06c-4.65,3.48-4.56,5.35.62,13.12l.36,3c-2.42-.13-5.36.55-7.15-.58-2.69-1.69-3.72-.77-5,1.26l-4.72-2-2.59-1.35-7.4-2.64-4-1.91-3.09,0-2,.91-8.42,3.63L576,343.1l-9.88,4-2.14,2a.71.71,0,0,1-.64.19L559,346c0-.65.06-1.29.08-1.94.8-1,2.11-1.9,2.29-3,.34-2-.84-5.28.15-6.08,2.85-2.25,1.56-4.72,1.41-7.14a50.48,50.48,0,0,0-1-5.79l4.07-7.58,4.87.29,2.1,1.29,3,.93h4l.87,1.53,1.25-2.17,9.81,1.05,8.06,1.66,7.94,1.32L612,321l3.89.55L618,322l1.92.34Z"/><path class="cls-6" d="M283,322.18l2-.16c.95,1,2.21,3,2.79,2.81,6.14-1.93,12.18-4.22,18.24-6.4l4-.39L323,320a22.63,22.63,0,0,0,1.72,3.49,16.79,16.79,0,0,0,2.57,2.4c.57-1,1.07-2.1,1.73-3.06,1.11-1.6,2.32-3.14,3.48-4.7l3.6,5.16c-.06,2.91-.12,5.83-.19,8.74.25,1.36.49,2.71.73,4.06.11,1,.21,2,.32,2.94s.37,2.05.56,3.07c.11,1.31.21,2.61.32,3.92l-7.32,2.35a.51.51,0,0,1-.51-.3c-1.35-2.55-2.69-5.11-4.2-8l-4.83,4-4-2c-1.31-2-2.23-5.23-4-5.82-3.2-1.06-7.34-2.67-9.95,1.71l-5,2.07-2.06.84-3.8,2.16c-4.11,0-7.85.76-10.19,4.64l-2.69,1c-1.72-3.78-3.16-7.22-.23-11.51,1.32-1.94.75-5.77-.07-8.39s-.58-3.94,2-4.84C281.81,323.69,282.36,322.79,283,322.18Z"/><path class="cls-7" d="M419,280c0,1.33,0,2.66,0,4-.61,3.05-1.22,6.1-1.83,9.12,5.22,1.45,5.22,1.45,10.45-5.75,3.87-.31,2,7.64,7.33,5.14,2.83-1.32,5.59-2.76,8.93-4.4,3,4.56,7.57,5.29,13.59,2.26,2.8-1.42,4.86,1.12,4.53,4.53-10.25.23-20.51.55-30.77.68-6.28.07-12.58,0-18.85-.31-2.52-.12-5.59-.39-7.41-1.84-13.9-11.09-27.55-22.49-41.26-33.82-.32-.26-.34-.87-.8-2.19l37.15-6.92c-5.39,5.25-3.93,12-4.08,18.42a4.91,4.91,0,0,1-.37,2.43c-3.16,4.82-1.78,8.75,2.48,12.51,7.87-3.4,0-14.12,8.35-17.71v22.51l1.09.44q2.75-4.55,5.47-9.1Z"/><path class="cls-7" d="M336.09,323.28l-3.6-5.16c-1.16,1.56-2.37,3.1-3.48,4.7-.66,1-1.16,2-1.73,3.06a16.79,16.79,0,0,1-2.57-2.4A22.63,22.63,0,0,1,323,320c.86-1,1.66-2.06,2.61-3a19,19,0,0,1,2.43-1.67l5-.33,4-.53,8-.47,4-.41,1.9-.17c1.05,1.45,2.57,4.3,3.07,4.13,4.11-1.41,8-3.38,12-5.17l8-.4,3-.27,4.93-.32,1.1,1.21,1-1.36,3-.16c4.73.91,9.5,2.51,14-.78l25-.25c0,.64,0,1.28,0,1.92l-7.67,7.11c1.06.47,2.81.77,3.77,1.8a9.43,9.43,0,0,1,1.73,4.33c.1.42-1.28,1.64-1.41,1.56a12.22,12.22,0,0,1-2.73-2.24c-2.35-2.62-4.5-2-6.44,1.82-.29-.11-.83-.24-.83-.35.12-5.5-.92-9.7-8-9.18-2.12.15-4.44-2-6.51-1.78-3.78.45-4.61,2.79-1.89,5.84-1.82,0-3.64,0-5.46.12-4.52.3-9,.67-13.56,1l-5,.11c-.47-1.66-1-3.32-1.42-5L368,320l-1.09,2.15-22.85.35c-.24-1.1-.49-2.2-.74-3.29l-1.21,0-1.17,3.37Zm80.83-7.94c-.28-.45-.55-.9-.82-1.36l-2.92,1.72.84,1.4Z"/><path class="cls-8" d="M459.37,217.3c-.13,5.75.75,11.76-.69,17.17-1.26,4.72-2.82,9.21-3,14.2-.05,1.29-2.72,2.49-4.19,3.74l-1.31-.79V231c-1.52.68-2.52.8-2.82,1.32-3.6,6.26-4.81,13.16-4.93,20.28,0,.8,1,1.61,1.59,2.42v2c-3.49,1.86-5.53.43-5.94-3.11-1.15-9.94,0-19.77.87-29.72.63-6.9,5.63-11.17,6.59-17.49.35-2.3,3.34-3.68,5.79-.8C453.09,208,455,210,456.79,212l.48,1.34c.5.88,1,1.77,1.53,2.66Z"/><path class="cls-9" d="M566,314.47,562,322.05l-1.89-.08-5.11-.1-1.94.05L510,321.61c.28-4,1.87-8.44-3-11.1q26.32,1.58,52.65,3.17C561.77,313.82,563.9,314.2,566,314.47Z"/><path class="cls-9" d="M283,322.18c-.66.61-1.21,1.51-2,1.77-2.62.9-2.89,2.12-2,4.84s1.39,6.45.07,8.39c-2.93,4.29-1.49,7.73.23,11.51-2.27,1.18-4.55,2.35-7.83,4,.87-6.53,1.45-12,2.35-17.38,1-5.87.14-6.74-5.8-5.92-6.66.9-13.35,1.61-20,2.4,0-.64,0-1.28,0-1.92Z"/><path class="cls-10" d="M472.26,700.84c-8.57.31-17.15.76-25.72.79-1.47,0-4.07-1.78-4.13-2.86-.1-1.65,1.2-3.83,2.57-5,1.06-.87,3.15-.59,4.79-.62,7.61-.14,15.22-.21,22.83-.3-1.24.62-2.47,1.76-3.73,1.79-6.94.19-13.9,0-20.83.22-1.44.05-2.82,1.41-4.23,2.17,1.46.87,2.91,2.45,4.4,2.5,6.77.24,13.56,0,20.34.06C469.79,699.63,471,700.41,472.26,700.84Z"/><path class="cls-10" d="M429,730h13.1c0-5.7.1-11,0-16.22-.09-3.38,1.21-4.86,4.68-4.8,8.49.13,17,.07,25.47.09a16.09,16.09,0,0,1-3.88,1.12c-6.45.15-12.91.29-19.35.11-3.81-.1-5.51,1.16-5.27,5.12s.18,7.94.08,11.91c0,1.22-.64,3.48-1,3.48C438.17,730.74,433.56,730.34,429,730Z"/><path class="cls-11" d="M310,625c7.94.32,15.89.56,23.82,1,1.76.1,3.47,1,5.21,1.56-9.53-.25-19.09-.13-28.59-.83-9.89-.73-18.73-4.68-26.65-10.66L286,616l2,0,2,1h0c4.22,2.09,8.44,4.18,12.67,6.23A19.3,19.3,0,0,0,305,624Z"/><path class="cls-9" d="M475.47,343.19c3.89,1.16,5.23-1.39,6.78-4.23.81-1.5,2.72-2.4,4.13-3.57a42.6,42.6,0,0,1,1.59,4.83c.74,3.65,1.3,7.34,1.94,11Z"/><path class="cls-7" d="M423.71,243.38c1.33,7.1.8,7.77-6.36,6.62-4.18-.67-6.55,1.2-8.52,6.26L403,250c4.14-.93,8.34-1.63,12.38-2.87C418.27,246.28,420.94,244.67,423.71,243.38Z"/><path class="cls-9" d="M426,312c0-.64,0-1.28,0-1.92l35-.51a78.51,78.51,0,0,1-8.68,2.25c-3.48.52-7,.56-10.57.74-1.78.09-3.57.07-5.36,0C432.94,312.41,429.47,312.19,426,312Z"/><path class="cls-7" d="M507,310.51c4.85,2.66,3.26,7.06,3,11.1l-6.82-.16L502,320c-.65-1.35-1.31-2.69-2-4,.34-1.32.67-2.65,1-4l3-1.57Z"/><path class="cls-12" d="M398.05,339a88.62,88.62,0,0,0,3.38,10.18c.64,1.39,2.66,2.14,4.06,3.19l-8.76,5.76-1.62-.86Z"/><path class="cls-12" d="M629,327.89c.29-1.17.58-2.34.88-3.51,3.36,1.08,6.66,2.49,10.11,3.16,5.59,1.08,11.28,1.68,16.93,2.48l-2.27,1.83c-7-1-14-1.9-20.95-2.9C632.14,328.72,630.58,328.25,629,327.89Z"/><path class="cls-10" d="M472.44,682.15l-43.66-.27c1.33-.59,2.65-1.67,4-1.69,11.91-.19,23.81-.27,35.72-.17C469.81,680,471.12,681.41,472.44,682.15Z"/><path class="cls-13" d="M146.21,198c2.11,3.76,4.6,7.37,6.26,11.33,4.47,10.65,8.6,21.44,12.82,32.19a15.73,15.73,0,0,1,.55,2.86c-2.56-5.68-5.24-11.31-7.65-17.05C154.11,217.57,150.19,207.76,146.21,198Z"/><path class="cls-11" d="M342.08,627.73c1.71.09,3.59-.27,5.08.35,10.95,4.52,22.36,5.46,34,4.94a9.32,9.32,0,0,1,2.75.77C369.32,636.31,355.52,633.25,342.08,627.73Z"/><path class="cls-11" d="M210.2,573.91c-8.52-2.85-17.11-1.94-25.86-1.19-4.35.36-8.9-1.55-13.36-2.42,9.67-.06,19.35-.45,29,0C203.43,570.46,206.79,572.65,210.2,573.91Z"/><path class="cls-9" d="M306,318.43c-6.06,2.18-12.1,4.47-18.24,6.4-.58.18-1.84-1.82-2.79-2.81Z"/><path class="cls-12" d="M611.77,344.71c1.24-2,2.27-2.95,5-1.26,1.79,1.13,4.73.45,7.15.58.44,2.1.87,4.19,1.31,6.29l-1.32,1Z"/><path class="cls-14" d="M612,615.89c2.51-2,4.73-5.12,7.59-5.93,6-1.7,12.24-2.21,18.38-3.2C628.84,608.59,619.8,610.56,612,615.89Z"/><path class="cls-11" d="M406,619c5.67-5.23,5.85-12.44,6.94-19.3.4-2.53.55-5.1.81-7.65,1.78,11.07,0,21.2-7.81,29.74Z"/><path class="cls-15" d="M189,100.49c-2.77,1.39-5.5,2.87-8.32,4.15-6,2.71-12.06,5.36-18.15,7.9-1,.4-2.24,0-3.37,0Z"/><path class="cls-9" d="M489,310.13c-1.77.94-3.58,2.73-5.31,2.66-5.65-.23-11.28-1.09-16.9-1.84a10,10,0,0,1-2.82-1.38Z"/><path class="cls-11" d="M302,618l-5-3.71c9.25,2.74,18.54,4.71,28.06,1.2-5.25,4.62-11.5,3.68-17.66,3.15C305.59,618.47,303.81,618.2,302,618Z"/><path class="cls-11" d="M266.89,601.34c-8.5-.14-17-.22-25.5-.51-.84,0-1.63-1.36-2.44-2.09,7.28.33,14.56.57,21.82,1.06C262.84,599.94,264.85,600.8,266.89,601.34Z"/><path class="cls-16" d="M461,129v-9.89c-1.06,4.09-1.82,7-2.58,9.93q.84-8,1.67-16c1.91.64-1.07,4.83,2.89,4,0,2.91.18,5.83-.1,8.71C462.8,126.86,461.68,127.9,461,129Z"/><path class="cls-14" d="M589,624.7c3.64-1.73,7.24-3.55,10.95-5.14,2-.86,5.26-.66,6.09-2.06,1.76-3,3.82-1.57,5.88-1.56C605.12,621.15,597.33,623.68,589,624.7Z"/><path class="cls-13" d="M190,182.93c4.83-2.28,9.6-4.69,14.54-6.72.81-.33,3,.68,3.36,1.56,1.35,3.29,2.19,6.78,3.23,10.2-.91-1.74-1.9-3.44-2.7-5.22-2.58-5.8-2.72-5.86-8.79-3.46C196.42,180.56,193.19,181.72,190,182.93Z"/><path class="cls-13" d="M407.65,101c-.59-4.44-3-10.11-1.19-12.93,1.61-2.45,8.12-1.68,12.46-2.34-2.71.64-5.4,1.71-8.13,1.81-3.82.15-4.38,1.8-3.75,5.11A68,68,0,0,1,407.65,101Z"/><path class="cls-15" d="M224.9,164a35,35,0,0,1-4.35-.76c-5.94-1.78-6.29-2.79-4.43-8.49,1.46-4.47,2.43-9.12,3.61-13.69-.45,4.31,0,9-1.59,12.82-1.89,4.68-1.79,7.07,3.53,8.09C222.84,162.23,223.83,163.33,224.9,164Z"/><path class="cls-11" d="M307.07,586.94l4.94.9,4.62-8.88a12.12,12.12,0,0,1-.23,1.93c-.81,2.84-.91,6.5-2.78,8.18-1.26,1.14-5-.66-7.7-.88-2.29-.19-4.61,0-6.92,0V587l6-3Z"/><path class="cls-12" d="M560.07,322l1.89.08a50.48,50.48,0,0,1,1,5.79c.15,2.42,1.44,4.89-1.41,7.14-1,.8.19,4-.15,6.08-.18,1.09-1.49,2-2.29,3,.43-4.43,1-8.86,1.22-13.3C560.5,327.83,560.18,324.89,560.07,322Z"/><path class="cls-13" d="M267,568c2.66,1,5.24,2.45,8,2.93,6.42,1.11,10.47,4.07,10.8,8.56a18.24,18.24,0,0,0-12.15-6.87c-3.27-.52-6.23-3.07-9.33-4.71Z"/><path class="cls-9" d="M366,312.41c-4,1.79-7.91,3.76-12,5.17-.5.17-2-2.68-3.07-4.13Z"/><path class="cls-16" d="M522,179c.62.45,1.5.76,1.8,1.37,1,2.08,1.88,4.26,3.1,7.1L525,190.55l-6.27-1.23Q520.38,184.16,522,179Z"/><path class="cls-12" d="M248,329.9c0,.64,0,1.28,0,1.92L229.53,335l-.28-1.48Z"/><path class="cls-9" d="M303,338c2.61-4.38,6.75-2.77,9.95-1.71,1.78.59,2.7,3.8,4,5.82Z"/><path class="cls-13" d="M289,582c6.49-1.69,6.49-1.69,6,6v1.92l-1.16.54C289.69,589.1,289.5,585.46,289,582Z"/><path class="cls-9" d="M328,315.36A19,19,0,0,0,325.6,317c-1,.9-1.75,2-2.61,3L310,318Z"/><path class="cls-11" d="M271,609l11,5.9-22.94-6.25,1.92-.76,7,.1Z"/><path class="cls-9" d="M344,288.34l-3.86,3.43c0-.45,0-.89,0-1.33-3.88-.48-7.78-.84-11.64-1.48a39.62,39.62,0,0,1-5.53-1.71Z"/><path class="cls-16" d="M502.09,134.71c6.52.23,13,.36,19.53.82.59,0,1,2.22,1.54,3.41-1.82-.79-3.57-2-5.47-2.3C512.52,135.79,507.3,135.33,502.09,134.71Z"/><path class="cls-17" d="M522,179q-1.62,5.15-3.25,10.31v0c-.2-1.75-.39-3.49-.58-5.24.08-.67.16-1.35.25-2,.25-1,.51-2,.76-3l.57-4c.52-2.66,1-5.32,1.57-8a3.46,3.46,0,0,1,.6.47c.09.11.07.31.1.47Q522,173.5,522,179Z"/><path class="cls-15" d="M124,127.58c-3.18,3.71-4.15,7.63-1.68,12.21.79,1.46.8,3.35,1.16,5-1.73-3.91-3.9-7.69-5.09-11.76C117.1,128.54,121.1,128.36,124,127.58Z"/><path class="cls-13" d="M434.65,69c-.55-1-1.19-2.06-1.63-3.15a63.75,63.75,0,0,1-2.79-7.45,23,23,0,0,1-.26-5.07c1,.47,2.87.82,3,1.45C433.7,59.52,434.12,64.28,434.65,69Z"/><path class="cls-13" d="M787.93,517.8c-.33-4.5-3.73-3-6.25-3.16-2.86-.18-5.73-.28-8.6-.41,4.36-.37,8.76-1.23,13.07-.93C789.62,513.53,789.9,515,787.93,517.8Z"/><path class="cls-16" d="M522,168c0-.16,0-.36-.1-.47a3.46,3.46,0,0,0-.6-.47c-.52,2.66-1.05,5.32-1.57,8l1.53-14.95a27,27,0,0,0,2.34,3.93C525.76,166.52,524,167.27,522,168Z"/><path class="cls-13" d="M413.28,173q-.75-9.48-1.51-19Q412.54,163.56,413.28,173Z"/><path class="cls-13" d="M373.05,58.66c-.32.37-.63,1.06-.95,1.07-5.69.19-11.37.29-17.05.41Z"/><path class="cls-16" d="M551.92,63.26,534,61.47Z"/><path class="cls-16" d="M242.63,192c-1.45-2.38-3.21-4.63-4.28-7.17-1.45-3.48-2.38-7.18-3.54-10.78Q238.72,183,242.63,192Z"/><path class="cls-13" d="M380.39,129c.29.14.83.27.84.42.34,6.19.63,12.38.93,18.57Z"/><path class="cls-12" d="M377,322.05c4.52-.35,9-.72,13.56-1,1.82-.12,3.64-.09,5.46-.12a5.14,5.14,0,0,1,.05.88Z"/><path class="cls-13" d="M694,585.73c3.13-5.13,9.6-7.57,15.92-6Z"/><path class="cls-13" d="M789.68,559.71l-17.72-2Z"/><path class="cls-12" d="M330.51,348.36l7.32-2.35,1.41,5.59-1.29.86Z"/><path class="cls-18" d="M356.94,714q.53,8.44,1.06,16.9c-.44-3.53-1-7-1.28-10.59A53.31,53.31,0,0,1,356.94,714Z"/><path class="cls-9" d="M321,344.07l4.83-4c1.51,2.86,2.85,5.42,4.2,8Z"/><path class="cls-16" d="M511.94,109.2l-17-1.6Z"/><path class="cls-13" d="M757.54,550c-4-4.08-5-12.21-2.13-17.07Z"/><path class="cls-13" d="M431,85.54c.69-2.2,1.35-4.41,2.06-6.6.54-1.67,1.13-3.31,1.69-5,.18,2.62.22,5.25.56,7.85C435.75,85.42,434.11,86.29,431,85.54Z"/><path class="cls-16" d="M458.09,133l-1.77,19Z"/><path class="cls-9" d="M358,292c-1.51-.48-3.67-1.85-4.42-1.3-3.43,2.5-4.21.73-4.65-2.27a70.15,70.15,0,0,1,8.33,0C360.3,288.78,360.64,290.21,358,292Z"/><path class="cls-13" d="M740.24,502.07c1.48,5.51-.72,12.1-5,15Q737.75,509.58,740.24,502.07Z"/><path class="cls-2" d="M488.7,249.37c0,.71.12,1.42.11,2.13,0,1.09.29,2.44-.24,3.18a3,3,0,0,1-2.84.48c-.62-.29-.94-1.68-1-2.61a33.45,33.45,0,0,1,.25-4.34Z"/><path class="cls-13" d="M761,523.88c2.93-3.77,9-5.26,12.92-3.17Z"/><path class="cls-18" d="M636.47,560.82c.28-8,2.7-12.58,7.39-13.88Z"/><path class="cls-12" d="M496,354.87,499.9,348c.6,2.79,1.2,5.58,2.09,9.74Z"/><path class="cls-19" d="M267,568l-2.69-.09-.2-.21L261.89,564l-.21-.33L260,556Z"/><path class="cls-13" d="M411.46,151l-.72-13.94Z"/><path class="cls-12" d="M623.52,341.07c-5.18-7.77-5.27-9.64-.62-13.12Q623.22,334.51,623.52,341.07Z"/><path class="cls-9" d="M401,310.33c-4.49,3.29-9.26,1.69-14,.78Z"/><path class="cls-11" d="M386,633.52l14.32-6.4Z"/><path class="cls-20" d="M463.81,504.94c.47.14,1.28.18,1.36.45.83,2.71-3.45,8.32-6.48,8.58Q461.26,509.45,463.81,504.94Z"/><path class="cls-13" d="M260,556l1.65,7.67L255,550Z"/><path class="cls-11" d="M289,582c.51,3.46.7,7.1,4.85,8.47-3.29,2.45-4.42-.29-5.36-2.49a57.31,57.31,0,0,1-2-7Z"/><path class="cls-13" d="M714,579.61l12.94-2.87Z"/><path class="cls-11" d="M220.34,605.27,234,608.48Z"/><path class="cls-18" d="M644,546.88c1.28-5.43,6.37-4.44,10-5.91Z"/><path class="cls-15" d="M219.32,139q-2.32-6.75-4.67-13.5Q217,132.29,219.32,139Z"/><path class="cls-14" d="M251.88,503.85,253,509h-1l-3.07,2L246.11,512Z"/><path class="cls-18" d="M654,541c1.33-4.05,6.88-6.91,11.95-6.17Z"/><path class="cls-17" d="M456.05,169c-.27-.64-.53-1.27-.8-1.9.13-2.35.27-4.7.4-7.05L457,160l1,1v4C457.35,166.32,456.7,167.65,456.05,169Z"/><path class="cls-16" d="M523.12,141q-.71,6-1.4,12Q522.43,147,523.12,141Z"/><path class="cls-15" d="M202.31,104.71,192,100.41Z"/><path class="cls-13" d="M389.07,56.78l-12,1.5Z"/><path class="cls-20" d="M650.54,225.61l5.08-1.74L659,229.6Z"/><path class="cls-11" d="M281.73,606.66,275,606,270,601.76Z"/><path class="cls-14" d="M575,616.92l-1.14-2.36,10.16,1.8Z"/><path class="cls-18" d="M641.18,495c-3.13-3.75-5.29-7.82-4.43-12.92Q639,488.54,641.18,495Z"/><path class="cls-14" d="M245.08,513.16l1.77,4.23-7.15,1.48C241.49,517,243.29,515.07,245.08,513.16Z"/><path class="cls-7" d="M479,294.69c1.65-.9,3.22-2.21,5-2.51.86-.14,2,1.62,3.06,2.52Z"/><path class="cls-16" d="M536,190.87c1.12-.47,2.3-1.44,3.34-1.31a36.06,36.06,0,0,1,6,1.75Z"/><path class="cls-16" d="M556.86,81c.17-3.66.34-7.31.52-11C557.2,73.64,557,77.29,556.86,81Z"/><path class="cls-13" d="M406,619l-.06,2.79L405,623l-3,1-3.4-1.83Z"/><path class="cls-13" d="M776,520.58l11.83-2.66Z"/><path class="cls-16" d="M462.19,85.06l-.72,11Z"/><path class="cls-21" d="M646.62,214.86c2.42,1.63,1.82,6.39-1.07,8.35l-.37,0-.17-.35c-.08-1.48-.15-3-.23-4.45C645.4,217.25,646,216.05,646.62,214.86Z"/><path class="cls-22" d="M654.67,331.85l2.27-1.83,7.35,1.12c-.08.65-.16,1.3-.25,2Z"/><path class="cls-11" d="M295.57,613.78c-4,0-7.7-.63-9.56-4.85Z"/><path class="cls-7" d="M467,294.91l4.05-3.62,3,3.52Z"/><path class="cls-20" d="M704.19,108.92c-4-1.24-5.41,2.51-7.94,4.1C699.06,105.88,699.47,105.66,704.19,108.92Z"/><path class="cls-14" d="M662,606.53l10-1.7Z"/><path class="cls-20" d="M760.54,136.79,750,131.48Z"/><path class="cls-13" d="M236.87,521.7c0,.45.09.91.13,1.36,0,.6,0,1.2,0,1.8l-.24,3.22-4.93-2.19Q234.36,523.79,236.87,521.7Z"/><path class="cls-13" d="M751.35,503c-2-3-4-5.84-8.15-5.48C748.44,495.65,750.29,496.89,751.35,503Z"/><path class="cls-13" d="M768.94,514.21c-4.26,1.07-8,.33-11-3.15Z"/><path class="cls-9" d="M282,347.71c2.34-3.88,6.08-4.66,10.19-4.64Z"/><path class="cls-14" d="M487,606c.23,2.23.46,4.45.7,6.68q-1.41-5.85-2.81-11.71l1.12,1Z"/><path class="cls-12" d="M502,320l1.17,1.42c-3.66.11-5.82,1.78-5.85,5.65-3.51-4.1.07-5.4,2.77-7Z"/><path class="cls-13" d="M139.08,181l4.51,10.75Z"/><path class="cls-16" d="M474.05,185.83c3.08-.66,6.07-1.46,7.34-4.85C481,186.73,481,186.73,474.05,185.83Z"/><path class="cls-13" d="M730,576.19l10.76-2.85Z"/><path class="cls-13" d="M241.43,541.23c4.56-.67,6.09,3.23,8.58,5.69Z"/><path class="cls-16" d="M526.29,105.09l-.46,4.74-4.84-.52Z"/><path class="cls-20" d="M656.74,194.35l-5.1,10.51Z"/><path class="cls-11" d="M118.06,523.79l9,.69Z"/><path class="cls-14" d="M710.9,569.34l-9-.66Z"/><path class="cls-13" d="M409.59,123c-.29-3-.57-6-.86-8.94C409,117.07,409.3,120.05,409.59,123Z"/><path class="cls-14" d="M690,572l-4.37,3.07c.74-2.87,1.74-5.47,5.48-5.17Z"/><path class="cls-6" d="M368,320l2.56-2.82c.47,1.66.95,3.32,1.42,5l-2.92.13Z"/><path class="cls-14" d="M476.05,576.85l9,4Z"/><path class="cls-14" d="M591.93,586.15c3.42-2.56,6.32-1,9.14,1.15Z"/><path class="cls-20" d="M487,584c3.08,3.69.57,5.87-2.15,8l.09-3Z"/><path class="cls-20" d="M522,412.89v4.76l-5.33-1Z"/><path class="cls-18" d="M622.76,488.38c-.06,2.92,1.63,6.61-3.25,7.43C620.6,493.33,621.68,490.86,622.76,488.38Z"/><path class="cls-14" d="M451.32,532.6l-.41,4.95-1.61.47-1.94-4.37Z"/><path class="cls-23" d="M330,584c4.42,3.29-1.12,3.46-1.62,5.21l.27-5.14Z"/><path class="cls-16" d="M528.14,85.05l-1.29,8Z"/><path class="cls-11" d="M141.86,538l-.05,8.09Z"/><path class="cls-12" d="M600,319.05l-8.06-1.66Z"/><path class="cls-12" d="M559,346l4.33,3.25L558,352.06C558.49,349.14,558.77,347.57,559,346Z"/><path class="cls-20" d="M664.41,232.23l6.32-4.25C669.28,230.38,670,236,664.41,232.23Z"/><path class="cls-14" d="M581.46,575.94l1.51.11c.33,1.32.65,2.64,1,4-.25,1.31-.49,2.63-.74,3.94C582.63,581.27,582,578.61,581.46,575.94Z"/><path class="cls-11" d="M234.89,598.34l-7.91-3Z"/><path class="cls-12" d="M628,324.13l-8-1.81Z"/><path class="cls-9" d="M307.06,256l-4.79-2.92,1.17-3.08,1.23.06Z"/><path class="cls-11" d="M104.73,571.12l7.13.49Z"/><path class="cls-16" d="M482.85,164c-2.81-2.47-1.18-4.26.92-6C483.46,160,483.15,162,482.85,164Z"/><path class="cls-15" d="M128.08,155q1.75,3.92,3.49,7.83Q129.83,158.89,128.08,155Z"/><path class="cls-16" d="M485.87,136c.33-3.51,2.26-4,6.15-1.56Z"/><path class="cls-9" d="M496,310.19l-1.87,2.73L491,310.13Z"/><path class="cls-12" d="M270.1,286.34,263,287Z"/><path class="cls-14" d="M487,584l-2.06,5c.06-2.69.11-5.37.17-8.06l1.89,1c0,.35,0,.7,0,1S487,583.67,487,584Z"/><path class="cls-11" d="M105,563.93c-.31,2.25-.63,4.5-.94,6.76C100.43,567.89,102.86,565.93,105,563.93Z"/><path class="cls-18" d="M675,533.87l-1-3.52,4.71,2.51c-.09.33-.19.67-.29,1Z"/><path class="cls-14" d="M279,444.23c-2,2.3-4,4-7.06,1.59Z"/><path class="cls-11" d="M134,515.83l-6.95,1.43Z"/><path class="cls-11" d="M159.81,563.05c-1-2.32-2-4.65-3-7Z"/><path class="cls-18" d="M612.89,504.75l-5.17,5.13Z"/><path class="cls-14" d="M584.17,587l5.73-.3C588,587.48,586.28,590.75,584.17,587Z"/><path class="cls-11" d="M108.69,521.13l7.34,2.32Z"/><path class="cls-16" d="M483.94,153c.11-2,.21-4,.32-6C484.15,149,484.05,151,483.94,153Z"/><path class="cls-16" d="M489.84,92l.87-6Z"/><path class="cls-15" d="M133.74,168q1.45,3.35,2.92,6.71Q135.19,171.39,133.74,168Z"/><path class="cls-15" d="M208.94,113l-4-5.79Z"/><path class="cls-12" d="M293.54,276.5l-3.44,6.56Z"/><path class="cls-16" d="M549.94,149l.24-6Z"/><path class="cls-16" d="M457,160l-1.34.06c.15-2,.29-4,.44-6,.31,1.32.61,2.65.92,4C457,158.66,457,159.32,457,160Z"/><path class="cls-18" d="M598,516.13c-1.47,3.34-2,3.49-4,1.09Z"/><path class="cls-16" d="M557.81,67.94,556,63.45C559.57,63.73,558.61,65.87,557.81,67.94Z"/><path class="cls-14" d="M624.94,570.43l6.34-2.29Z"/><path class="cls-14" d="M617,572.64l5.95-1.94Z"/><path class="cls-14" d="M568.06,614l-.93-4.27,4.57,4Z"/><path class="cls-9" d="M340.94,322.54l1.17-3.37,1.21,0c.25,1.09.5,2.19.74,3.29Z"/><path class="cls-16" d="M481.78,178.93c.18-1.65.35-3.3.53-5C482.13,175.63,482,177.28,481.78,178.93Z"/><path class="cls-16" d="M233,171,229,166.93Z"/><path class="cls-20" d="M773.83,157.94c0-1.62,0-3.25,0-4.88C773.83,154.69,773.83,156.32,773.83,157.94Z"/><path class="cls-2" d="M479,247c-2.05.26-5,2.66-5-2.08Z"/><path class="cls-12" d="M284.14,284.75l-5.13.31Z"/><path class="cls-15" d="M124.06,146c.85,1.92,1.71,3.84,2.56,5.77C125.77,149.84,124.91,147.92,124.06,146Z"/><path class="cls-11" d="M119,561.57l-4.93.7Z"/><path class="cls-11" d="M413.31,586c-1.79-1.95-2.46-3.75.66-5Z"/><path class="cls-14" d="M569.46,587,568,587l.81-4.94C569,583.72,569.24,585.37,569.46,587Z"/><path class="cls-16" d="M484.66,144.89c.32-1.64.63-3.27.95-4.9C485.29,141.62,485,143.25,484.66,144.89Z"/><path class="cls-16" d="M518.17,184.05c.19,1.75.38,3.49.58,5.24C518.55,187.54,518.36,185.8,518.17,184.05Z"/><path class="cls-16" d="M491.85,72l.63-5Z"/><path class="cls-11" d="M242,608.51l5.06-.06Z"/><path class="cls-11" d="M116,516.17h0Z"/><path class="cls-11" d="M126,560.57l-4.94.68Z"/><path class="cls-18" d="M668,534.32c1.08-2.19,2.25-3.73,4-.54Z"/><path class="cls-11" d="M141.26,548.08,139.34,553Z"/><path class="cls-14" d="M420,578.48l4.76-2.14Z"/><path class="cls-14" d="M684.66,577.28l-2.3,4.75Z"/><path class="cls-14" d="M609.77,583.94q1-2.49,1.91-5Q610.73,581.45,609.77,583.94Z"/><path class="cls-14" d="M568.32,602.63,570,597Z"/><path class="cls-14" d="M729.05,536.84l5,2Z"/><path class="cls-9" d="M576,317l-3-.93a5.41,5.41,0,0,0,0-.9l2.9.45C575.93,316.06,576,316.52,576,317Z"/><path class="cls-13" d="M768.92,557.25l-4.94-2Z"/><path class="cls-7" d="M512.08,276.2,516,273Z"/><path class="cls-16" d="M466.06,184.8l4,.82Z"/><path class="cls-11" d="M330,584l-1.35.07,0-4.11C329.1,581.31,329.55,582.66,330,584Z"/><path class="cls-11" d="M328.17,594.05c0,1.29,0,2.58.05,3.87C328.21,596.63,328.19,595.34,328.17,594.05Z"/><path class="cls-12" d="M498.63,336.08c-.24-1.35-.47-2.7-.71-4.06C498.16,333.38,498.39,334.73,498.63,336.08Z"/><path class="cls-18" d="M604,512.9l-4.75,2.68Z"/><path class="cls-12" d="M576,317c0-.46-.07-.92-.11-1.38l4.1.45c0,.31,0,.62,0,.93Z"/><path class="cls-12" d="M593,336.84l4,1.91Z"/><path class="cls-20" d="M644.78,218.44c.08,1.48.15,3,.23,4.45C641.61,221.58,643.61,220,644.78,218.44Z"/><path class="cls-11" d="M121.89,517.34l-3.92-.86Z"/><path class="cls-9" d="M582,303.89l4,.64Z"/><path class="cls-9" d="M564,301.93l4,.57Z"/><path class="cls-14" d="M468.4,573.25l4.63,2.39Z"/><path class="cls-11" d="M207.32,591.9c2.8.1,2.92,1.77,2.27,3.89C208.83,594.49,208.07,593.2,207.32,591.9Z"/><path class="cls-9" d="M352.93,297.62l3.33-3.5Z"/><path class="cls-9" d="M337,314.5l-4,.53Z"/><path class="cls-9" d="M349,313.62l-4,.41Z"/><path class="cls-9" d="M504,310.45,501,312c-.35-.56-.7-1.12-1-1.68Z"/><path class="cls-12" d="M277.11,285.36,273,286Z"/><path class="cls-7" d="M499,287c-.32-3.23,1.86-3.11,4-3Z"/><path class="cls-20" d="M680.19,208.49l2.43-4.51Z"/><path class="cls-13" d="M690,589.94c1.12-1.26,2.25-2.52,3.37-3.79C692.24,587.42,691.11,588.68,690,589.94Z"/><path class="cls-20" d="M454.2,523.81l1.54,2L453.07,527C453.45,525.94,453.82,524.88,454.2,523.81Z"/><path class="cls-13" d="M403,55.49l-4,.74Z"/><path class="cls-16" d="M548.81,157.94c.26-1.32.51-2.64.77-3.95C549.32,155.3,549.07,156.62,548.81,157.94Z"/><path class="cls-14" d="M568.8,579c.29-1.33.57-2.66.86-4C569.37,576.29,569.09,577.62,568.8,579Z"/><path class="cls-12" d="M336.63,336.08c-.24-1.35-.48-2.7-.73-4.06C336.15,333.38,336.39,334.73,336.63,336.08Z"/><path class="cls-13" d="M793.14,567.17c0-1.52,0-3,0-4.55C793.15,564.14,793.15,565.65,793.14,567.17Z"/><path class="cls-20" d="M693.67,118.28c-.76,1.59-1.51,3.17-2.27,4.75C692.16,121.45,692.91,119.87,693.67,118.28Z"/><path class="cls-9" d="M607,308l4,.8Z"/><path class="cls-12" d="M612,321l-4.08-.64Z"/><path class="cls-16" d="M491.91,107.26c-3.66,1.4-2.84-1.06-2.59-3Z"/><path class="cls-16" d="M461.15,98.05c-.23,1.32-.45,2.65-.68,4C460.7,100.7,460.92,99.37,461.15,98.05Z"/><path class="cls-18" d="M651.93,511l-2.81-3.32Z"/><path class="cls-12" d="M253.12,288.34,253,292l-2-2.48Z"/><path class="cls-13" d="M251.18,547.48,255,550Z"/><path class="cls-13" d="M761.34,553.85q-1.65-1.47-3.28-3Q759.7,552.38,761.34,553.85Z"/><path class="cls-14" d="M680.82,584.55,678.06,588Z"/><path class="cls-13" d="M261.89,564l2.23,3.71Z"/><path class="cls-11" d="M402,624l3-1-3,2.86Z"/><path class="cls-14" d="M678,588.06l-3.28,2.83Z"/><path class="cls-13" d="M299,587v1.21l-2,.74,0-1Z"/><path class="cls-16" d="M546.87,177l.69-3Z"/><path class="cls-12" d="M337.51,342.09c-.19-1-.38-2-.56-3.07C337.13,340,337.32,341.07,337.51,342.09Z"/><path class="cls-14" d="M722.94,536.19l3.12.15Z"/><path class="cls-15" d="M132.09,164c.52,1.26,1,2.51,1.55,3.76C133.12,166.5,132.61,165.25,132.09,164Z"/><path class="cls-18" d="M624.22,482.07c-.3,1-.59,2-.89,2.95C623.63,484,623.92,483.05,624.22,482.07Z"/><path class="cls-14" d="M696.06,568.7l-3,.6Z"/><path class="cls-16" d="M550.84,139l.63-3Z"/><path class="cls-13" d="M410.41,135c-.16-1-.33-2-.49-3C410.08,133,410.25,134,410.41,135Z"/><path class="cls-9" d="M575.05,302.85l3,.63Z"/><path class="cls-12" d="M623,327.89c.8-2.41,1.83-2.63,3.12-.32Z"/><path class="cls-16" d="M551.87,125c.19-1,.39-2,.58-3C552.26,123,552.06,124,551.87,125Z"/><path class="cls-14" d="M268.67,444.72l-3.76-1Z"/><path class="cls-16" d="M552.84,120c.14-1,.28-2,.43-3C553.12,118,553,119,552.84,120Z"/><path class="cls-15" d="M210.9,117c-.57-1.19-1.13-2.39-1.7-3.58C209.77,114.64,210.33,115.84,210.9,117Z"/><path class="cls-18" d="M670.44,527.83l-3.24-2.35Z"/><path class="cls-16" d="M553.88,105l.75-3Z"/><path class="cls-16" d="M554.87,100c.1-1,.2-2,.29-3C555.06,97.94,555,99,554.87,100Z"/><path class="cls-16" d="M555.73,86.91c.27-1,.53-2,.79-2.93C556.26,85,556,85.94,555.73,86.91Z"/><path class="cls-14" d="M448,552.88l1.42-1.73,1.54,2Z"/><path class="cls-16" d="M490.92,77c.17-1,.35-2,.52-3C491.27,75,491.09,76,490.92,77Z"/><path class="cls-9" d="M580,317c0-.31,0-.62,0-.93l2.13.29-1.25,2.17Z"/><path class="cls-9" d="M368,320l1.06,2.29-2.15-.14Z"/><path class="cls-16" d="M478.92,56.25l-2.94-.8Z"/><path class="cls-13" d="M144,193l1.62,3.7Z"/><path class="cls-16" d="M545.32,191.34l1-3.37Z"/><path class="cls-12" d="M576,343.1l3.49-1.74Z"/><path class="cls-11" d="M130.08,524.76l2.95.81Z"/><path class="cls-14" d="M715.33,536.34l3.59.42Z"/><path class="cls-9" d="M377,311.74l-3,.27Z"/><path class="cls-16" d="M519.18,179.06c-.25,1-.51,2-.76,3C518.67,181,518.93,180.05,519.18,179.06Z"/><path class="cls-12" d="M499.32,342.11c-.12-1-.24-2.07-.37-3.1C499.08,340,499.2,341.08,499.32,342.11Z"/><path class="cls-14" d="M499,625c.27.77.54,1.53.8,2.3l-3-2.21Z"/><path class="cls-11" d="M107.88,517.72c.05,1,.1,2,.14,3Z"/><path class="cls-14" d="M462.11,569l2.89,2Z"/><path class="cls-14" d="M453.28,559l1.8,2.8Z"/><path class="cls-11" d="M214.08,601l2.81,2.2Z"/><path class="cls-18" d="M642.73,498l-1.11-2.26Z"/><path class="cls-15" d="M204.79,107.09l-2.52-2.42Z"/><path class="cls-15" d="M214.07,124l-1.68-3.77Z"/><path class="cls-14" d="M432.94,571.8l2.68-1.92Z"/><path class="cls-18" d="M666.68,525,664,522.88Z"/><path class="cls-14" d="M713.48,531.23l-.24,2.69Z"/><path class="cls-12" d="M564,349.05l2.14-2Z"/><path class="cls-11" d="M158.35,512l-.65-1.92Z"/><path class="cls-11" d="M166,540.45l1.92-.79Z"/><path class="cls-11" d="M162,542.84l2.48-1.67Z"/><path class="cls-12" d="M604.46,341.39l2.59,1.35Z"/><path class="cls-11" d="M143.85,508.64c-.62.78-1.24,1.57-1.85,2.36C142.61,510.21,143.23,509.42,143.85,508.64Z"/><path class="cls-11" d="M158.15,547.37l1.73-2.38C159.31,545.79,158.73,546.58,158.15,547.37Z"/><path class="cls-14" d="M739.79,545.94l.5,2Z"/><path class="cls-11" d="M145.62,504.25l-1.2,2.78Z"/><path class="cls-18" d="M645.91,503l-1.74-2.45Z"/><path class="cls-15" d="M282,503l-1.82-2.43Z"/><path class="cls-18" d="M617.86,498.65c-.6.79-1.19,1.58-1.78,2.38C616.67,500.23,617.26,499.44,617.86,498.65Z"/><path class="cls-11" d="M138.92,553.8l-2.08,2.13Z"/><path class="cls-11" d="M297,587.91l0,1-2,1V588Z"/><path class="cls-14" d="M603.28,588.43l2.85,1.07Z"/><path class="cls-14" d="M740.58,553.28l-.66,2.78Z"/><path class="cls-11" d="M221.49,591.81l-2.34-2.17Z"/><path class="cls-9" d="M296,340.91l2.06-.84Z"/><path class="cls-11" d="M133,558.37l-2,.79Z"/><path class="cls-11" d="M224.46,593.82l-2.47-1.7Z"/><path class="cls-12" d="M587.94,337.73l2-.91Z"/><path class="cls-14" d="M735,563.09l-2.33,1.78Z"/><path class="cls-13" d="M408.2,112c-.11-.66-.22-1.33-.32-2C408,110.71,408.09,111.38,408.2,112Z"/><path class="cls-20" d="M695.72,114.33,694.23,117Z"/><path class="cls-14" d="M440.09,566.21l1.85-2.23Z"/><path class="cls-12" d="M399.05,332l-.39,2.12Z"/><path class="cls-20" d="M690.06,126l-1,2Z"/><path class="cls-20" d="M688.48,129.16,687.16,132Z"/><path class="cls-14" d="M726.05,567.93l-2,.3Z"/><path class="cls-20" d="M685.64,135.26,684.26,138Z"/><path class="cls-13" d="M791,568.35l2.21-1.22Z"/><path class="cls-20" d="M683.73,139.35,682.4,142Z"/><path class="cls-11" d="M328.63,601l1.08,2.7Z"/><path class="cls-20" d="M772.55,148l-1.35-2.53Z"/><path class="cls-20" d="M680.49,146.17,679.17,149Z"/><path class="cls-11" d="M216.83,603.13l2.2,1.49Z"/><path class="cls-20" d="M678.53,150.19,677.07,153Z"/><path class="cls-14" d="M722.06,568.78l-2,.51Z"/><path class="cls-20" d="M767.29,174.66c.43-.89.87-1.79,1.31-2.68C768.16,172.87,767.72,173.77,767.29,174.66Z"/><path class="cls-20" d="M764.39,180.75l1.37-2.76Z"/><path class="cls-20" d="M663.6,180.23,662.23,183Z"/><path class="cls-12" d="M618,322l-2.11-.42Z"/><path class="cls-20" d="M661.69,184.31c-.44.9-.87,1.81-1.31,2.72C660.82,186.12,661.25,185.21,661.69,184.31Z"/><path class="cls-12" d="M553,321.92l1.94-.05Z"/><path class="cls-16" d="M213.34,194l1.39,2.69Z"/><path class="cls-11" d="M285.63,608.74,283,609c0-.59,0-1.17,0-1.76Z"/><path class="cls-20" d="M678.27,212.64l1.39-2.66Z"/><path class="cls-4" d="M458.8,216c-.51-.89-1-1.78-1.53-2.66Z"/><path class="cls-20" d="M676.34,216.72c.47-.91.93-1.82,1.39-2.73C677.27,214.9,676.81,215.81,676.34,216.72Z"/><path class="cls-20" d="M671.34,226.71c.48-.9.95-1.81,1.43-2.72C672.29,224.9,671.82,225.81,671.34,226.71Z"/><path class="cls-20" d="M660.28,230.34l2.74,1.33Z"/><path class="cls-11" d="M203.46,588.2l2.47,2Z"/><path class="cls-14" d="M465.41,571.24,468,573Z"/><path class="cls-11" d="M319,573.85l2-1Z"/><path class="cls-9" d="M300.6,258.35,299.31,261Z"/><path class="cls-12" d="M295.66,271.57c-.45.85-.9,1.69-1.36,2.53C294.76,273.26,295.21,272.42,295.66,271.57Z"/><path class="cls-9" d="M316.83,277l-1.5-2.63Z"/><path class="cls-12" d="M290.06,283.1l-2,1Z"/><path class="cls-12" d="M258.14,287.64,256,288Z"/><path class="cls-14" d="M491.16,619c.59.75,1.17,1.5,1.76,2.24C492.33,620.45,491.75,619.7,491.16,619Z"/><path class="cls-9" d="M641,293.05l2.12-2Z"/><path class="cls-9" d="M638.1,296.23l2-2.21Z"/><path class="cls-18" d="M658.36,517.85l-2.22-2.19Z"/><path class="cls-18" d="M591,517.58l-2.07.13Z"/><path class="cls-14" d="M732.06,519.76l-2.83.73Z"/><path class="cls-11" d="M159.71,516c-.32-.65-.64-1.29-1-1.93Z"/><path class="cls-14" d="M726.05,521.54l-2.74,1.1Z"/><path class="cls-11" d="M171.93,524.22l-2-.78Z"/><path class="cls-13" d="M756.35,529.72l1.43-2.73Z"/><path class="cls-14" d="M287.35,442.85,285,442Z"/><path class="cls-12" d="M573,315.15a5.41,5.41,0,0,1,0,.9l-2.1-1.29Z"/><path class="cls-18" d="M673.24,529.9,671,528.16Z"/><path class="cls-14" d="M715.91,527.81,714.15,530Z"/><path class="cls-11" d="M182,531,180,529.09Z"/><path class="cls-9" d="M384,311.27l-1,1.36-1.1-1.21Z"/><path class="cls-12" d="M275.89,312.62,278,312Z"/><path class="cls-18" d="M323.37,692.13l-.24,1.82Z"/><path class="cls-9" d="M615,310l2,.39Z"/><path class="cls-20" d="M451.5,531.06l1.87,1-2,.22C451.42,531.87,451.46,531.47,451.5,531.06Z"/><path class="cls-9" d="M602.05,306.87l2,.43Z"/><path class="cls-9" d="M597.05,305.84l2,.55Z"/><path class="cls-9" d="M589,304.94l2,.44Z"/><path class="cls-14" d="M681,600.7l2.2-1.62Z"/><path class="cls-16" d="M546.63,183l-1.12-.51,1.12-.51Z"/><path class="cls-15" d="M214.44,125.07l-.65.37c.21-.15.43-.29.65-.43Z"/><path class="cls-24" d="M64.18,224.46c-.76-.44-1.71-.66-2.09-1.25a97.39,97.39,0,0,1-6.91-11.53c-.51-1.09.81-3.92,2.09-4.8,7.52-5.21,15.3-10.06,23-15.08,2.26-1.48,3.7-1.11,5.4,1.08,9.45,12.18,9.52,12.16-3.07,20.31-5,3.26-10.13,6.41-15.21,9.58C66.38,223.37,65.34,223.85,64.18,224.46Z"/><path class="cls-22" d="M116.11,241a20.75,20.75,0,0,1-3.06,3.22c-7.45,5-15,9.73-22.44,14.76-2.83,1.91-4.52,1.12-6-1.45C76.13,243.39,74.49,247.62,88,238c4.73-3.36,9.7-6.38,14.55-9.57,2.88-1.9,5.2-1.67,7,1.55C111.61,233.58,113.78,237.09,116.11,241Z"/><path class="cls-25" d="M280.8,170.85c-.8-.88-2.55-1.92-2.87-3.3-4.07-17.63-8-35.29-11.67-53-.27-1.31,1.56-4.17,2.86-4.5,10.28-2.56,20.66-4.77,31.06-6.83,1-.2,3.23,1.1,3.46,2.05,2.6,10.95,4.87,22,7.35,33,1.53,6.79,3.2,13.54,4.92,20.28.9,3.53.46,5.39-3.88,6.07-9.16,1.43-18.21,3.6-27.31,5.47Z"/><path class="cls-22" d="M741.08,165.65c-2.46,4.72-4.56,9-7,13.15-.33.57-2.55.58-3.54.11-8.4-4-16.69-8.24-25-12.34-2.48-1.21-3-2.91-1.72-5.27.62-1.17,1.21-2.36,1.8-3.55,4.5-9.09,4.53-9.15,13.45-4.68,6.24,3.13,12.4,6.42,18.55,9.73A26.36,26.36,0,0,1,741.08,165.65Z"/><path class="cls-24" d="M324,540.27c-4.82-1.12-9.89-1.72-13.07-6.27l.24-6.63c11-3.51,22-6.89,32.93-10.57a226.6,226.6,0,0,0,21.85-8.2c7.34-3.36,10.83-9.22,11.15-17.81.58-15.79-3.87-30.5-7.55-45.5-1.51-6.14-1.41-12.71-1.75-19.1-.06-1.14,1.29-2.35,2-3.53a31.65,31.65,0,0,1,2.88,2.38c4.88,5,3.12,12,5,17.86,1.16,3.56,1.52,7.39,2.23,11.1q1.45,5.31,2.89,10.61l3,11.45c.7,2.32,1.41,4.64,2.11,7q1.19,6,2.36,12c.28.66.57,1.32.85,2,.3,1.68.61,3.36.91,5,2.66,8.41.24,15.86-4.29,22.91l-.84.94-2.52,2L380,530.28l-2,.75-3,.48-2,.59-3,.64L363,534l-20,6.15-1,.18-2,.8-5.08.53-1.85,0Z"/><path class="cls-24" d="M330.14,559c-.19-.7-.38-1.41-.56-2.11l3.54-5.79,2.93-1.92,7-2.87,12-2.52,2-.65,4-.8,4-.33,7-1.44,5-1.46,2-.41,2.84-1.15c15.42-4.12,23.63-18.07,19.3-33.41-4.9-17.38-10.16-34.65-15.22-52a41,41,0,0,1-2-8.69c-.1-1.69.84-4.31,2.12-5s4.39.09,5.13,1.23a51.73,51.73,0,0,1,4.91,10.65,89.81,89.81,0,0,1,2.28,9.66c.24.67.48,1.33.73,2,.82,2.66,1.65,5.32,2.47,8,.59,1.64,1.18,3.27,1.78,4.91.09.74.19,1.49.29,2.24.42,1,.83,1.95,1.24,2.93l.41,1.94q1.37,4.5,2.75,9l2.14,8c.42,1,.83,1.92,1.24,2.88.08.39.17.78.25,1.17.39,1.34.79,2.68,1.19,4l.81,3.07c.42,1.3.83,2.61,1.25,3.91l1.62,7.94,0,7-.29,2-8.41,13.24-5.74,3.9L397,551l-6,2.21-2.88,1.08a.45.45,0,0,0-.61,0l-.37,0-1.16.31-1,.38-5.13,1.25-6.71,1.77h-1l-2.11.27-2,.72-5,.73L356,561l-7,.65-3.06.27-2,.19-2,0-5-.19-3-.38-1.92-.74Z"/><path class="cls-24" d="M437.83,555.93,420,570l-3.85,1.42c-5.35.82-10.69,1.75-16,2.42-5.89.72-10.21-1.88-13.24-6.83.22-1,.43-1.92.65-2.88l3.6-4.79,2.5-1.45,1.24-.34L399,556l4.22-1.27,2.76-1,2.8-1.24,1.2-.59,3.1-1.8c.62-.41,1.24-.82,1.87-1.22l2.38-1.82c5.91-4.81,7.55-11.58,7.36-18.57-.17-6.36-1.64-12.69-2.54-19l2.93-.68a62.09,62.09,0,0,1,16.18,30.22l-1.32,12-.67,2a.72.72,0,0,0-.34.84Z"/><path class="cls-19" d="M272,556c1.64-3.62,6-4.73,12.36-3.86,2.3.31,5.66,0,6.94-1.44s.23-4.56.17-7c0-.47-.37-.94-.39-1.42-.32-6.1-.61-12.21-.94-18.92L293,522c1.44-.11,3-.57,4.31-.24A24.12,24.12,0,0,1,302,524v1l-2,3c.38,2.14.75,4.29,1.19,6.82L305,535c-.91,1.7-1.41,3.92-2.8,5-5,3.89-6.83,9.27-4.28,15.08,6.28-2.73,4.5-8.72,5.41-13.44,5-.37,7.24,1.41,6.8,6.54-.15,1.72,1.17,3.57,1.9,5.33s1.58,3.59,1.89,4.3c-3.68,2.53-6.34,4.43-9.09,6.2-.76.49-2.22,1.09-2.6.76-4.38-3.74-7.21-.14-10.44,1.93a13.47,13.47,0,0,1-3.11,1.21c-1.13-2.9-2-5.13-2.86-7.35l-5.92,3.92C273.16,563.53,272.49,562.9,272,556Z"/><path class="cls-13" d="M417.33,547,415,548.82a17.72,17.72,0,0,0-1.86-2.68c-.14-.14-1.21.62-1.85,1l1.84,2.94-3.1,1.8-2.19-7.61L416.2,531c4.47.76,3.93,3.53,2.53,6.51S414.94,543.41,417.33,547Z"/><path class="cls-13" d="M387.78,524.9c4.53-7,7-14.5,4.29-22.91a5.61,5.61,0,0,1,1.71.87c3.19,3.7,3.6,18.34.12,21.68C392.78,525.62,389.87,524.83,387.78,524.9Z"/><path class="cls-26" d="M305,535l-3.81-.19c-.44-2.53-.81-4.68-1.19-6.82l2-3v-1l5.26,4v-3.32l1-.68c.95,1.12,1.91,2.24,2.86,3.37l-.24,6.63Z"/><path class="cls-23" d="M343,546.26l-7,2.87c-.37-2.51-.73-5-1.1-7.51l5.08-.53,2-.8,1-.18Z"/><path class="cls-20" d="M439.94,551l1.32-12L442,537c.65.09,1.61-.06,1.91.31,1.68,2.14-.49,12.62-2.94,14.68Z"/><path class="cls-13" d="M382.81,464.61q-1.44-5.3-2.89-10.61c3.78.65,4.49,3.12,3.8,6.41C383.42,461.81,383.11,463.21,382.81,464.61Z"/><path class="cls-13" d="M363,534l7-1.22c.18,1.56.36,3.11.69,5.85Z"/><path class="cls-13" d="M408,491q-1.38-4.51-2.75-9C407.07,484.72,412.13,486.46,408,491Z"/><path class="cls-13" d="M388,483l-2.11-7C392.73,476.5,388.55,480.31,388,483Z"/><path class="cls-13" d="M404.86,480.05c-.41-1-.82-2-1.24-2.93,2.1-2.2,3.67-1.68,5.09,1.13Z"/><path class="cls-13" d="M403.33,474.88c-.6-1.64-1.19-3.27-1.78-4.91l4.2.39C404.8,472.12,404.06,473.5,403.33,474.88Z"/><path class="cls-13" d="M412.84,507.06c-.4-1.34-.8-2.68-1.19-4l4,.35.45,1.16Z"/><path class="cls-13" d="M416.49,529l0-7Z"/><path class="cls-13" d="M377,539.06l-5,1.46Z"/><path class="cls-13" d="M365,542l-4,.33Z"/><path class="cls-13" d="M414.9,514c-.42-1.3-.83-2.61-1.25-3.91C416.9,510.53,416.43,512.12,414.9,514Z"/><path class="cls-13" d="M425.08,508.72l-2.93.68,1.31-2.23Z"/><path class="cls-13" d="M381.83,537.5,379,538.65Z"/><path class="cls-13" d="M391.16,497l-.85-2Z"/><path class="cls-13" d="M357,543.09l-2,.65Z"/><path class="cls-13" d="M411.4,501.87c-.41-1-.82-1.92-1.24-2.88C410.58,500,411,500.91,411.4,501.87Z"/><path class="cls-13" d="M399.08,462c-.25-.67-.49-1.33-.73-2C398.59,460.65,398.83,461.31,399.08,462Z"/><path class="cls-13" d="M384.42,527.81l2.52-2Z"/><path class="cls-13" d="M378,531l2-.75Z"/><path class="cls-13" d="M373,532.1l2-.59Z"/><path class="cls-22" d="M187.32,137.18a13.16,13.16,0,0,1,2.3,1.17,4.74,4.74,0,0,1,1,1.68c6.37,12.37,6,13.44-6.77,18.81-5.5,2.31-11.12,4.34-16.69,6.49-.61.24-1.29.71-1.87.63-6.67-1-5.11-7.65-7.58-11.53-.7-1.09.22-4.73,1.32-5.24C167.93,145,177,141.33,186,137.5A11.87,11.87,0,0,1,187.32,137.18Z"/><path class="cls-13" d="M186.53,231.63c.07.13.21.27.2.39s-.17.23-.27.35C186.49,232.12,186.51,231.87,186.53,231.63Z"/><path class="cls-16" d="M459,149l2-8C462.28,144.14,462.21,147,459,149Z"/><path class="cls-16" d="M481.57,59.41h3.83c0,.38.07.75.1,1.12l-3.85.36Z"/><path class="cls-16" d="M458,165v-4c.64.74,1.54,1.41,1.79,2.27C459.9,163.65,458.64,164.41,458,165Z"/><path class="cls-16" d="M466,92c-.34-1.34-.67-2.67-1-4C465.33,89.33,465.66,90.66,466,92Z"/><path class="cls-16" d="M487.8,60.24l1.79.43-.22.83L487.6,61Z"/><path class="cls-24" d="M517.29,449.14c.61-3.9,1.5-7.77,1.76-11.69.44-6.73,3.35-11.93,9.39-17,.7,3.47,1.95,6.08,1.59,8.43-1.52,9.8-3.07,19.63-5.48,29.23a121.85,121.85,0,0,0-3.72,33.08c.21,8,4.11,13.59,11,16.41,9.17,3.75,18.78,6.42,28.19,9.56l.91.14,4.11,1.33,4.12.93,10.77,2.68q2.57,1.32,5.14,2.63c.83,1,1.67,2,2.51,2.95.22,6-3.36,8.89-8.54,10.49l-3,.8-5,1.18c-7-.87-14.15-1.35-21.09-2.72-8.27-1.64-16.31-4.49-24.59-6-16-2.95-23.61-14.22-19.83-30,2.66-11.13,5.19-22.28,7.77-33.43.36-1.36.71-2.72,1.07-4.09l.46-1.78q1.07-5.61,2.14-11.22C517.06,450.38,517.17,449.76,517.29,449.14Z"/><path class="cls-22" d="M568.91,555c-1.29,5.88-6.27,6-10.59,6-6.43.06-12.87-.75-19.31-1.19l-5-.93-5-.64-3.83-1L503,551.58c-3.55-2.12-7.08-4.27-10.63-6.37-8-4.71-11.05-11.87-10.92-20.9.14-10.5,3.73-20.14,6.63-30,4.76-16.16,8.88-32.5,13.5-48.71a18,18,0,0,1,4.14-6.95c1.13-1.22,3.95-2.39,5-1.79,1.54.87,2.3,3.28,3.11,5.16.35.83,0,2,0,2.95a10.17,10.17,0,0,0-.85,1.76q-7.71,26.82-15.38,53.67c-4.24,15-.47,27,11.64,33.14,6.84,3.45,14.61,5.28,22.15,7.06,12.2,2.86,25.2,3,35.69,11.24Z"/><path class="cls-20" d="M567.08,551.82c-10.49-8.24-23.49-8.38-35.69-11.24-7.54-1.78-15.31-3.61-22.15-7.06-12.11-6.12-15.88-18.18-11.64-33.14q7.62-26.86,15.38-53.67a10.17,10.17,0,0,1,.85-1.76l3.46,4.19c-.12.62-.23,1.24-.34,1.86-5.25,1.81-6.13,6.41-2.14,11.22-.16.6-.31,1.19-.46,1.78l-3,2.52,1.91,1.57c-2.58,11.15-5.11,22.3-7.77,33.43-3.78,15.8,3.85,27.07,19.83,30,8.28,1.52,16.32,4.37,24.59,6,6.94,1.37,14.06,1.85,21.09,2.72C572,544.92,569.67,548.41,567.08,551.82Zm-.27-8.74c-.49-.4-.8-.83-1.13-.85s-.81.29-1.22.45c.36.39.65.9,1.09,1.12C565.76,543.9,566.24,543.42,566.81,543.08Z"/><path class="cls-20" d="M584,580c-.33-1.31-.65-2.63-1-4l8.45,1.65c-.9,2.22-1.82,4.46-2.86,7C587.13,582,584.87,579.83,584,580Z"/><path class="cls-18" d="M579.91,522.22l-10.77-2.68C573,519.42,577.08,518.29,579.91,522.22Z"/><path class="cls-18" d="M587.56,527.8c-.84-1-1.68-2-2.51-2.95,1-1.16,2-2.33,3-3.49l1.2.29Z"/><path class="cls-18" d="M633.08,481.2c.33.57.8,1.05.7,1.25-.21.43-.71.73-1.09,1.08-.17-.41-.48-.82-.45-1.2S632.68,481.7,633.08,481.2Z"/><path class="cls-20" d="M583.11,572.8c-.39-.47-.82-.75-.86-1.08s.27-.8.42-1.21c.39.33.91.6,1.13,1C583.9,571.73,583.44,572.22,583.11,572.8Z"/><path class="cls-20" d="M576,539.09l3-.8Z"/><path class="cls-20" d="M600.25,582.63c-.28-.12-.7-.18-.78-.38s.19-.53.31-.8c.27.12.7.18.78.37S600.37,582.35,600.25,582.63Z"/><path class="cls-18" d="M634.62,487.27c-.28.11-.63.37-.82.28s-.24-.51-.34-.79c.27-.11.62-.36.81-.28S634.51,487,634.62,487.27Z"/><path class="cls-18" d="M630.66,488.5c.07.64.12,1.05.16,1.46-.24-.16-.61-.28-.69-.5S630.37,489,630.66,488.5Z"/><path class="cls-20" d="M606.75,585.17c-.13,0-.33.13-.36.09a1.25,1.25,0,0,1-.15-.41c.13,0,.33-.14.36-.1A1.4,1.4,0,0,1,606.75,585.17Z"/><path class="cls-24" d="M456.66,540l.48-6.64L458,532c4.53-7.47,9-15,13.68-22.36.58-.91,2.23-1.14,3.38-1.69a19.72,19.72,0,0,1,.33,3.8c-.52,5.13-1.72,10.25-1.68,15.36.08,9.08,1.95,17.61,11.23,22.2l5.08,2.77,11,3.76,1.83.76,7.13,4.72c2.6,6.22,1.19,8.75-6.91,12.41L501,574h-6l-4-.36-3-.5-2-.73-17.35-7.66-2.59-1.8L458.65,553c-.39-.94-.77-1.88-1.16-2.83-.29-2.39-.57-4.78-.86-7.18Z"/><path class="cls-20" d="M484.89,549.31c-9.28-4.59-11.15-13.12-11.23-22.2,0-5.11,1.16-10.23,1.68-15.36A19.72,19.72,0,0,0,475,508a5.13,5.13,0,0,1,0-1c3.28,1,4.06,3.38,4,6.53-.12,6.57-.64,13.21.18,19.68.45,3.54,3.51,6.69,5,10.19C484.9,545.15,484.68,547.32,484.89,549.31Z"/><path class="cls-20" d="M510,561.32l-7.13-4.72.21-5,22.12,5.75c-1,.69-2.6,2.19-3,1.92-4.21-2.71-7.74-2.55-10.77,1.73C511.15,561.28,510.44,561.21,510,561.32Z"/><path class="cls-20" d="M501,555.84l-11-3.76C494.61,548.92,498.15,550.12,501,555.84Z"/><path class="cls-19" d="M560.91,517.28l-.91-.14c-.11-1.88-.23-3.77-.35-5.65h2.51C561.67,513.78,561.29,515.53,560.91,517.28Z"/><path class="cls-24" d="M540,565.25c6.73.81,11.26,4.43,13.71,10.72.14.66.27,1.32.41,2l.27,2c.23,1.66.45,3.33.67,5l.07,12.08c-.23,1.32-.45,2.65-.68,4C552,613.64,543.84,620.86,532,624.59l-2,.59-8,1.21-6-.11-2-.24-2-.45-2-.61-2-.72-1.34-.51-2.66-1.5L501.06,620c-.73-.86-1.46-1.71-2.18-2.57L497,615l-1.21-2c-.49-.91-1-1.81-1.46-2.72l-.51-1.29c-.28-.67-.57-1.33-.85-2-.51-2-1-4-1.52-6-.18-.67-.37-1.34-.56-2s-.15-1.34-.22-2l-.15-5a40.77,40.77,0,0,1,2.23-6c3-5.49,6.84-6.34,12.09-2.93l1.63,2.82c.36,1.09.72,2.18,1.07,3.28L510,600q2,4,4.06,8l2.93,3,0,0c2.49,2.81,5.5,3.39,8.95,2.1l2-.94,3-3.13c.31-.67.63-1.34.94-2,.32-1,.64-2,.95-3q.06-4.5.11-9c-.37-1.32-.74-2.64-1.1-4q-1.23-4.1-2.45-8.19L528.12,579l-.25-4c1-5.75,4.93-8.34,10.1-9.7Z"/><path class="cls-24" d="M372,626.21l-2-.26-7-1.78-5-2.11-2-1.13L346.93,611c-.67-1.66-1.34-3.33-2-5l-.93-3-.26-20,.7-4.88c.31-1,.62-2,.94-3s.89-1.94,1.33-2.9c1.08-1.12,2.16-2.23,3.23-3.35l4.8-2.48,8,.41,7.17,6.42.21,1.77v2c-.73,3-1.47,6-2.2,9-.24.69-.48,1.37-.71,2.06-.4,1.32-.79,2.65-1.18,4-.16,5.16-1.43,10.59-.24,15.42,1.94,7.88,10.37,9.93,16.48,4.5,5.58-4.95,8.08-11.51,8.25-18.95a37.85,37.85,0,0,0,1.39-4.22c1-5,3.92-7.41,9.12-6.77l2,1.09c1.56,2.84,4.51,5.71,4.44,8.51-.23,9.95-1.89,19.75-9.23,27.45l-3.4,3.56.19.19-.23-.13L385,626.21l-3,.81-6,0Z"/><path class="cls-22" d="M519,605.41,516.07,603l-1.69-2.78-.06-.22q-.77-7-1.52-14l5.67-5.81c1.95,2.29,4,4.53,5.83,6.87a18.92,18.92,0,0,1,1.61,3l.8,2.07.57,2.88.54,2.08c0,.63,0,1.26,0,1.89-.4,1.36-.81,2.71-1.22,4.07a.5.5,0,0,0-.51.61Z"/><path class="cls-13" d="M390.5,593c-.17,7.44-2.67,14-8.25,18.95-6.11,5.43-14.54,3.38-16.48-4.5-1.19-4.83.08-10.26.24-15.42l2.72.63c-2.89,6.19-2.45,9.81,1.65,13.06.41-1.33.79-2.53,1.17-3.74,3.77,5.58,8.49,5.34,11.4-.72a82.66,82.66,0,0,0,3-8.25Z"/><path class="cls-22" d="M386,593a82.66,82.66,0,0,1-3,8.25c-2.91,6.06-7.63,6.3-11.4.72.18-3,.37-6,.55-8.92l1.17-3.91,2-4,2-3c.28-.3.55-.6.83-.89l2.91-.32.14.3.34,0L384,584h0c.64,1.67,1.27,3.34,1.91,5C385.9,590.35,385.93,591.67,386,593Z"/><path class="cls-23" d="M378.1,581.23c-.28.29-.55.59-.83.89l-3.71.18c-.44.56-.88,1.13-1.33,1.69l3.07,1.1-2,4-2.76.57L372.1,593c-.18,3-.37,6-.55,8.92-.38,1.21-.76,2.41-1.17,3.74-4.1-3.25-4.54-6.87-1.65-13.06L366,592c.39-1.33.78-2.66,1.18-4l.71-2.06c.73-3,1.47-6,2.2-9l2.89,0,7,2Z"/><path class="cls-23" d="M362.72,566.8l-8-.41c-2.28-.27-5-4.91-6.72.62q-2-2.43-4-4.88l2-.19,3.06-.27,7-.65c2.69,1.54,5.18,1.94,7-1.25l5-.73,2-.72,2.11-.27c-.42,2.84-1,5.14-4.95,4.25C364,561.6,362.88,564,362.72,566.8Z"/><path class="cls-20" d="M512.8,586q.75,7,1.52,14L510,600l-2.49-10.84Z"/><path class="cls-23" d="M393.61,557.89l-2.5,1.45L387.93,556c-.13-.55-.26-1.1-.4-1.65a.44.44,0,0,1,.61,0l2.88-1.09,6-2.21,2.73,1.85c-.24,1-.48,2.07-.72,3.13l-4.15,1.59-.77-1.92C393.92,556.39,393.76,557.14,393.61,557.89Z"/><path class="cls-11" d="M343.74,583q.12,10,.26,20l-2-1c0-1.66,0-3.33,0-5l0-3c0-1.33,0-2.66,0-4,0-2,0-4,0-6Z"/><path class="cls-23" d="M386,567l-8.36,2.85c.85-4.92,4-7,8.38-5.89C386,565,386,566,386,567Z"/><path class="cls-20" d="M519,605.41l7.12-1.77c4.6,1.74,1.85,3.79.45,5.66Z"/><path class="cls-23" d="M370.1,575l-.21-1.77c0-.74.08-1.48.11-2.22.32-.32.63-.64.94-1l4.07,1.33L373,575Z"/><path class="cls-23" d="M373.16,558.05l6.71-1.77.19,1.68c-1.78,1.45-3.55,2.9-5.67,4.65C374,561.08,373.57,559.56,373.16,558.05Z"/><path class="cls-13" d="M348,567c1.74-5.53,4.44-.89,6.72-.62l-4.8,2.48Z"/><path class="cls-20" d="M519.36,571.36l-3.62-4.07,1.69-1.55,3.69,4Z"/><path class="cls-23" d="M343.74,583,342,584c-.72-2.59-3.25-5.93,2.43-5.9C344.2,579.76,344,581.38,343.74,583Z"/><path class="cls-20" d="M526,613.07c-3.45,1.29-6.46.71-8.95-2.1Z"/><path class="cls-11" d="M363,624.17l7,1.78C367.05,627.81,364.68,627.34,363,624.17Z"/><path class="cls-27" d="M310,625l-5-1,3.26-3.66Z"/><path class="cls-13" d="M385.88,589c-.64-1.68-1.27-3.35-1.91-5l3.93,2.85C387.22,587.59,386.55,588.31,385.88,589Z"/><path class="cls-20" d="M529,558.3l5,.64c-1,.67-2,1.74-3.08,1.85C530.36,560.85,529.64,559.18,529,558.3Z"/><path class="cls-23" d="M342,597c0,1.66,0,3.33,0,5l-2-.65Z"/><path class="cls-20" d="M528.12,579l1.34,3.87-3.2-1.66Z"/><path class="cls-23" d="M346.71,572.22c-.44,1-.89,1.93-1.33,2.9l-3-.75-.1-1.28Z"/><path class="cls-20" d="M526.62,603c.41-1.36.82-2.71,1.22-4.07l2,1.59Z"/><path class="cls-11" d="M344.93,606c.66,1.66,1.33,3.33,2,5C344.54,610,343.27,608.62,344.93,606Z"/><path class="cls-13" d="M380.06,558l-.19-1.68L385,555c-.69,1-1.37,2-2.05,2.93Z"/><path class="cls-14" d="M490.53,592l.15,5C488.15,595.41,488.31,593.72,490.53,592Z"/><path class="cls-20" d="M487,583c0-.34,0-.69,0-1l1.82-1.75,1,1.45Z"/><path class="cls-23" d="M342,590c0,1.33,0,2.66,0,4-.64-.59-1.89-1.35-1.78-1.72C340.45,591.41,341.36,590.74,342,590Z"/><path class="cls-11" d="M372,626.21l4,.85Z"/><path class="cls-20" d="M517,610.93l-2.93-3C517.94,606.12,516.71,609.29,517,610.93Z"/><path class="cls-23" d="M383,558c.68-1,1.36-2,2.05-2.93l1-.38C385.77,556.48,386.6,559.29,383,558Z"/><path class="cls-14" d="M491,573.63l4,.36Z"/><path class="cls-20" d="M531.91,591c.36,1.33.73,2.65,1.1,4C532.64,593.68,532.27,592.36,531.91,591Z"/><path class="cls-20" d="M487,606l-1-4Z"/><path class="cls-20" d="M531,609l-3,3.13Z"/><path class="cls-11" d="M416.15,571.42,420,570Z"/><path class="cls-13" d="M370.1,575l2.9,0c0,.66,0,1.32,0,2l-2.89,0Z"/><path class="cls-20" d="M532.9,604c-.31,1-.63,2-.95,3C532.27,606,532.59,605,532.9,604Z"/><path class="cls-14" d="M456.66,540l0,3C454.36,542,454.38,541,456.66,540Z"/><path class="cls-13" d="M378.1,581.23,380,579c.33.64.66,1.27,1,1.9Z"/><path class="cls-13" d="M394.78,622.59l2.31,2.12-1.35.93c-.33-1-.67-2-1-3l.23.13Z"/><path class="cls-11" d="M382,627l3-.81Z"/><path class="cls-13" d="M386,567c0-1,0-2,0-3l1.51.13c-.22,1-.43,1.92-.65,2.88C386.57,567,386.27,567,386,567Z"/><path class="cls-14" d="M497,615l1.87,2.43Z"/><path class="cls-13" d="M384,584l-2.49-2.85Z"/><path class="cls-13" d="M403,583.07,401,582Z"/><path class="cls-20" d="M506.48,585.88l-1.63-2.82Z"/><path class="cls-14" d="M439.94,551l1,1-1.71,1Z"/><path class="cls-14" d="M457.49,550.2c.39.95.77,1.89,1.16,2.83C458.26,552.09,457.88,551.15,457.49,550.2Z"/><path class="cls-14" d="M501,574l2.05-.27Z"/><path class="cls-20" d="M526.71,592.11l-.8-2.07Z"/><path class="cls-14" d="M466,562.94l2.59,1.8Z"/><path class="cls-20" d="M527.82,597.07l-.54-2.08Z"/><path class="cls-14" d="M490.9,599c.19.67.38,1.34.56,2C491.28,600.37,491.09,599.7,490.9,599Z"/><path class="cls-20" d="M514.38,600.19l1.69,2.78Z"/><path class="cls-14" d="M493,607c.28.67.57,1.33.85,2C493.55,608.34,493.26,607.68,493,607Z"/><path class="cls-14" d="M494.34,610.3c.48.91,1,1.81,1.46,2.72C495.31,612.11,494.82,611.21,494.34,610.3Z"/><path class="cls-14" d="M486,572.4l2,.73Z"/><path class="cls-13" d="M351.63,621.75c-.12.28-.18.7-.37.78s-.54-.19-.81-.31c.11-.27.17-.7.37-.78S351.36,621.63,351.63,621.75Z"/><path class="cls-11" d="M356,620.93l2,1.13Z"/><path class="cls-13" d="M354.61,625.73c-.12.28-.18.7-.38.78s-.53-.19-.81-.31c.13-.28.19-.71.38-.79S354.34,625.61,354.61,625.73Z"/><path class="cls-13" d="M362.63,627.75c-.12.28-.18.7-.38.78s-.53-.19-.8-.31c.12-.27.17-.7.37-.78S362.35,627.63,362.63,627.75Z"/><path class="cls-13" d="M409.77,577.31h1.48v.38h-1.48Z"/><path class="cls-14" d="M437.83,555.93l1.1-2.06Z"/><path class="cls-13" d="M370.94,570c-.31.33-.62.65-.94,1C370.32,570.68,370.63,570.36,370.94,570Z"/><path class="cls-13" d="M387.53,554.3c.14.55.27,1.1.4,1.65l-.77-1.61Z"/><path class="cls-18" d="M499,441l-.4-.24.42.22Z"/><path class="cls-20" d="M458,532l-.81,1.34Z"/><path class="cls-13" d="M430.6,79.73c-.12.28-.18.7-.37.78a.84.84,0,0,1-.75-.33.81.81,0,0,1,.33-.76C430,79.34,430.33,79.62,430.6,79.73Z"/><path class="cls-13" d="M648,599h6C652,600.21,650,603.15,648,599Z"/><path class="cls-14" d="M592.47,620.45h-2.86v-.9h2.86Z"/><path class="cls-16" d="M268,608l-7-.1,2.35-3.88Z"/><path class="cls-9" d="M502,320l-1.91,0c-1.84-1.33-2-2.68-.06-4.07C500.66,317.34,501.32,318.68,502,320Z"/><path class="cls-15" d="M335,541.62c.37,2.5.73,5,1.1,7.51l-2.93,1.92L327,551l6-8c0-.47.07-.94.1-1.41Z"/><path class="cls-19" d="M327,551l6.11.06-3.54,5.79-5.49-2.3Q325.56,552.77,327,551Z"/><path class="cls-13" d="M333.1,541.57c0,.47-.07.94-.1,1.41l-9-2.71Z"/><path class="cls-13" d="M307.07,586.94,305,584l.48-3.54,1.59,0Z"/><path class="cls-15" d="M322.45,548.34v-4.71h1v4.71Z"/><path class="cls-13" d="M311.76,582.11l-1-3.34,1.54-.5c.38,1.07.77,2.13,1.15,3.19Z"/><path class="cls-13" d="M330.14,559l1.9,1.92-2.21.29C329.93,560.43,330,559.69,330.14,559Z"/><path class="cls-15" d="M315.18,542l1.31.65a4.65,4.65,0,0,1-1,1.13c-.15.09-.83-.38-.93-.7S314.91,542.44,315.18,542Z"/><path class="cls-26" d="M248.94,511l3.07-2c0,.66,0,1.33,0,2Z"/><path class="cls-13" d="M334,561.61l3,.38Z"/><path class="cls-13" d="M310,584.17l1.19.91c-.29.27-.66.81-.85.75a2.08,2.08,0,0,1-.91-.9C309.4,584.85,309.78,584.49,310,584.17Z"/><path class="cls-14" d="M242.6,527.74c-.12.27-.18.68-.38.76s-.51-.19-.78-.31c.12-.27.18-.68.37-.76S242.33,527.62,242.6,527.74Z"/><path class="cls-26" d="M242.25,532.63c-.28-.12-.7-.18-.78-.37s.19-.54.31-.81c.27.11.7.17.78.37S242.37,532.36,242.25,532.63Z"/><path class="cls-14" d="M237,524.86c0-.6,0-1.2,0-1.8Z"/><path class="cls-13" d="M252,511c0-.67,0-1.34,0-2h1c0,.67,0,1.33,0,2Z"/><path class="cls-2" d="M419,280h-6c.34-5.1.48-10.23,1.14-15.29.17-1.32,1.93-2.42,3-3.63,1,1.27,2.74,2.54,2.74,3.82C419.86,269.93,419.32,275,419,280Z"/><path class="cls-22" d="M348,702.34a30.1,30.1,0,0,0-4.91-.25c-4.79.48-6.41-1.6-5.3-6.13l1.16-1,10-.29c1.29.12,2.8-.13,3.83.46a22.61,22.61,0,0,1,3.84,3.45c-1.25,1.16-2.33,2.7-3.8,3.36S349.67,702.24,348,702.34Z"/><path class="cls-18" d="M349,694.66,339,695c.59-2.74,1.64-5.12,5.07-4.37C346.29,691.07,349.77,690.4,349,694.66Z"/><path class="cls-14" d="M516,626.28l6,.11C520,628.9,518,629,516,626.28Z"/><path class="cls-14" d="M555.09,585c-.22-1.66-.44-3.33-.67-5Z"/><path class="cls-14" d="M554.48,601c.23-1.32.45-2.65.68-4C554.93,598.37,554.71,599.7,554.48,601Z"/><path class="cls-23" d="M555,625l-2,1c.12-.85.24-1.69.35-2.54Z"/><path class="cls-14" d="M540,565.25l-2.06,0Z"/><path class="cls-14" d="M504,622.25l2.66,1.5Z"/><path class="cls-14" d="M554.15,578c-.14-.66-.27-1.32-.41-2C553.88,576.63,554,577.29,554.15,578Z"/><path class="cls-14" d="M508,624.26l2,.72Z"/><path class="cls-14" d="M530.06,625.18l2-.59Z"/><path class="cls-14" d="M512,625.59l2,.45Z"/><path class="cls-6" d="M416.92,315.34,414,317.1l-.84-1.4L416.1,314C416.37,314.44,416.64,314.89,416.92,315.34Z"/><path class="cls-28" d="M348,76l-.21.42L348,76Z"/><path class="cls-17" d="M189.45,236.33l-.21-.31.47-.24c0,.12.08.27,0,.37S189.56,236.27,189.45,236.33Z"/><path class="cls-16" d="M288,616l2,1Z"/><path class="cls-13" d="M342,540.29l-2,.8Z"/><path class="cls-23" d="M407.79,544.23l2.19,7.61-1.2.59-2.8,1.24-2.76,1-1.17-6.56Z"/><path class="cls-13" d="M402.05,548.13l1.17,6.56L399,556c.24-1.06.48-2.11.72-3.13L397,551Z"/><path class="cls-13" d="M363.05,559.77c-1.86,3.19-4.35,2.79-7,1.25Z"/><path class="cls-13" d="M349,561.67l-3.06.27Z"/><path class="cls-13" d="M391,553.19l-2.88,1.09Z"/><path class="cls-13" d="M370,558.32l-2,.72Z"/><path class="cls-23" d="M413.08,550l-1.84-2.94c.64-.34,1.71-1.1,1.85-1a17.72,17.72,0,0,1,1.86,2.68C414.32,549.22,413.7,549.63,413.08,550Z"/><path class="cls-13" d="M406,553.67l2.8-1.24Z"/><path class="cls-13" d="M393.61,557.89c.15-.75.31-1.5.47-2.26l.77,1.92Z"/><path class="cls-15" d="M302,525l-2,3Z"/><path class="cls-18" d="M514.81,462.22c-4-4.81-3.11-9.41,2.14-11.22Q515.89,456.61,514.81,462.22Z"/><path class="cls-18" d="M513.28,468.09l-1.91-1.57,3-2.52C514,465.37,513.64,466.73,513.28,468.09Z"/><path class="cls-19" d="M566.81,543.08c-.57.34-1,.82-1.26.72-.44-.22-.73-.73-1.09-1.12.41-.16.83-.48,1.22-.45S566.32,542.68,566.81,543.08Z"/><path class="cls-13" d="M367.9,586l-.71,2.06C367.42,587.33,367.66,586.65,367.9,586Z"/><path class="cls-13" d="M372.1,593l-1.59-3.34,2.76-.57Z"/><path class="cls-13" d="M375.3,585.09l-3.07-1.1c.45-.56.89-1.13,1.33-1.69l3.71-.18Z"/></g></g></svg>