<?xml version="1.0" encoding="utf-8"?>
<!-- Generator: Adobe Illustrator 26.0.0, SVG Export Plug-In . SVG Version: 6.00 Build 0)  -->
<svg version="1.1" id="Layer_1" xmlns="http://www.w3.org/2000/svg" xmlns:xlink="http://www.w3.org/1999/xlink" x="0px" y="0px"
	 viewBox="0 0 629.1 503.3" style="enable-background:new 0 0 629.1 503.3;" xml:space="preserve">
<style type="text/css">
	.st0{fill:#D8CA27;}
	.st1{fill:#A0616A;}
	.st2{fill:#9E616A;}
	.st3{fill:#2F2E41;}
	.st4{fill:#6C63FF;}
	.st5{fill:#3F3D56;}
	.st6{fill:#65A89E;}
	.st7{fill:#FFB6B6;}
	.st8{fill:#F2F2F2;}
	.st9{fill:#CACACA;}
</style>
<path class="st0" d="M571.6,503.2l0-0.4c-1.2-11.9,2.9-23.8,11.2-32.5c2.3-2.4,4.9-4.5,7.8-6.2l0.3-0.2l0.1,0.3
	c1.1,3.6,2.5,7.3,3.1,8.9l1.4-11.6l0.3-0.1c2.9-1.3,6.3-0.7,8.5,1.6c2.3,2.2,3.1,5.6,1.9,8.6c-0.5,1.3-1,2.7-1.5,4.1
	c-1.6,4.6-3.3,9.4-6.2,13.4c-4.4,6-11.4,9.6-18.8,9.9L571.6,503.2z"/>
<path class="st0" d="M277.3,499c-7.4-0.3-14.3-3.9-18.8-9.9c-2.9-3.9-4.6-8.7-6.2-13.4c-0.5-1.3-1-2.7-1.5-4.1
	c-1.2-3-0.4-6.4,1.9-8.6c2.3-2.2,5.6-2.8,8.5-1.6l0.3,0.1l1.4,11.6c0.6-1.6,2.1-5.3,3.1-8.9l0.1-0.3l0.3,0.2
	c2.8,1.7,5.5,3.8,7.8,6.2c8.3,8.6,12.4,20.5,11.2,32.5l0,0.4L277.3,499z"/>
<path class="st1" d="M184.1,260.4c0,0-3.8-30.7-12.4-40.1l-20.2,7.8l15.9,40.6l32.2,40.6c0.5,4.7,4.7,8.1,9.5,7.6
	c4.7-0.5,8.1-4.7,7.6-9.5c-0.3-3.1-2.3-5.8-5.2-7L184.1,260.4z"/>
<path class="st1" d="M81.3,277.5c0,0,13.8-27.7,11.8-40.3L72,232.6l-9.1,42.7l4.4,51.7c-2.2,4.2-0.5,9.4,3.7,11.6
	c4.2,2.2,9.4,0.5,11.6-3.7c1.4-2.8,1.2-6.1-0.5-8.7L81.3,277.5z"/>
<polygon class="st2" points="105.7,490.1 115.7,490.1 120.5,451.5 105.7,451.5 "/>
<path class="st3" d="M105.4,500.5l30.7,0v-0.4c0-6.6-5.4-12-12-12h0l-5.6-4.3l-10.5,4.3l-2.7,0L105.4,500.5z"/>
<polygon class="st2" points="133.1,484.4 142.8,486.6 156,450.1 141.6,446.8 "/>
<path class="st3" d="M130.4,494.5l30,6.8l0.1-0.4c1.5-6.4-2.6-12.9-9-14.3l0,0l-4.5-5.4l-11.2,1.8l-2.6-0.6L130.4,494.5z"/>
<path class="st3" d="M178.1,385c-5.9,18.9-21.1,69.1-21.1,69.1s-12.9,3.2-17,0s1-14,1-14c-2.7-12.1,3.4-24.3,3.8-36
	c-0.8-4.9,3.5-9.1,3.9-13.8c-2.9-2.2-16.8-36.3-19.6-45.8c1.5,29.1-2.1,72.6-6.1,100.6c-1.9,13.3-4.5,9.4-18,10c-6-1.8-5-15-5-15
	v-11c-2.9-12.3-3-15-2-21c-0.4-6.4-5.9-72.5-10.8-94.8c-3.3-17.8,36.6-21.7,48.1-26c19.1-9.2,15.9,3.9,26,16
	C171,324.1,176.7,361.2,178.1,385z"/>
<polygon class="st4" points="139.7,191.8 130.1,178 113.1,178 98.1,192 96.8,316.4 164.7,324 "/>
<path class="st5" d="M133,181.3l26.9,12.3l5.1,79.4c0,0,4.3,10.2,4.7,11.2c0.4,1.1,1.1,6.3,0.8,7.1c-1,2.8-1.4,5.7-1.4,8.7
	c0.2,2.3,2.7,6.3,3.3,8.5c0.4,1.5-2.3,6.5-2.3,6.5l0,0c2.3,3.4,2.9,7.6,1.7,11.5l-0.7,2.5l-14-2l-6-29.7l-0.6-3.1l-0.7-3.2l-0.5-2.5
	l-0.5-2.3l-0.4-1.9L133,181.3z"/>
<path class="st5" d="M142.9,197.6l17-4c8.2,9.5,14.9,28.4,20.1,45.5c0.4,1.2,0.1,2.9,1.1,3.6c1.9,1.3,3,2.9,1.6,5.5
	c-0.5,1,0.6,2.1,0.9,3.1c0.3,0.9-0.1,2.3,0.7,2.5c2.4,0.7,2.5,2.7,1.6,5.3l-20,10l-0.6-0.9l-2.2-3.6l-9.7-15.6L142.9,197.6z"/>
<path class="st5" d="M109.1,182l-15.1,13.6c0,0-3.5,57.5-5.9,79.4c-0.1,0.9,1.2,3.2,1.1,4.1l-0.6,5.5l-0.4,4.1
	c-0.2,1.5-2.1,16.3-2.1,16.3l-3,2l0,0c-1.3,5.7-0.6,11.7,2,17l2,4l21.9-2.4L109.1,182z"/>
<path class="st5" d="M100,204.1l-6.1-8.5l-19,12c-4.2,11.6-8.8,31.8-11.3,49.4c-0.1,0.4,0.2,1.1-0.2,1.2c-1.4,0.4-1.8,1.1-0.3,2.3
	c0.7,0.9,0.6,2.2-0.3,2.9c0,0,0,0,0,0c-1.6,0.8-2.8,1.5-0.3,2.3c1.8,0.5-0.4,3.7-0.5,5.5l22,5c2-0.6,2.4-1.8,1.3-3.5
	c1.7-0.5,2.3-1.4,1.1-3l0.5-1.4c1.8-0.3,1.8-1.1,0.8-2.1l0.7-2l3.5-9.1L100,204.1z"/>
<circle class="st1" cx="119.2" cy="151.7" r="22.4"/>
<path class="st3" d="M96.5,166.1c0,0,4.9,1.4,7.8,2.1c-0.1-2.1-1.1-4.1-1.5-6.2s-0.4-4.5,1.2-6s4.8-0.9,5,1.2
	c1.3-2.8,2.6-5.6,3.9-8.4c3.8,7.7,11.4,1.1,19.8,3.1c4.3,1,9.6,0.6,11.9-3.2c-1.3-1.1-2.3-2.3-3.2-3.8c1.3,0.4,2.7,0.6,4,0.5
	c-0.1-2.7-1.4-5.3-3.7-6.8c-1.2-0.8,1.8-3.6,0.7-4.6c-2.2-2-3.6-0.6-4.9-3.3c-1.7-3.3-5.1-5.4-8.9-5.4c-3.7,0.1-10.2,0.1-11.6,3.4
	c-4.5-3-10.8-2.1-15.2,1c-3.7,2.6-7.9,10.3-8.8,14.7S94.2,162.3,96.5,166.1z"/>
<path class="st4" d="M198.4,264.9c-1.5,0-2.8,1.2-2.8,2.8c0,0.1,0,0.2,0,0.2c4.2,10.9,3.7,23.6,3.1,37.8c0.1,1.4,1.3,2.5,2.8,2.5
	h17.8c1.4,0,2.6-1.1,2.8-2.5c-1.4-13.9-0.7-26.6,3.1-37.8c0.1-1.5-1-2.9-2.5-3c-0.1,0-0.2,0-0.2,0H198.4z"/>
<path class="st5" d="M226.6,269.9l-1.3-6.3c-0.2-1.2-1.3-2-2.5-2h-8.3c0-0.1-0.1-0.2-0.2-0.3l-0.9-1.2c-0.2-0.2-0.4-0.3-0.7-0.3
	h-5.1c-0.3,0-0.5,0.1-0.7,0.3l-0.9,1.2c-0.1,0.1-0.1,0.2-0.2,0.3H198c-1.2,0-2.3,0.8-2.5,2l-1.3,6.3c-0.3,1.4,0.6,2.7,2,3
	c0.2,0,0.4,0.1,0.5,0.1c8.5,4.4,17.6,4.5,27.4,0c1.4,0,2.6-1.1,2.6-2.6C226.7,270.3,226.7,270.1,226.6,269.9z"/>
<path class="st5" d="M453,273.1c-0.4-1.7-2-6.8-4-4.5c-0.3,0.3-0.5-0.7-0.8-1.1c-0.5-0.7-0.8-3.6-1.3-4.4c-1-1.6-2.3-1.1-3.3-2.9
	c-2.9-5.2-5.7-11.1-6.7-16.1c-3.1-15.3,1.2-36.2,1.2-36.2l-1.4-29.8l-10.2-0.3v-0.7c0-2.8-2.3-5.1-5.1-5.1h-19.4
	c-2.7,0-4.9,2.1-5.1,4.7l-8-0.3l-13.8,43.9c0,0,6.5,16.6,8.7,32.7c0.6,4.3,0.8,8.7,0.4,13.1c-0.3,4.4-1.2,8.8-2.6,13
	c0,0,58.7,12.3,70.1,0.9C452,280.1,453.8,276.1,453,273.1z"/>
<path class="st6" d="M528.1,276.3h-13.9V53.2c-1-0.7-1.9-1.4-2.9-2.1c-0.2-0.1-0.4-0.3-0.6-0.4c-5.9-4.1-12.1-7.9-18.5-11.2
	c-2.9-3.8-6-7.4-9.4-10.8c-38.3-38.3-100.3-38.3-138.6,0c-3.4,3.4-6.5,7-9.3,10.8c-4.3,2.3-8.5,4.7-12.6,7.3
	c-0.4,0.2-0.8,0.5-1.2,0.8c0,0,0,0,0,0c-1.4,0.9-2.3,2.5-2.3,4.3v224.5h-19.7c-8.7,0-16.2,7.1-16.2,15.8c0,2,0.4,3.9,1.1,5.8
	c0.3,0.7,0.6,1.4,1,2.1c0.5,0.9,1.1,1.7,1.8,2.5c3,3.4,7.3,5.4,11.8,5.4h229.8c8.7,0,15.7-7,15.7-15.7
	C544.3,283.5,536.8,276.3,528.1,276.3z M456.6,276.3H376l-11.1-153.6h102.9L456.6,276.3z"/>
<polygon class="st7" points="469.6,219.3 504.1,188.6 514.3,193.6 472.9,237 "/>
<path class="st5" d="M431.1,181.2l5.7-3.1c0,0,14-1.2,19.8,15.3l15.2,22.9l24.6-21.3l10.7,7.4l-31,37l-12.9,1.6L435.2,205
	L431.1,181.2z"/>
<path class="st3" d="M440.4,154.8c-3.1,21.1-18.6,23.3-29.9,12.3c-11.9-11.5-29.9,2.2-29.9-12.3s6.5-40.2,29.9-40.2
	C434.6,114.6,442.5,140.5,440.4,154.8z"/>
<circle class="st7" cx="410.3" cy="146.9" r="20.2"/>
<path class="st3" d="M387,145L387,145h8l3.5-9.8l0.7,9.8h3.8l2.1-5.7l0.4,5.7c5.8,5.3,16.6,3.3,28.3,0l0,0
	c0-11.8-9.6-21.3-21.3-21.3h-4.1C396.6,123.6,387,133.2,387,145L387,145z"/>
<path class="st7" d="M350,289.4c4.5,0,8.2-3.7,8.2-8.2c0-2.1-0.8-4.1-2.2-5.6l11.2-29.6l2.3-9.9l0,0c-4.6-2.9-10.8-1.5-13.7,3.1
	c-0.4,0.7-0.8,1.4-1,2.2l-11.7,35.3c-2.5,3.8-1.4,8.9,2.4,11.4C346.8,289,348.4,289.4,350,289.4L350,289.4z"/>
<path class="st4" d="M485.8,159.1c-1.5,0-2.8,1.2-2.8,2.8c0,0.1,0,0.2,0,0.2c3.1,13.4,4.4,26.1,3.1,37.8c0.1,1.4,1.3,2.5,2.8,2.5
	h17.8c1.4,0,2.6-1.1,2.8-2.5c-1-12.7,0.1-25.5,3.1-37.8c0.1-1.5-1-2.9-2.5-3c-0.1,0-0.2,0-0.2,0H485.8z"/>
<path class="st5" d="M514,164.2l-1.3-6.3c-0.2-1.2-1.3-2-2.5-2h-8.3c0-0.1-0.1-0.2-0.2-0.3l-0.9-1.2c-0.2-0.2-0.4-0.3-0.7-0.3H495
	c-0.3,0-0.5,0.1-0.7,0.3l-0.9,1.2c-0.1,0.1-0.1,0.2-0.2,0.3h-7.7c-1.2,0-2.3,0.8-2.5,2l-1.3,6.3c-0.3,1.4,0.6,2.7,2,3
	c0.2,0,0.4,0.1,0.5,0.1c9.2,3.8,18.3,4.6,27.4,0c1.4,0,2.6-1.1,2.6-2.6C514.1,164.5,514.1,164.3,514,164.2z"/>
<path class="st4" d="M404.8,38.4c-1,0-1.9,0.8-1.9,1.9c0,0.1,0,0.1,0,0.2l2.1,25.4c0.1,1,0.9,1.7,1.8,1.7h12c1,0,1.8-0.7,1.8-1.7
	l2.1-25.4c0.1-1-0.7-1.9-1.7-2c-0.1,0-0.1,0-0.2,0H404.8z"/>
<path class="st5" d="M423.7,41.8l-0.9-4.2c-0.2-0.8-0.9-1.4-1.7-1.4h-5.6c0-0.1-0.1-0.1-0.1-0.2l-0.6-0.8c-0.1-0.1-0.3-0.2-0.5-0.2
	h-3.4c-0.2,0-0.4,0.1-0.5,0.2l-0.6,0.8c0,0.1-0.1,0.1-0.1,0.2h-5.2c-0.8,0-1.5,0.6-1.7,1.4l-0.9,4.2c-0.2,0.9,0.4,1.8,1.3,2
	c0.1,0,0.2,0,0.4,0H422c0.9,0,1.7-0.8,1.7-1.7C423.7,42,423.7,41.9,423.7,41.8z"/>
<path class="st8" d="M413.1,82c-18.2,0-33-14.8-33-33s14.8-33,33-33s33,14.8,33,33C446,67.2,431.3,82,413.1,82z M413.1,18
	c-17.1,0-31,13.9-31,31s13.9,31,31,31s31-13.9,31-31C444,31.9,430.2,18,413.1,18z"/>
<polygon class="st6" points="514.1,502 317.1,502 317.3,479.1 317.3,477.1 319.1,298 513.1,298 513.3,349.7 513.3,351.7 "/>
<path class="st9" d="M627.9,503L1.2,503.3c-0.7,0-1.2-0.5-1.2-1.2c0-0.7,0.5-1.2,1.2-1.2l626.8-0.3c0.7,0,1.2,0.5,1.2,1.2
	C629.1,502.4,628.6,503,627.9,503z"/>
<path class="st4" d="M307.4,235.9c-1.5,0-2.8,1.2-2.8,2.8c0,0.1,0,0.2,0,0.2c2.8,13.3,4.1,26,3.1,37.8c0.1,1.4,1.3,2.5,2.8,2.5h17.8
	c1.4,0,2.6-1.1,2.8-2.5c-1.4-11.9,0.1-24.7,3.1-37.8c0.1-1.5-1-2.9-2.5-3c-0.1,0-0.2,0-0.2,0H307.4z"/>
<path class="st5" d="M335.6,240.9l-1.3-6.3c-0.2-1.2-1.3-2-2.5-2h-8.3c0-0.1-0.1-0.2-0.2-0.3l-0.9-1.2c-0.2-0.2-0.4-0.3-0.7-0.3
	h-5.1c-0.3,0-0.5,0.1-0.7,0.3l-0.9,1.2c-0.1,0.1-0.1,0.2-0.2,0.3H307c-1.2,0-2.3,0.8-2.5,2l-1.3,6.3c-0.3,1.4,0.6,2.7,2,3
	c0.2,0,0.4,0.1,0.5,0.1c8.9,2.8,18.5,2.8,27.4,0c1.4,0,2.6-1.1,2.6-2.6C335.7,241.3,335.7,241.1,335.6,240.9z"/>
<rect x="320.1" y="381" class="st8" width="91.7" height="2"/>
<rect x="421.1" y="307" class="st8" width="91.7" height="2"/>
<rect x="370.1" y="445" class="st8" width="91.7" height="2"/>
<polygon class="st8" points="513.3,352 470.1,352 470.1,350 513.3,350 "/>
<polygon class="st8" points="329.3,293 286.1,293 286.1,291 329.3,291 "/>
<polygon class="st8" points="363.3,96 320.1,96 320.1,94 363.3,94 "/>
<polygon class="st8" points="508.3,55 465.1,55 465.1,53 508.3,53 "/>
<polygon class="st8" points="464.3,96 421.1,96 421.1,94 464.3,94 "/>
<polygon class="st8" points="344.8,478 344.8,480 317.3,480 317.3,478 "/>
<circle class="st7" cx="510.6" cy="192.9" r="8.2"/>
<path class="st5" d="M392.5,182l-3.4-5.5c0,0-11.2-2.8-15.8,4.6s-29.3,87-29.3,87l14,5l27-61.8L392.5,182z"/>
</svg>
