<?xml version="1.0" encoding="utf-8"?>
<!-- Generator: Adobe Illustrator 26.0.0, SVG Export Plug-In . SVG Version: 6.00 Build 0)  -->
<svg version="1.1" id="Layer_1" xmlns="http://www.w3.org/2000/svg" xmlns:xlink="http://www.w3.org/1999/xlink" x="0px" y="0px"
	 viewBox="0 0 792.1 584.6" style="enable-background:new 0 0 792.1 584.6;" xml:space="preserve">
<style type="text/css">
	.st0{fill:#FFB7B7;}
	.st1{fill:#2F2E41;}
</style>
<path class="st0" d="M459.9,265.1c0.4,0.4,0.7,0.8,1.1,1.3l49.6-1.2l5.8-10.6l17.1,6.6L525,281c-1.4,3.3-4.8,5.2-8.3,4.8l-56-6.8
	c-3.6,4.5-10.2,5.3-14.7,1.7c-4.5-3.6-5.3-10.2-1.7-14.7c3.6-4.5,10.2-5.3,14.7-1.7C459.3,264.5,459.6,264.8,459.9,265.1
	L459.9,265.1z"/>
<polygon class="st0" points="621.5,566.2 605.2,566.2 597.5,503.3 621.5,503.3 "/>
<path class="st1" d="M625.7,582h-52.6v-0.7c0-11.3,9.2-20.5,20.5-20.5l0,0h32.1V582z"/>
<polygon class="st0" points="473.5,565.9 458.5,559.5 476.1,498.6 498.2,508 "/>
<path class="st1" d="M471.1,582l-48.3-20.7l0.3-0.6c4.4-10.4,16.5-15.2,26.9-10.8l0,0l29.5,12.6L471.1,582z"/>
<polygon class="st0" points="542.3,278.7 541.1,297.8 575.6,301.5 611.6,305.4 601,276.4 "/>
<path class="st1" d="M540.5,285.8l-13.9-81.1l23.2-7.6l6.8-9.3l33.2,2l4.9,10.9l17.7,8.4l-2.7,50.5l-4.8,23.5l-0.6-0.3
	c-23.9-12.4-62.8,2.8-63.2,2.9L540.5,285.8z"/>
<path class="st1" d="M531.6,273.1l-23.6-9.4l0.1-0.4c0.1-0.4,10.1-42.4,11.5-49.1c1.4-7,6.5-9,6.7-9l0.2-0.1l9.3,2.8l4.1,32.2
	L531.6,273.1z"/>
<path class="st1" d="M485.7,554.8l-31.4-6.4l50.2-138.5l17.2-47.3c0,0,10.9-37.9,15.8-52.6l3-19.7l70.3,7.8c0,0,19.6,28.9,13.7,75.9
	l2.7,176.8l-31.4,1.6l-26.3-178.3l-46.2,97.7c0,0-14.6,41.7-25,50.7L485.7,554.8z"/>
<path class="st0" d="M582.6,304.7c0.6,0,1.1,0,1.7,0.1l32.8-37.2l-3.8-11.4l16.5-8l8.7,19.6c1.4,3.2,0.6,7.1-2.1,9.4l-43,36.5
	c0.9,5.7-3,11.1-8.8,12c-5.7,0.9-11.1-3-12-8.8c-0.9-5.7,3-11.1,8.8-12C581.7,304.7,582.1,304.7,582.6,304.7L582.6,304.7z"/>
<path class="st1" d="M614.4,271.2L600.7,239l5.3-22.4l5.8-7.3c0.9-0.4,1.8-0.4,2.7,0c2.1,0.9,3.9,3.5,5.4,7.8l12.8,36.5L614.4,271.2
	z"/>
<path class="st1" d="M543.4,175.9v-24.3c0-18,14.6-32.5,32.5-32.5s32.5,14.6,32.5,32.5v24.3c0,2.4-2,4.4-4.4,4.4h-56.3
	C545.4,180.3,543.4,178.3,543.4,175.9z"/>
<circle class="st0" cx="569.2" cy="155.8" r="23.9"/>
<path class="st1" d="M535.7,153.6c0-14.2,11.5-25.7,25.7-25.7h4.9c14.2,0,25.7,11.5,25.7,25.7v0.5h-10.3l-3.5-9.8l-0.7,9.8h-5.3
	l-1.8-4.9l-0.4,4.9h-34.4L535.7,153.6L535.7,153.6z"/>
<path class="st1" d="M566.9,183c-1-1.3-1.1-3.1-0.3-4.6c5.1-9.8,12.4-27.9,2.8-39l-0.7-0.8h27.8v41.7l-25.2,4.4
	c-0.3,0-0.5,0.1-0.8,0.1C569,184.8,567.7,184.1,566.9,183z"/>
</svg>
